G04 EAGLE Gerber RS-274X export*
G75*
%MOMM*%
%FSLAX34Y34*%
%LPD*%
%INBottom Copper*%
%IPPOS*%
%AMOC8*
5,1,8,0,0,1.08239X$1,22.5*%
G01*
%ADD10C,1.625600*%
%ADD11C,1.422400*%
%ADD12C,1.422400*%
%ADD13C,1.509600*%
%ADD14C,1.016000*%
%ADD15C,0.508000*%
%ADD16C,0.254000*%

G36*
X505419Y2615D02*
X505419Y2615D01*
X505417Y2618D01*
X505419Y2620D01*
X505419Y505380D01*
X505385Y505419D01*
X505382Y505417D01*
X505380Y505419D01*
X2620Y505419D01*
X2581Y505385D01*
X2583Y505382D01*
X2581Y505380D01*
X2581Y367475D01*
X2590Y367464D01*
X2589Y367451D01*
X2603Y367450D01*
X2615Y367436D01*
X2629Y367448D01*
X2648Y367447D01*
X3513Y368312D01*
X136852Y501651D01*
X202238Y501651D01*
X251461Y452428D01*
X251461Y348942D01*
X249217Y346698D01*
X228004Y325484D01*
X228002Y325464D01*
X227994Y325446D01*
X228001Y325443D01*
X228000Y325433D01*
X228025Y325431D01*
X228046Y325420D01*
X230389Y326391D01*
X234431Y326391D01*
X238166Y324844D01*
X241024Y321986D01*
X242571Y318251D01*
X242571Y314209D01*
X241024Y310474D01*
X240042Y309493D01*
X240041Y309474D01*
X240031Y309465D01*
X240031Y193055D01*
X240037Y193047D01*
X240034Y193040D01*
X241301Y189981D01*
X241301Y185939D01*
X239754Y182204D01*
X238772Y181223D01*
X238771Y181204D01*
X238761Y181195D01*
X238761Y157234D01*
X237601Y154433D01*
X198640Y115473D01*
X198639Y115454D01*
X198629Y115445D01*
X198629Y111673D01*
X196618Y106818D01*
X192902Y103102D01*
X192526Y102946D01*
X192517Y102928D01*
X192502Y102915D01*
X192507Y102909D01*
X192503Y102900D01*
X192525Y102889D01*
X192541Y102871D01*
X193286Y102871D01*
X193768Y102671D01*
X193777Y102674D01*
X193782Y102668D01*
X193783Y102668D01*
X193797Y102681D01*
X193810Y102680D01*
X313678Y222547D01*
X313679Y222563D01*
X313689Y222572D01*
X313688Y222573D01*
X313689Y222575D01*
X313689Y320348D01*
X328918Y335577D01*
X328919Y335596D01*
X328929Y335605D01*
X328929Y336687D01*
X328917Y336701D01*
X328918Y336714D01*
X328775Y336857D01*
X327151Y340778D01*
X327151Y345022D01*
X328775Y348943D01*
X331777Y351945D01*
X335698Y353569D01*
X356198Y353569D01*
X360119Y351945D01*
X363121Y348943D01*
X364745Y345022D01*
X364745Y340778D01*
X363121Y336857D01*
X360119Y333855D01*
X356198Y332231D01*
X336367Y332231D01*
X336353Y332219D01*
X336339Y332220D01*
X321322Y317203D01*
X321321Y317184D01*
X321311Y317175D01*
X321311Y277265D01*
X321320Y277254D01*
X321319Y277241D01*
X321333Y277240D01*
X321345Y277226D01*
X321359Y277238D01*
X321378Y277237D01*
X326378Y282237D01*
X328622Y284481D01*
X330257Y284481D01*
X330267Y284490D01*
X330281Y284489D01*
X330282Y284503D01*
X330296Y284515D01*
X330283Y284529D01*
X330284Y284548D01*
X328775Y286057D01*
X327151Y289978D01*
X327151Y294222D01*
X328775Y298143D01*
X331777Y301145D01*
X335698Y302769D01*
X356198Y302769D01*
X360119Y301145D01*
X363121Y298143D01*
X364745Y294222D01*
X364745Y289978D01*
X363121Y286057D01*
X361612Y284548D01*
X361611Y284534D01*
X361600Y284525D01*
X361609Y284515D01*
X361608Y284496D01*
X361627Y284495D01*
X361639Y284481D01*
X362895Y284481D01*
X362909Y284493D01*
X362923Y284492D01*
X365748Y287317D01*
X365749Y287330D01*
X365754Y287335D01*
X365751Y287338D01*
X365759Y287345D01*
X365759Y423855D01*
X365747Y423869D01*
X365748Y423883D01*
X355811Y433820D01*
X355792Y433821D01*
X355783Y433831D01*
X335698Y433831D01*
X331777Y435455D01*
X328775Y438457D01*
X327151Y442378D01*
X327151Y446622D01*
X328775Y450543D01*
X331777Y453545D01*
X335698Y455169D01*
X356198Y455169D01*
X360119Y453545D01*
X363121Y450543D01*
X364745Y446622D01*
X364745Y442378D01*
X363160Y438553D01*
X363166Y438536D01*
X363165Y438535D01*
X363167Y438533D01*
X363170Y438525D01*
X363169Y438510D01*
X363221Y438458D01*
X363221Y437205D01*
X363233Y437191D01*
X363232Y437177D01*
X373381Y427028D01*
X373381Y284172D01*
X364798Y275589D01*
X361642Y275589D01*
X361343Y275888D01*
X361291Y275891D01*
X361291Y275888D01*
X361287Y275888D01*
X360988Y275589D01*
X360369Y275589D01*
X360359Y275580D01*
X360345Y275581D01*
X360344Y275567D01*
X360330Y275555D01*
X360343Y275541D01*
X360342Y275522D01*
X363121Y272743D01*
X364745Y268822D01*
X364745Y264578D01*
X363121Y260657D01*
X360119Y257655D01*
X356198Y256031D01*
X335698Y256031D01*
X331777Y257655D01*
X328775Y260657D01*
X327151Y264578D01*
X327151Y268822D01*
X328775Y272743D01*
X331554Y275522D01*
X331555Y275536D01*
X331566Y275545D01*
X331557Y275555D01*
X331558Y275574D01*
X331539Y275575D01*
X331527Y275589D01*
X331162Y275589D01*
X330863Y275888D01*
X330811Y275891D01*
X330811Y275888D01*
X330807Y275888D01*
X326402Y271483D01*
X326401Y271464D01*
X326391Y271455D01*
X326391Y211782D01*
X197158Y82549D01*
X145742Y82549D01*
X35746Y192545D01*
X35728Y192546D01*
X35724Y192551D01*
X35708Y192551D01*
X35703Y192553D01*
X35650Y192531D01*
X15150Y192531D01*
X11229Y194155D01*
X8227Y197157D01*
X6603Y201078D01*
X6603Y205322D01*
X8227Y209243D01*
X11229Y212245D01*
X15150Y213869D01*
X35650Y213869D01*
X39571Y212245D01*
X42573Y209243D01*
X44197Y205322D01*
X44197Y201078D01*
X42573Y197157D01*
X42270Y196854D01*
X42269Y196841D01*
X42261Y196834D01*
X42268Y196826D01*
X42267Y196803D01*
X42270Y196802D01*
X42270Y196799D01*
X148887Y90182D01*
X148906Y90181D01*
X148915Y90171D01*
X185977Y90171D01*
X185988Y90180D01*
X186001Y90179D01*
X186002Y90193D01*
X186016Y90205D01*
X186004Y90219D01*
X186005Y90238D01*
X185309Y90933D01*
X184149Y93734D01*
X184149Y96766D01*
X185309Y99567D01*
X186767Y101024D01*
X186768Y101038D01*
X186778Y101047D01*
X186769Y101057D01*
X186770Y101076D01*
X186752Y101077D01*
X186739Y101091D01*
X166537Y101091D01*
X161682Y103102D01*
X157966Y106818D01*
X155955Y111673D01*
X155955Y112651D01*
X155943Y112665D01*
X155944Y112679D01*
X136555Y132068D01*
X136536Y132069D01*
X136527Y132079D01*
X135139Y132079D01*
X131404Y133626D01*
X128546Y136484D01*
X126999Y140219D01*
X126999Y144261D01*
X128546Y147996D01*
X131404Y150854D01*
X135139Y152401D01*
X139181Y152401D01*
X142916Y150854D01*
X145774Y147996D01*
X147321Y144261D01*
X147321Y142873D01*
X147333Y142859D01*
X147332Y142845D01*
X163783Y126394D01*
X163812Y126393D01*
X163826Y126386D01*
X166537Y127509D01*
X188047Y127509D01*
X188783Y127204D01*
X188810Y127214D01*
X188825Y127213D01*
X223508Y161895D01*
X223509Y161914D01*
X223519Y161923D01*
X223519Y181195D01*
X223507Y181209D01*
X223508Y181223D01*
X222526Y182204D01*
X220979Y185939D01*
X220979Y189981D01*
X222526Y193716D01*
X224778Y195967D01*
X224779Y195986D01*
X224789Y195995D01*
X224789Y309465D01*
X224777Y309479D01*
X224778Y309493D01*
X223796Y310474D01*
X222249Y314209D01*
X222249Y318251D01*
X223220Y320594D01*
X223213Y320613D01*
X223214Y320633D01*
X223206Y320633D01*
X223203Y320643D01*
X223180Y320635D01*
X223156Y320636D01*
X196100Y293581D01*
X196099Y293562D01*
X196089Y293553D01*
X196089Y289978D01*
X194465Y286057D01*
X191463Y283055D01*
X187542Y281431D01*
X167042Y281431D01*
X163121Y283055D01*
X160119Y286057D01*
X158495Y289978D01*
X158495Y294222D01*
X160119Y298143D01*
X163121Y301145D01*
X167042Y302769D01*
X187542Y302769D01*
X191463Y301145D01*
X192147Y300461D01*
X192198Y300458D01*
X192199Y300461D01*
X192202Y300461D01*
X243828Y352087D01*
X243829Y352106D01*
X243839Y352115D01*
X243839Y449255D01*
X243827Y449269D01*
X243828Y449283D01*
X217238Y475873D01*
X217224Y475874D01*
X217215Y475884D01*
X217205Y475875D01*
X217186Y475876D01*
X217185Y475858D01*
X217171Y475845D01*
X217171Y472959D01*
X215624Y469224D01*
X212766Y466366D01*
X209031Y464819D01*
X204989Y464819D01*
X201254Y466366D01*
X198396Y469224D01*
X196849Y472959D01*
X196849Y474347D01*
X196837Y474361D01*
X196838Y474375D01*
X189895Y481318D01*
X189876Y481319D01*
X189867Y481329D01*
X164463Y481329D01*
X164449Y481317D01*
X164435Y481318D01*
X71132Y388015D01*
X71131Y387996D01*
X71121Y387987D01*
X71121Y355132D01*
X71155Y355093D01*
X71158Y355095D01*
X71160Y355093D01*
X73037Y355093D01*
X77519Y353236D01*
X80948Y349807D01*
X82805Y345325D01*
X82805Y340475D01*
X80948Y335993D01*
X77519Y332564D01*
X73037Y330707D01*
X53963Y330707D01*
X49481Y332564D01*
X46052Y335993D01*
X44195Y340475D01*
X44195Y345325D01*
X46052Y349807D01*
X49481Y353236D01*
X53963Y355093D01*
X55840Y355093D01*
X55879Y355127D01*
X55877Y355130D01*
X55879Y355132D01*
X55879Y392676D01*
X57039Y395477D01*
X154824Y493261D01*
X155525Y493962D01*
X155526Y493976D01*
X155536Y493985D01*
X155527Y493995D01*
X155528Y494014D01*
X155510Y494015D01*
X155497Y494029D01*
X140025Y494029D01*
X140011Y494017D01*
X139997Y494018D01*
X8902Y362923D01*
X8901Y362909D01*
X8892Y362901D01*
X8894Y362898D01*
X8891Y362895D01*
X8891Y362401D01*
X8900Y362391D01*
X8899Y362377D01*
X8913Y362376D01*
X8925Y362362D01*
X8939Y362375D01*
X8958Y362374D01*
X11229Y364645D01*
X15150Y366269D01*
X35650Y366269D01*
X39571Y364645D01*
X42573Y361643D01*
X44197Y357722D01*
X44197Y353478D01*
X42573Y349557D01*
X39571Y346555D01*
X35650Y344931D01*
X15150Y344931D01*
X11229Y346555D01*
X8958Y348826D01*
X8944Y348827D01*
X8935Y348838D01*
X8925Y348829D01*
X8906Y348830D01*
X8905Y348811D01*
X8891Y348799D01*
X8891Y348305D01*
X8903Y348291D01*
X8902Y348277D01*
X13971Y343208D01*
X13971Y341955D01*
X13983Y341941D01*
X13982Y341927D01*
X15054Y340855D01*
X15083Y340853D01*
X15097Y340847D01*
X15150Y340869D01*
X35650Y340869D01*
X39571Y339245D01*
X42573Y336243D01*
X44197Y332322D01*
X44197Y328078D01*
X42573Y324157D01*
X39571Y321155D01*
X35650Y319531D01*
X15150Y319531D01*
X11229Y321155D01*
X8227Y324157D01*
X6603Y328078D01*
X6603Y332322D01*
X8227Y336243D01*
X8530Y336546D01*
X8533Y336597D01*
X8530Y336598D01*
X8530Y336601D01*
X6349Y338782D01*
X6349Y340035D01*
X6337Y340049D01*
X6338Y340063D01*
X2648Y343753D01*
X2634Y343754D01*
X2625Y343764D01*
X2615Y343755D01*
X2596Y343756D01*
X2595Y343738D01*
X2581Y343725D01*
X2581Y2620D01*
X2615Y2581D01*
X2618Y2583D01*
X2620Y2581D01*
X505380Y2581D01*
X505419Y2615D01*
G37*
%LPC*%
G36*
X442075Y117507D02*
X442075Y117507D01*
X437593Y119364D01*
X434164Y122793D01*
X434095Y122959D01*
X434078Y122967D01*
X434074Y122980D01*
X433833Y123079D01*
X433467Y123446D01*
X433457Y123447D01*
X433454Y123454D01*
X431293Y124349D01*
X366919Y188723D01*
X365759Y191524D01*
X365759Y214876D01*
X366919Y217677D01*
X368288Y219045D01*
X368289Y219064D01*
X368299Y219073D01*
X368299Y263136D01*
X369459Y265937D01*
X381984Y278461D01*
X381986Y278490D01*
X381992Y278504D01*
X381507Y279675D01*
X381507Y284525D01*
X383364Y289007D01*
X386793Y292436D01*
X389212Y293438D01*
X389218Y293451D01*
X389231Y293455D01*
X389227Y293468D01*
X389235Y293485D01*
X389218Y293493D01*
X389212Y293511D01*
X388232Y293917D01*
X385517Y296632D01*
X384047Y300180D01*
X384047Y304020D01*
X385517Y307568D01*
X388232Y310283D01*
X391780Y311753D01*
X395620Y311753D01*
X399168Y310283D01*
X401883Y307568D01*
X403353Y304020D01*
X403353Y300180D01*
X401883Y296632D01*
X399168Y293917D01*
X398188Y293511D01*
X398182Y293499D01*
X398169Y293494D01*
X398173Y293481D01*
X398165Y293464D01*
X398182Y293456D01*
X398188Y293438D01*
X400607Y292436D01*
X404036Y289007D01*
X405893Y284525D01*
X405893Y279675D01*
X404036Y275193D01*
X400607Y271764D01*
X396125Y269907D01*
X395001Y269907D01*
X394987Y269895D01*
X394973Y269896D01*
X383552Y258475D01*
X383551Y258462D01*
X383545Y258456D01*
X383548Y258453D01*
X383541Y258447D01*
X383541Y221613D01*
X383553Y221599D01*
X383552Y221585D01*
X388265Y216872D01*
X388294Y216870D01*
X388308Y216864D01*
X389212Y217238D01*
X389218Y217251D01*
X389231Y217255D01*
X389227Y217268D01*
X389235Y217285D01*
X389218Y217293D01*
X389212Y217311D01*
X388232Y217717D01*
X385517Y220432D01*
X384047Y223980D01*
X384047Y227820D01*
X385517Y231368D01*
X388232Y234083D01*
X391780Y235553D01*
X395620Y235553D01*
X399168Y234083D01*
X401883Y231368D01*
X403353Y227820D01*
X403353Y223980D01*
X401883Y220432D01*
X399168Y217717D01*
X398188Y217311D01*
X398182Y217299D01*
X398169Y217294D01*
X398173Y217281D01*
X398165Y217264D01*
X398182Y217256D01*
X398188Y217238D01*
X400607Y216236D01*
X404036Y212807D01*
X405893Y208325D01*
X405893Y203475D01*
X404036Y198993D01*
X400607Y195564D01*
X396125Y193707D01*
X391275Y193707D01*
X386793Y195564D01*
X383364Y198993D01*
X382500Y201079D01*
X382491Y201083D01*
X382491Y201091D01*
X381068Y202515D01*
X381054Y202516D01*
X381045Y202526D01*
X381035Y202517D01*
X381016Y202518D01*
X381015Y202500D01*
X381001Y202487D01*
X381001Y196213D01*
X381013Y196199D01*
X381012Y196185D01*
X437349Y139848D01*
X437368Y139847D01*
X437376Y139838D01*
X437379Y139838D01*
X437387Y139846D01*
X437401Y139845D01*
X437401Y139848D01*
X437405Y139848D01*
X437593Y140036D01*
X440012Y141038D01*
X440018Y141051D01*
X440031Y141055D01*
X440027Y141068D01*
X440035Y141085D01*
X440018Y141093D01*
X440012Y141111D01*
X439032Y141517D01*
X436317Y144232D01*
X434847Y147780D01*
X434847Y151620D01*
X435942Y154264D01*
X435939Y154274D01*
X435942Y154277D01*
X435935Y154285D01*
X435933Y154292D01*
X435934Y154307D01*
X413088Y177153D01*
X410980Y179260D01*
X410951Y179262D01*
X410938Y179269D01*
X410456Y179069D01*
X407424Y179069D01*
X404623Y180229D01*
X402479Y182373D01*
X401319Y185174D01*
X401319Y188206D01*
X402479Y191007D01*
X404623Y193151D01*
X407424Y194311D01*
X410456Y194311D01*
X413257Y193151D01*
X415401Y191007D01*
X416519Y188305D01*
X416525Y188303D01*
X416525Y188296D01*
X416540Y188295D01*
X416566Y188283D01*
X416571Y188293D01*
X416583Y188293D01*
X465010Y236720D01*
X465011Y236733D01*
X465020Y236741D01*
X465013Y236750D01*
X465019Y236762D01*
X464819Y237244D01*
X464819Y240276D01*
X465979Y243077D01*
X468123Y245221D01*
X470924Y246381D01*
X473956Y246381D01*
X476757Y245221D01*
X478901Y243077D01*
X480061Y240276D01*
X480061Y237244D01*
X478901Y234443D01*
X476757Y232299D01*
X473956Y231139D01*
X470924Y231139D01*
X470442Y231339D01*
X470416Y231330D01*
X470415Y231330D01*
X470415Y231329D01*
X470400Y231330D01*
X420072Y181003D01*
X420071Y180983D01*
X420064Y180977D01*
X420070Y180970D01*
X420069Y180951D01*
X420072Y180951D01*
X420072Y180947D01*
X441915Y159104D01*
X441945Y159102D01*
X441958Y159095D01*
X442580Y159353D01*
X446420Y159353D01*
X449968Y157883D01*
X452683Y155168D01*
X454153Y151620D01*
X454153Y147780D01*
X452683Y144232D01*
X449968Y141517D01*
X448988Y141111D01*
X448982Y141099D01*
X448969Y141094D01*
X448973Y141081D01*
X448965Y141064D01*
X448982Y141056D01*
X448988Y141038D01*
X451407Y140036D01*
X454836Y136607D01*
X456693Y132125D01*
X456693Y127275D01*
X454836Y122793D01*
X451407Y119364D01*
X446925Y117507D01*
X442075Y117507D01*
G37*
%LPD*%
%LPC*%
G36*
X15150Y217931D02*
X15150Y217931D01*
X11229Y219555D01*
X8227Y222557D01*
X6603Y226478D01*
X6603Y230722D01*
X8227Y234643D01*
X11229Y237645D01*
X15150Y239269D01*
X35650Y239269D01*
X35703Y239247D01*
X35731Y239256D01*
X35746Y239255D01*
X50788Y254297D01*
X53032Y256541D01*
X74605Y256541D01*
X74619Y256553D01*
X74633Y256552D01*
X88523Y270442D01*
X88524Y270455D01*
X88526Y270457D01*
X88526Y270458D01*
X88534Y270465D01*
X88525Y270475D01*
X88526Y270494D01*
X88508Y270495D01*
X88495Y270509D01*
X86114Y270509D01*
X83313Y271669D01*
X81169Y273813D01*
X80009Y276614D01*
X80009Y279646D01*
X81169Y282447D01*
X83313Y284591D01*
X83795Y284790D01*
X83805Y284810D01*
X83819Y284823D01*
X83817Y284825D01*
X83819Y284826D01*
X83819Y320964D01*
X83800Y320985D01*
X83795Y321000D01*
X83313Y321199D01*
X81684Y322829D01*
X81664Y322830D01*
X81646Y322839D01*
X81642Y322832D01*
X81632Y322832D01*
X81630Y322808D01*
X81620Y322786D01*
X82805Y319925D01*
X82805Y315075D01*
X80948Y310593D01*
X77519Y307164D01*
X73037Y305307D01*
X53963Y305307D01*
X49481Y307164D01*
X46052Y310593D01*
X44195Y315075D01*
X44195Y319925D01*
X46052Y324407D01*
X49481Y327836D01*
X53963Y329693D01*
X73037Y329693D01*
X77519Y327836D01*
X80434Y324921D01*
X80454Y324920D01*
X80472Y324911D01*
X80476Y324918D01*
X80486Y324918D01*
X80488Y324942D01*
X80498Y324964D01*
X80009Y326144D01*
X80009Y329176D01*
X81169Y331977D01*
X83313Y334121D01*
X86114Y335281D01*
X89146Y335281D01*
X89272Y335228D01*
X89285Y335233D01*
X89298Y335227D01*
X89304Y335239D01*
X89321Y335245D01*
X89315Y335263D01*
X89324Y335280D01*
X88899Y336304D01*
X88899Y339336D01*
X90059Y342137D01*
X92203Y344281D01*
X95004Y345441D01*
X96115Y345441D01*
X96126Y345450D01*
X96139Y345449D01*
X96140Y345463D01*
X96154Y345475D01*
X96142Y345489D01*
X96143Y345508D01*
X89670Y351980D01*
X89653Y351981D01*
X89650Y351984D01*
X89637Y351984D01*
X89628Y351989D01*
X89146Y351789D01*
X86114Y351789D01*
X83313Y352949D01*
X81169Y355093D01*
X80009Y357894D01*
X80009Y360926D01*
X81169Y363727D01*
X83313Y365871D01*
X86114Y367031D01*
X89146Y367031D01*
X91947Y365871D01*
X94091Y363727D01*
X95251Y360926D01*
X95251Y357894D01*
X95051Y357412D01*
X95053Y357408D01*
X95050Y357406D01*
X95056Y357399D01*
X95061Y357385D01*
X95060Y357370D01*
X117137Y335292D01*
X119381Y333048D01*
X119381Y303570D01*
X119415Y303531D01*
X119418Y303533D01*
X119420Y303531D01*
X123498Y303531D01*
X125742Y301287D01*
X126905Y300124D01*
X126957Y300121D01*
X126957Y300124D01*
X126961Y300124D01*
X127120Y300283D01*
X130668Y301753D01*
X148732Y301753D01*
X152280Y300283D01*
X154995Y297568D01*
X156465Y294020D01*
X156465Y290180D01*
X154995Y286632D01*
X152280Y283917D01*
X148732Y282447D01*
X130668Y282447D01*
X127120Y283917D01*
X124405Y286632D01*
X122935Y290180D01*
X122935Y293299D01*
X122923Y293313D01*
X122924Y293327D01*
X120353Y295898D01*
X120334Y295899D01*
X120325Y295909D01*
X118435Y295909D01*
X118421Y295897D01*
X118407Y295898D01*
X117772Y295263D01*
X105422Y282913D01*
X105421Y282894D01*
X105411Y282885D01*
X105411Y234642D01*
X102680Y231910D01*
X102678Y231892D01*
X102670Y231884D01*
X102676Y231877D01*
X102671Y231868D01*
X102871Y231386D01*
X102871Y228354D01*
X101711Y225553D01*
X99567Y223409D01*
X96766Y222249D01*
X93734Y222249D01*
X90933Y223409D01*
X88789Y225553D01*
X87629Y228354D01*
X87629Y231386D01*
X88789Y234187D01*
X90933Y236331D01*
X93734Y237491D01*
X96766Y237491D01*
X97248Y237291D01*
X97261Y237296D01*
X97270Y237296D01*
X97276Y237301D01*
X97290Y237300D01*
X97778Y237787D01*
X97779Y237800D01*
X97780Y237801D01*
X97779Y237803D01*
X97779Y237806D01*
X97789Y237815D01*
X97789Y268835D01*
X97780Y268846D01*
X97781Y268859D01*
X97767Y268860D01*
X97755Y268874D01*
X97741Y268862D01*
X97722Y268863D01*
X77778Y248919D01*
X56205Y248919D01*
X56191Y248907D01*
X56177Y248908D01*
X42270Y235001D01*
X42269Y234988D01*
X42266Y234985D01*
X42269Y234981D01*
X42267Y234949D01*
X42270Y234949D01*
X42270Y234946D01*
X42573Y234643D01*
X44197Y230722D01*
X44197Y226478D01*
X42573Y222557D01*
X39571Y219555D01*
X35650Y217931D01*
X15150Y217931D01*
G37*
%LPD*%
%LPC*%
G36*
X33816Y437359D02*
X33816Y437359D01*
X25540Y439577D01*
X18119Y443861D01*
X12061Y449919D01*
X7777Y457340D01*
X5559Y465616D01*
X5559Y474184D01*
X7777Y482460D01*
X12061Y489881D01*
X18119Y495939D01*
X25540Y500223D01*
X33816Y502441D01*
X42384Y502441D01*
X50660Y500223D01*
X58081Y495939D01*
X64139Y489881D01*
X68423Y482460D01*
X70641Y474184D01*
X70641Y465616D01*
X68423Y457340D01*
X64139Y449919D01*
X58081Y443861D01*
X50660Y439577D01*
X42384Y437359D01*
X33816Y437359D01*
G37*
%LPD*%
%LPC*%
G36*
X452916Y437359D02*
X452916Y437359D01*
X444640Y439577D01*
X437219Y443861D01*
X431161Y449919D01*
X426877Y457340D01*
X424659Y465616D01*
X424659Y474184D01*
X426877Y482460D01*
X431161Y489881D01*
X437219Y495939D01*
X444640Y500223D01*
X452916Y502441D01*
X461484Y502441D01*
X469760Y500223D01*
X477181Y495939D01*
X483239Y489881D01*
X487523Y482460D01*
X489741Y474184D01*
X489741Y465616D01*
X487523Y457340D01*
X483239Y449919D01*
X477181Y443861D01*
X469760Y439577D01*
X461484Y437359D01*
X452916Y437359D01*
G37*
%LPD*%
%LPC*%
G36*
X262416Y5559D02*
X262416Y5559D01*
X254140Y7777D01*
X246719Y12061D01*
X240661Y18119D01*
X236377Y25540D01*
X234159Y33816D01*
X234159Y42384D01*
X236377Y50660D01*
X240661Y58081D01*
X246719Y64139D01*
X254140Y68423D01*
X262416Y70641D01*
X270984Y70641D01*
X279260Y68423D01*
X286681Y64139D01*
X292739Y58081D01*
X297023Y50660D01*
X299241Y42384D01*
X299241Y33816D01*
X297023Y25540D01*
X292739Y18119D01*
X286681Y12061D01*
X279260Y7777D01*
X270984Y5559D01*
X262416Y5559D01*
G37*
%LPD*%
%LPC*%
G36*
X137693Y218511D02*
X137693Y218511D01*
X133985Y220047D01*
X131147Y222885D01*
X129611Y226593D01*
X129611Y230607D01*
X131147Y234315D01*
X133985Y237153D01*
X137693Y238689D01*
X141707Y238689D01*
X145415Y237153D01*
X148253Y234315D01*
X148514Y233685D01*
X148532Y233676D01*
X148545Y233661D01*
X148551Y233666D01*
X148560Y233662D01*
X148571Y233684D01*
X148589Y233700D01*
X148589Y234625D01*
X148577Y234639D01*
X148578Y234653D01*
X143213Y240018D01*
X143194Y240019D01*
X143185Y240029D01*
X126076Y240029D01*
X126055Y240010D01*
X126040Y240005D01*
X125841Y239523D01*
X123697Y237379D01*
X120896Y236219D01*
X117864Y236219D01*
X115063Y237379D01*
X112919Y239523D01*
X111759Y242324D01*
X111759Y245356D01*
X112919Y248157D01*
X115063Y250301D01*
X117864Y251461D01*
X120896Y251461D01*
X123697Y250301D01*
X125841Y248157D01*
X126040Y247675D01*
X126066Y247662D01*
X126076Y247651D01*
X146358Y247651D01*
X155237Y238772D01*
X155256Y238771D01*
X155265Y238761D01*
X157726Y238761D01*
X158776Y238326D01*
X158789Y238330D01*
X158801Y238324D01*
X158807Y238337D01*
X158825Y238343D01*
X158819Y238360D01*
X158827Y238377D01*
X158495Y239178D01*
X158495Y243422D01*
X160119Y247343D01*
X162898Y250122D01*
X162899Y250136D01*
X162910Y250145D01*
X162901Y250155D01*
X162902Y250174D01*
X162883Y250175D01*
X162871Y250189D01*
X162252Y250189D01*
X161953Y250488D01*
X161901Y250491D01*
X161901Y250488D01*
X161897Y250488D01*
X161598Y250189D01*
X155902Y250189D01*
X148971Y257120D01*
X148942Y257122D01*
X148928Y257128D01*
X148732Y257047D01*
X130668Y257047D01*
X127120Y258517D01*
X124405Y261232D01*
X122935Y264780D01*
X122935Y268620D01*
X124405Y272168D01*
X127120Y274883D01*
X130668Y276353D01*
X148732Y276353D01*
X152280Y274883D01*
X154995Y272168D01*
X156465Y268620D01*
X156465Y264780D01*
X155193Y261710D01*
X155203Y261683D01*
X155202Y261667D01*
X158722Y258147D01*
X158741Y258146D01*
X158748Y258137D01*
X158752Y258137D01*
X158760Y258145D01*
X158774Y258144D01*
X158774Y258147D01*
X158778Y258147D01*
X159712Y259081D01*
X161601Y259081D01*
X161611Y259090D01*
X161625Y259089D01*
X161626Y259103D01*
X161640Y259115D01*
X161627Y259129D01*
X161628Y259148D01*
X160119Y260657D01*
X158495Y264578D01*
X158495Y268822D01*
X160119Y272743D01*
X163121Y275745D01*
X167042Y277369D01*
X187542Y277369D01*
X191463Y275745D01*
X194465Y272743D01*
X196089Y268822D01*
X196089Y264578D01*
X194465Y260657D01*
X191686Y257878D01*
X191685Y257864D01*
X191674Y257855D01*
X191683Y257845D01*
X191682Y257826D01*
X191701Y257825D01*
X191713Y257811D01*
X197158Y257811D01*
X197350Y257620D01*
X197379Y257618D01*
X197392Y257611D01*
X197874Y257811D01*
X200906Y257811D01*
X203707Y256651D01*
X205851Y254507D01*
X207011Y251706D01*
X207011Y248674D01*
X205851Y245873D01*
X203707Y243729D01*
X200906Y242569D01*
X197874Y242569D01*
X196143Y243286D01*
X196137Y243284D01*
X196133Y243289D01*
X196121Y243279D01*
X196094Y243270D01*
X196098Y243258D01*
X196089Y243250D01*
X196089Y239178D01*
X194465Y235257D01*
X191463Y232255D01*
X187542Y230631D01*
X167042Y230631D01*
X163885Y231939D01*
X163879Y231937D01*
X163875Y231942D01*
X163863Y231932D01*
X163836Y231922D01*
X163840Y231911D01*
X163831Y231903D01*
X163831Y229624D01*
X162671Y226823D01*
X160527Y224679D01*
X157726Y223519D01*
X154694Y223519D01*
X151893Y224679D01*
X149856Y226717D01*
X149842Y226718D01*
X149833Y226728D01*
X149823Y226719D01*
X149804Y226720D01*
X149803Y226702D01*
X149789Y226689D01*
X149789Y226593D01*
X148253Y222885D01*
X145415Y220047D01*
X141707Y218511D01*
X137693Y218511D01*
G37*
%LPD*%
%LPC*%
G36*
X232164Y347979D02*
X232164Y347979D01*
X229363Y349139D01*
X227219Y351283D01*
X227020Y351765D01*
X226994Y351778D01*
X226984Y351789D01*
X225752Y351789D01*
X223508Y354033D01*
X192202Y385339D01*
X192184Y385340D01*
X192178Y385347D01*
X192171Y385347D01*
X192164Y385341D01*
X192150Y385342D01*
X192150Y385339D01*
X192147Y385339D01*
X191463Y384655D01*
X187542Y383031D01*
X167042Y383031D01*
X163121Y384655D01*
X160119Y387657D01*
X158495Y391578D01*
X158495Y395822D01*
X160119Y399743D01*
X163121Y402745D01*
X167042Y404369D01*
X187542Y404369D01*
X191463Y402745D01*
X194465Y399743D01*
X196089Y395822D01*
X196089Y392247D01*
X196101Y392233D01*
X196100Y392219D01*
X227783Y360536D01*
X227835Y360533D01*
X227835Y360536D01*
X227839Y360536D01*
X229363Y362061D01*
X232164Y363221D01*
X235196Y363221D01*
X237997Y362061D01*
X240141Y359917D01*
X241301Y357116D01*
X241301Y354084D01*
X240141Y351283D01*
X237997Y349139D01*
X235196Y347979D01*
X232164Y347979D01*
G37*
%LPD*%
%LPC*%
G36*
X394219Y52069D02*
X394219Y52069D01*
X390484Y53616D01*
X387626Y56474D01*
X386079Y60209D01*
X386079Y61597D01*
X386067Y61611D01*
X386068Y61625D01*
X363885Y83808D01*
X363866Y83809D01*
X363857Y83819D01*
X362469Y83819D01*
X358734Y85366D01*
X355876Y88224D01*
X354329Y91959D01*
X354329Y96001D01*
X355876Y99736D01*
X358734Y102594D01*
X362469Y104141D01*
X366511Y104141D01*
X370246Y102594D01*
X373104Y99736D01*
X374651Y96001D01*
X374651Y94613D01*
X374663Y94599D01*
X374662Y94585D01*
X396845Y72402D01*
X396864Y72401D01*
X396873Y72391D01*
X398261Y72391D01*
X401996Y70844D01*
X404854Y67986D01*
X406401Y64251D01*
X406401Y60209D01*
X404854Y56474D01*
X401996Y53616D01*
X398261Y52069D01*
X394219Y52069D01*
G37*
%LPD*%
%LPC*%
G36*
X291349Y71119D02*
X291349Y71119D01*
X287614Y72666D01*
X284756Y75524D01*
X283209Y79259D01*
X283209Y80647D01*
X283197Y80661D01*
X283198Y80675D01*
X269905Y93968D01*
X269886Y93969D01*
X269877Y93979D01*
X268489Y93979D01*
X264754Y95526D01*
X261896Y98384D01*
X260349Y102119D01*
X260349Y106161D01*
X261896Y109896D01*
X264754Y112754D01*
X268489Y114301D01*
X272531Y114301D01*
X276266Y112754D01*
X279124Y109896D01*
X280671Y106161D01*
X280671Y104773D01*
X280683Y104759D01*
X280682Y104745D01*
X293975Y91452D01*
X293993Y91451D01*
X294001Y91443D01*
X294003Y91441D01*
X295391Y91441D01*
X299126Y89894D01*
X301984Y87036D01*
X303531Y83301D01*
X303531Y79259D01*
X301984Y75524D01*
X299126Y72666D01*
X295391Y71119D01*
X291349Y71119D01*
G37*
%LPD*%
%LPC*%
G36*
X391275Y346107D02*
X391275Y346107D01*
X386793Y347964D01*
X383364Y351393D01*
X381507Y355875D01*
X381507Y360725D01*
X383364Y365207D01*
X386793Y368636D01*
X389212Y369638D01*
X389218Y369651D01*
X389231Y369655D01*
X389227Y369668D01*
X389235Y369685D01*
X389218Y369693D01*
X389212Y369711D01*
X388232Y370117D01*
X385517Y372832D01*
X384047Y376380D01*
X384047Y380220D01*
X385517Y383768D01*
X388232Y386483D01*
X391780Y387953D01*
X395620Y387953D01*
X399168Y386483D01*
X401883Y383768D01*
X403353Y380220D01*
X403353Y376380D01*
X401883Y372832D01*
X399168Y370117D01*
X398188Y369711D01*
X398182Y369699D01*
X398169Y369694D01*
X398173Y369681D01*
X398165Y369664D01*
X398182Y369656D01*
X398188Y369638D01*
X400607Y368636D01*
X404036Y365207D01*
X405893Y360725D01*
X405893Y355875D01*
X404036Y351393D01*
X400607Y347964D01*
X396125Y346107D01*
X391275Y346107D01*
G37*
%LPD*%
%LPC*%
G36*
X335698Y230631D02*
X335698Y230631D01*
X331777Y232255D01*
X328775Y235257D01*
X327151Y239178D01*
X327151Y243422D01*
X328775Y247343D01*
X331777Y250345D01*
X335698Y251969D01*
X356198Y251969D01*
X360119Y250345D01*
X363121Y247343D01*
X364745Y243422D01*
X364745Y239178D01*
X363121Y235257D01*
X360119Y232255D01*
X356198Y230631D01*
X335698Y230631D01*
G37*
%LPD*%
%LPC*%
G36*
X15150Y243331D02*
X15150Y243331D01*
X11229Y244955D01*
X8227Y247957D01*
X6603Y251878D01*
X6603Y256122D01*
X8227Y260043D01*
X11229Y263045D01*
X15150Y264669D01*
X35650Y264669D01*
X39571Y263045D01*
X42573Y260043D01*
X44197Y256122D01*
X44197Y251878D01*
X42573Y247957D01*
X39571Y244955D01*
X35650Y243331D01*
X15150Y243331D01*
G37*
%LPD*%
%LPC*%
G36*
X167042Y154431D02*
X167042Y154431D01*
X163121Y156055D01*
X160119Y159057D01*
X158495Y162978D01*
X158495Y167222D01*
X160119Y171143D01*
X163121Y174145D01*
X167042Y175769D01*
X187542Y175769D01*
X191463Y174145D01*
X194465Y171143D01*
X196089Y167222D01*
X196089Y162978D01*
X194465Y159057D01*
X191463Y156055D01*
X187542Y154431D01*
X167042Y154431D01*
G37*
%LPD*%
%LPC*%
G36*
X167042Y205231D02*
X167042Y205231D01*
X163121Y206855D01*
X160119Y209857D01*
X158495Y213778D01*
X158495Y218022D01*
X160119Y221943D01*
X163121Y224945D01*
X167042Y226569D01*
X187542Y226569D01*
X191463Y224945D01*
X194465Y221943D01*
X196089Y218022D01*
X196089Y213778D01*
X194465Y209857D01*
X191463Y206855D01*
X187542Y205231D01*
X167042Y205231D01*
G37*
%LPD*%
%LPC*%
G36*
X335698Y205231D02*
X335698Y205231D01*
X331777Y206855D01*
X328775Y209857D01*
X327151Y213778D01*
X327151Y218022D01*
X328775Y221943D01*
X331777Y224945D01*
X335698Y226569D01*
X356198Y226569D01*
X360119Y224945D01*
X363121Y221943D01*
X364745Y218022D01*
X364745Y213778D01*
X363121Y209857D01*
X360119Y206855D01*
X356198Y205231D01*
X335698Y205231D01*
G37*
%LPD*%
%LPC*%
G36*
X167042Y179831D02*
X167042Y179831D01*
X163121Y181455D01*
X160119Y184457D01*
X158495Y188378D01*
X158495Y192622D01*
X160119Y196543D01*
X163121Y199545D01*
X167042Y201169D01*
X187542Y201169D01*
X191463Y199545D01*
X194465Y196543D01*
X196089Y192622D01*
X196089Y188378D01*
X194465Y184457D01*
X191463Y181455D01*
X187542Y179831D01*
X167042Y179831D01*
G37*
%LPD*%
%LPC*%
G36*
X335698Y129031D02*
X335698Y129031D01*
X331777Y130655D01*
X328775Y133657D01*
X327151Y137578D01*
X327151Y141822D01*
X328775Y145743D01*
X331777Y148745D01*
X335698Y150369D01*
X356198Y150369D01*
X360119Y148745D01*
X363121Y145743D01*
X364745Y141822D01*
X364745Y137578D01*
X363121Y133657D01*
X360119Y130655D01*
X356198Y129031D01*
X335698Y129031D01*
G37*
%LPD*%
%LPC*%
G36*
X335698Y154431D02*
X335698Y154431D01*
X331777Y156055D01*
X328775Y159057D01*
X327151Y162978D01*
X327151Y167222D01*
X328775Y171143D01*
X331777Y174145D01*
X335698Y175769D01*
X356198Y175769D01*
X360119Y174145D01*
X363121Y171143D01*
X364745Y167222D01*
X364745Y162978D01*
X363121Y159057D01*
X360119Y156055D01*
X356198Y154431D01*
X335698Y154431D01*
G37*
%LPD*%
%LPC*%
G36*
X15150Y167131D02*
X15150Y167131D01*
X11229Y168755D01*
X8227Y171757D01*
X6603Y175678D01*
X6603Y179922D01*
X8227Y183843D01*
X11229Y186845D01*
X15150Y188469D01*
X35650Y188469D01*
X39571Y186845D01*
X42573Y183843D01*
X44197Y179922D01*
X44197Y175678D01*
X42573Y171757D01*
X39571Y168755D01*
X35650Y167131D01*
X15150Y167131D01*
G37*
%LPD*%
%LPC*%
G36*
X15150Y294131D02*
X15150Y294131D01*
X11229Y295755D01*
X8227Y298757D01*
X6603Y302678D01*
X6603Y306922D01*
X8227Y310843D01*
X11229Y313845D01*
X15150Y315469D01*
X35650Y315469D01*
X39571Y313845D01*
X42573Y310843D01*
X44197Y306922D01*
X44197Y302678D01*
X42573Y298757D01*
X39571Y295755D01*
X35650Y294131D01*
X15150Y294131D01*
G37*
%LPD*%
%LPC*%
G36*
X167042Y306831D02*
X167042Y306831D01*
X163121Y308455D01*
X160119Y311457D01*
X158495Y315378D01*
X158495Y319622D01*
X160119Y323543D01*
X163121Y326545D01*
X167042Y328169D01*
X187542Y328169D01*
X191463Y326545D01*
X194465Y323543D01*
X196089Y319622D01*
X196089Y315378D01*
X194465Y311457D01*
X191463Y308455D01*
X187542Y306831D01*
X167042Y306831D01*
G37*
%LPD*%
%LPC*%
G36*
X335698Y306831D02*
X335698Y306831D01*
X331777Y308455D01*
X328775Y311457D01*
X327151Y315378D01*
X327151Y319622D01*
X328775Y323543D01*
X331777Y326545D01*
X335698Y328169D01*
X356198Y328169D01*
X360119Y326545D01*
X363121Y323543D01*
X364745Y319622D01*
X364745Y315378D01*
X363121Y311457D01*
X360119Y308455D01*
X356198Y306831D01*
X335698Y306831D01*
G37*
%LPD*%
%LPC*%
G36*
X335698Y103631D02*
X335698Y103631D01*
X331777Y105255D01*
X328775Y108257D01*
X327151Y112178D01*
X327151Y116422D01*
X328775Y120343D01*
X331777Y123345D01*
X335698Y124969D01*
X356198Y124969D01*
X360119Y123345D01*
X363121Y120343D01*
X364745Y116422D01*
X364745Y112178D01*
X363121Y108257D01*
X360119Y105255D01*
X356198Y103631D01*
X335698Y103631D01*
G37*
%LPD*%
%LPC*%
G36*
X167042Y459231D02*
X167042Y459231D01*
X163121Y460855D01*
X160119Y463857D01*
X158495Y467778D01*
X158495Y472022D01*
X160119Y475943D01*
X163121Y478945D01*
X167042Y480569D01*
X187542Y480569D01*
X191463Y478945D01*
X194465Y475943D01*
X196089Y472022D01*
X196089Y467778D01*
X194465Y463857D01*
X191463Y460855D01*
X187542Y459231D01*
X167042Y459231D01*
G37*
%LPD*%
%LPC*%
G36*
X335678Y459231D02*
X335678Y459231D01*
X331757Y460855D01*
X328755Y463857D01*
X327131Y467778D01*
X327131Y472022D01*
X328755Y475943D01*
X331757Y478945D01*
X335678Y480569D01*
X356178Y480569D01*
X360099Y478945D01*
X363101Y475943D01*
X364725Y472022D01*
X364725Y467778D01*
X363101Y463857D01*
X360099Y460855D01*
X356178Y459231D01*
X335678Y459231D01*
G37*
%LPD*%
%LPC*%
G36*
X167042Y433831D02*
X167042Y433831D01*
X163121Y435455D01*
X160119Y438457D01*
X158495Y442378D01*
X158495Y446622D01*
X160119Y450543D01*
X163121Y453545D01*
X167042Y455169D01*
X187542Y455169D01*
X191463Y453545D01*
X194465Y450543D01*
X196089Y446622D01*
X196089Y442378D01*
X194465Y438457D01*
X191463Y435455D01*
X187542Y433831D01*
X167042Y433831D01*
G37*
%LPD*%
%LPC*%
G36*
X335698Y408431D02*
X335698Y408431D01*
X331777Y410055D01*
X328775Y413057D01*
X327151Y416978D01*
X327151Y421222D01*
X328775Y425143D01*
X331777Y428145D01*
X335698Y429769D01*
X356198Y429769D01*
X360119Y428145D01*
X363121Y425143D01*
X364745Y421222D01*
X364745Y416978D01*
X363121Y413057D01*
X360119Y410055D01*
X356198Y408431D01*
X335698Y408431D01*
G37*
%LPD*%
%LPC*%
G36*
X167042Y408431D02*
X167042Y408431D01*
X163121Y410055D01*
X160119Y413057D01*
X158495Y416978D01*
X158495Y421222D01*
X160119Y425143D01*
X163121Y428145D01*
X167042Y429769D01*
X187542Y429769D01*
X191463Y428145D01*
X194465Y425143D01*
X196089Y421222D01*
X196089Y416978D01*
X194465Y413057D01*
X191463Y410055D01*
X187542Y408431D01*
X167042Y408431D01*
G37*
%LPD*%
%LPC*%
G36*
X167042Y332231D02*
X167042Y332231D01*
X163121Y333855D01*
X160119Y336857D01*
X158495Y340778D01*
X158495Y345022D01*
X160119Y348943D01*
X163121Y351945D01*
X167042Y353569D01*
X187542Y353569D01*
X191463Y351945D01*
X194465Y348943D01*
X196089Y345022D01*
X196089Y340778D01*
X194465Y336857D01*
X191463Y333855D01*
X187542Y332231D01*
X167042Y332231D01*
G37*
%LPD*%
%LPC*%
G36*
X335698Y383031D02*
X335698Y383031D01*
X331777Y384655D01*
X328775Y387657D01*
X327151Y391578D01*
X327151Y395822D01*
X328775Y399743D01*
X331777Y402745D01*
X335698Y404369D01*
X356198Y404369D01*
X360119Y402745D01*
X363121Y399743D01*
X364745Y395822D01*
X364745Y391578D01*
X363121Y387657D01*
X360119Y384655D01*
X356198Y383031D01*
X335698Y383031D01*
G37*
%LPD*%
%LPC*%
G36*
X167042Y357631D02*
X167042Y357631D01*
X163121Y359255D01*
X160119Y362257D01*
X158495Y366178D01*
X158495Y370422D01*
X160119Y374343D01*
X163121Y377345D01*
X167042Y378969D01*
X187542Y378969D01*
X191463Y377345D01*
X194465Y374343D01*
X196089Y370422D01*
X196089Y366178D01*
X194465Y362257D01*
X191463Y359255D01*
X187542Y357631D01*
X167042Y357631D01*
G37*
%LPD*%
%LPC*%
G36*
X335698Y357631D02*
X335698Y357631D01*
X331777Y359255D01*
X328775Y362257D01*
X327151Y366178D01*
X327151Y370422D01*
X328775Y374343D01*
X331777Y377345D01*
X335698Y378969D01*
X356198Y378969D01*
X360119Y377345D01*
X363121Y374343D01*
X364745Y370422D01*
X364745Y366178D01*
X363121Y362257D01*
X360119Y359255D01*
X356198Y357631D01*
X335698Y357631D01*
G37*
%LPD*%
%LPC*%
G36*
X469899Y53499D02*
X469899Y53499D01*
X469899Y53540D01*
X469865Y53579D01*
X469862Y53577D01*
X469860Y53579D01*
X460247Y53579D01*
X460247Y54451D01*
X460618Y56316D01*
X461346Y58072D01*
X462402Y59653D01*
X463747Y60998D01*
X465328Y62054D01*
X465412Y62089D01*
X465418Y62101D01*
X465431Y62106D01*
X465428Y62116D01*
X465430Y62118D01*
X465428Y62121D01*
X465435Y62136D01*
X465418Y62144D01*
X465412Y62162D01*
X462993Y63164D01*
X459564Y66593D01*
X457707Y71075D01*
X457707Y75925D01*
X459564Y80407D01*
X462993Y83836D01*
X467475Y85693D01*
X472325Y85693D01*
X476807Y83836D01*
X480236Y80407D01*
X482093Y75925D01*
X482093Y71075D01*
X480236Y66593D01*
X476807Y63164D01*
X474388Y62162D01*
X474382Y62149D01*
X474369Y62145D01*
X474373Y62132D01*
X474373Y62130D01*
X474370Y62128D01*
X474371Y62127D01*
X474365Y62115D01*
X474382Y62107D01*
X474388Y62089D01*
X474472Y62054D01*
X476053Y60998D01*
X477398Y59653D01*
X478454Y58072D01*
X479182Y56316D01*
X479553Y54451D01*
X479553Y53579D01*
X469940Y53579D01*
X469901Y53545D01*
X469904Y53542D01*
X469901Y53540D01*
X469901Y53499D01*
X469899Y53499D01*
G37*
%LPD*%
%LPC*%
G36*
X130668Y307847D02*
X130668Y307847D01*
X127120Y309317D01*
X124405Y312032D01*
X122935Y315580D01*
X122935Y319420D01*
X124405Y322968D01*
X127120Y325683D01*
X130668Y327153D01*
X148732Y327153D01*
X152280Y325683D01*
X154995Y322968D01*
X156465Y319420D01*
X156465Y315580D01*
X154995Y312032D01*
X152280Y309317D01*
X148732Y307847D01*
X130668Y307847D01*
G37*
%LPD*%
%LPC*%
G36*
X54468Y257047D02*
X54468Y257047D01*
X50920Y258517D01*
X48205Y261232D01*
X46735Y264780D01*
X46735Y268620D01*
X48205Y272168D01*
X50920Y274883D01*
X54468Y276353D01*
X72532Y276353D01*
X76080Y274883D01*
X78795Y272168D01*
X80265Y268620D01*
X80265Y264780D01*
X78795Y261232D01*
X76080Y258517D01*
X72532Y257047D01*
X54468Y257047D01*
G37*
%LPD*%
%LPC*%
G36*
X54468Y282447D02*
X54468Y282447D01*
X50920Y283917D01*
X48205Y286632D01*
X46735Y290180D01*
X46735Y294020D01*
X48205Y297568D01*
X50920Y300283D01*
X54468Y301753D01*
X72532Y301753D01*
X76080Y300283D01*
X78795Y297568D01*
X80265Y294020D01*
X80265Y290180D01*
X78795Y286632D01*
X76080Y283917D01*
X72532Y282447D01*
X54468Y282447D01*
G37*
%LPD*%
%LPC*%
G36*
X60988Y215971D02*
X60988Y215971D01*
X56346Y217894D01*
X52794Y221446D01*
X50871Y226088D01*
X50871Y231112D01*
X52794Y235754D01*
X56346Y239306D01*
X60988Y241229D01*
X66012Y241229D01*
X70654Y239306D01*
X74206Y235754D01*
X76129Y231112D01*
X76129Y226088D01*
X74206Y221446D01*
X70654Y217894D01*
X66012Y215971D01*
X60988Y215971D01*
G37*
%LPD*%
%LPC*%
G36*
X337899Y190579D02*
X337899Y190579D01*
X337899Y201169D01*
X354916Y201169D01*
X356574Y200906D01*
X358171Y200387D01*
X359668Y199625D01*
X361026Y198638D01*
X362214Y197450D01*
X363201Y196092D01*
X363963Y194595D01*
X364482Y192998D01*
X364745Y191340D01*
X364745Y190579D01*
X337899Y190579D01*
G37*
%LPD*%
%LPC*%
G36*
X158495Y139779D02*
X158495Y139779D01*
X158495Y140540D01*
X158758Y142198D01*
X159277Y143795D01*
X160039Y145292D01*
X161026Y146650D01*
X162214Y147838D01*
X163572Y148825D01*
X165069Y149587D01*
X166666Y150106D01*
X168324Y150369D01*
X185341Y150369D01*
X185341Y139779D01*
X158495Y139779D01*
G37*
%LPD*%
%LPC*%
G36*
X337899Y179831D02*
X337899Y179831D01*
X337899Y190421D01*
X364745Y190421D01*
X364745Y189660D01*
X364482Y188002D01*
X363963Y186405D01*
X363201Y184908D01*
X362214Y183550D01*
X361026Y182362D01*
X359668Y181375D01*
X358171Y180613D01*
X356574Y180094D01*
X354916Y179831D01*
X337899Y179831D01*
G37*
%LPD*%
%LPC*%
G36*
X168324Y129031D02*
X168324Y129031D01*
X166666Y129294D01*
X165069Y129813D01*
X163572Y130575D01*
X162214Y131562D01*
X161026Y132750D01*
X160039Y134108D01*
X159277Y135605D01*
X158758Y137202D01*
X158495Y138860D01*
X158495Y139621D01*
X185341Y139621D01*
X185341Y129031D01*
X168324Y129031D01*
G37*
%LPD*%
%LPC*%
G36*
X25479Y279479D02*
X25479Y279479D01*
X25479Y290069D01*
X34368Y290069D01*
X36026Y289806D01*
X37623Y289287D01*
X39120Y288525D01*
X40478Y287538D01*
X41666Y286350D01*
X42653Y284992D01*
X43415Y283495D01*
X43934Y281898D01*
X44197Y280240D01*
X44197Y279479D01*
X25479Y279479D01*
G37*
%LPD*%
%LPC*%
G36*
X6603Y279479D02*
X6603Y279479D01*
X6603Y280240D01*
X6866Y281898D01*
X7385Y283495D01*
X8147Y284992D01*
X9134Y286350D01*
X10322Y287538D01*
X11680Y288525D01*
X13177Y289287D01*
X14774Y289806D01*
X16432Y290069D01*
X25321Y290069D01*
X25321Y279479D01*
X6603Y279479D01*
G37*
%LPD*%
%LPC*%
G36*
X25479Y268731D02*
X25479Y268731D01*
X25479Y279321D01*
X44197Y279321D01*
X44197Y278560D01*
X43934Y276902D01*
X43415Y275305D01*
X42653Y273808D01*
X41666Y272450D01*
X40478Y271262D01*
X39120Y270275D01*
X37623Y269513D01*
X36026Y268994D01*
X34368Y268731D01*
X25479Y268731D01*
G37*
%LPD*%
%LPC*%
G36*
X16432Y268731D02*
X16432Y268731D01*
X14774Y268994D01*
X13177Y269513D01*
X11680Y270275D01*
X10322Y271262D01*
X9134Y272450D01*
X8147Y273808D01*
X7385Y275305D01*
X6866Y276902D01*
X6603Y278560D01*
X6603Y279321D01*
X25321Y279321D01*
X25321Y268731D01*
X16432Y268731D01*
G37*
%LPD*%
%LPC*%
G36*
X139779Y342979D02*
X139779Y342979D01*
X139779Y352553D01*
X147763Y352553D01*
X149628Y352182D01*
X151384Y351454D01*
X152965Y350398D01*
X154310Y349053D01*
X155366Y347472D01*
X156094Y345716D01*
X156465Y343851D01*
X156465Y342979D01*
X139779Y342979D01*
G37*
%LPD*%
%LPC*%
G36*
X122935Y342979D02*
X122935Y342979D01*
X122935Y343851D01*
X123306Y345716D01*
X124034Y347472D01*
X125090Y349053D01*
X126435Y350398D01*
X128016Y351454D01*
X129772Y352182D01*
X131637Y352553D01*
X139621Y352553D01*
X139621Y342979D01*
X122935Y342979D01*
G37*
%LPD*%
%LPC*%
G36*
X139779Y333247D02*
X139779Y333247D01*
X139779Y342821D01*
X156465Y342821D01*
X156465Y341949D01*
X156094Y340084D01*
X155366Y338328D01*
X154310Y336747D01*
X152965Y335402D01*
X151384Y334346D01*
X149628Y333618D01*
X147763Y333247D01*
X139779Y333247D01*
G37*
%LPD*%
%LPC*%
G36*
X131637Y333247D02*
X131637Y333247D01*
X129772Y333618D01*
X128016Y334346D01*
X126435Y335402D01*
X125090Y336747D01*
X124034Y338328D01*
X123306Y340084D01*
X122935Y341949D01*
X122935Y342821D01*
X139621Y342821D01*
X139621Y333247D01*
X131637Y333247D01*
G37*
%LPD*%
%LPC*%
G36*
X185499Y139779D02*
X185499Y139779D01*
X185499Y150369D01*
X186260Y150369D01*
X187918Y150106D01*
X189515Y149587D01*
X191012Y148825D01*
X192370Y147838D01*
X193558Y146650D01*
X194545Y145292D01*
X195307Y143795D01*
X195826Y142198D01*
X196089Y140540D01*
X196089Y139779D01*
X185499Y139779D01*
G37*
%LPD*%
%LPC*%
G36*
X327151Y190579D02*
X327151Y190579D01*
X327151Y191340D01*
X327414Y192998D01*
X327933Y194595D01*
X328695Y196092D01*
X329682Y197450D01*
X330870Y198638D01*
X332228Y199625D01*
X333725Y200387D01*
X335322Y200906D01*
X336980Y201169D01*
X337741Y201169D01*
X337741Y190579D01*
X327151Y190579D01*
G37*
%LPD*%
%LPC*%
G36*
X185499Y129031D02*
X185499Y129031D01*
X185499Y139621D01*
X196089Y139621D01*
X196089Y138860D01*
X195826Y137202D01*
X195307Y135605D01*
X194545Y134108D01*
X193558Y132750D01*
X192370Y131562D01*
X191012Y130575D01*
X189515Y129813D01*
X187918Y129294D01*
X186260Y129031D01*
X185499Y129031D01*
G37*
%LPD*%
%LPC*%
G36*
X336980Y179831D02*
X336980Y179831D01*
X335322Y180094D01*
X333725Y180613D01*
X332228Y181375D01*
X330870Y182362D01*
X329682Y183550D01*
X328695Y184908D01*
X327933Y186405D01*
X327414Y188002D01*
X327151Y189660D01*
X327151Y190421D01*
X337741Y190421D01*
X337741Y179831D01*
X336980Y179831D01*
G37*
%LPD*%
%LPC*%
G36*
X469979Y43847D02*
X469979Y43847D01*
X469979Y53421D01*
X479553Y53421D01*
X479553Y52549D01*
X479182Y50684D01*
X478454Y48928D01*
X477398Y47347D01*
X476053Y46002D01*
X474472Y44946D01*
X472716Y44218D01*
X470851Y43847D01*
X469979Y43847D01*
G37*
%LPD*%
%LPC*%
G36*
X468949Y43847D02*
X468949Y43847D01*
X467084Y44218D01*
X465328Y44946D01*
X463747Y46002D01*
X462402Y47347D01*
X461346Y48928D01*
X460618Y50684D01*
X460247Y52549D01*
X460247Y53421D01*
X469821Y53421D01*
X469821Y43847D01*
X468949Y43847D01*
G37*
%LPD*%
%LPC*%
G36*
X337819Y190499D02*
X337819Y190499D01*
X337819Y190501D01*
X337821Y190501D01*
X337821Y190499D01*
X337819Y190499D01*
G37*
%LPD*%
%LPC*%
G36*
X185419Y139699D02*
X185419Y139699D01*
X185419Y139701D01*
X185421Y139701D01*
X185421Y139699D01*
X185419Y139699D01*
G37*
%LPD*%
%LPC*%
G36*
X25399Y279399D02*
X25399Y279399D01*
X25399Y279401D01*
X25401Y279401D01*
X25401Y279399D01*
X25399Y279399D01*
G37*
%LPD*%
%LPC*%
G36*
X139699Y342899D02*
X139699Y342899D01*
X139699Y342901D01*
X139701Y342901D01*
X139701Y342899D01*
X139699Y342899D01*
G37*
%LPD*%
D10*
X185420Y469900D02*
X169164Y469900D01*
X169164Y444500D02*
X185420Y444500D01*
X185420Y419100D02*
X169164Y419100D01*
X169164Y393700D02*
X185420Y393700D01*
X185420Y368300D02*
X169164Y368300D01*
X169164Y342900D02*
X185420Y342900D01*
X185420Y317500D02*
X169164Y317500D01*
X169164Y292100D02*
X185420Y292100D01*
X185420Y266700D02*
X169164Y266700D01*
X169164Y241300D02*
X185420Y241300D01*
X185420Y215900D02*
X169164Y215900D01*
X169164Y190500D02*
X185420Y190500D01*
X185420Y165100D02*
X169164Y165100D01*
X169164Y139700D02*
X185420Y139700D01*
X185420Y114300D02*
X169164Y114300D01*
X337820Y114300D02*
X354076Y114300D01*
X354076Y139700D02*
X337820Y139700D01*
X337820Y165100D02*
X354076Y165100D01*
X354076Y190500D02*
X337820Y190500D01*
X337820Y215900D02*
X354076Y215900D01*
X354076Y241300D02*
X337820Y241300D01*
X337820Y266700D02*
X354076Y266700D01*
X354076Y292100D02*
X337820Y292100D01*
X337820Y317500D02*
X354076Y317500D01*
X354076Y342900D02*
X337820Y342900D01*
X337820Y368300D02*
X354076Y368300D01*
X354076Y393700D02*
X337820Y393700D01*
X337820Y419100D02*
X354076Y419100D01*
X354076Y444500D02*
X337820Y444500D01*
X337800Y469900D02*
X354056Y469900D01*
D11*
X469900Y73500D03*
X469900Y53500D03*
X393700Y358300D03*
X393700Y378300D03*
X393700Y282100D03*
X393700Y302100D03*
X393700Y205900D03*
X393700Y225900D03*
X444500Y129700D03*
X444500Y149700D03*
D12*
X146812Y266700D02*
X132588Y266700D01*
X132588Y292100D02*
X146812Y292100D01*
X70612Y292100D02*
X56388Y292100D01*
X56388Y266700D02*
X70612Y266700D01*
X132588Y317500D02*
X146812Y317500D01*
X146812Y342900D02*
X132588Y342900D01*
X70612Y317500D02*
X56388Y317500D01*
X56388Y342900D02*
X70612Y342900D01*
D13*
X139700Y228600D03*
X63500Y228600D03*
D10*
X33528Y177800D02*
X17272Y177800D01*
X17272Y203200D02*
X33528Y203200D01*
X33528Y228600D02*
X17272Y228600D01*
X17272Y254000D02*
X33528Y254000D01*
X33528Y279400D02*
X17272Y279400D01*
X17272Y304800D02*
X33528Y304800D01*
X33528Y330200D02*
X17272Y330200D01*
X17272Y355600D02*
X33528Y355600D01*
D14*
X281940Y245110D03*
X100330Y215900D03*
X203200Y165100D03*
X254000Y207010D03*
X421640Y68580D03*
X85090Y85090D03*
X261620Y281940D03*
X254000Y170180D03*
X281940Y368300D03*
D15*
X63500Y391160D02*
X63500Y342900D01*
X63500Y391160D02*
X161290Y488950D01*
X193040Y488950D01*
X207010Y474980D01*
X231140Y187960D02*
X231140Y158750D01*
X186690Y114300D01*
X185420Y114300D01*
X364490Y93980D02*
X396240Y62230D01*
X163830Y115570D02*
X137160Y142240D01*
X163830Y115570D02*
X184150Y115570D01*
X185420Y114300D01*
X232410Y189230D02*
X232410Y316230D01*
X232410Y189230D02*
X231140Y187960D01*
D14*
X207010Y474980D03*
X231140Y187960D03*
X396240Y62230D03*
X364490Y93980D03*
X137160Y142240D03*
X232410Y316230D03*
D15*
X387350Y207010D02*
X393700Y207010D01*
X377190Y217170D02*
X375920Y218440D01*
X377190Y217170D02*
X387350Y207010D01*
X375920Y218440D02*
X375920Y261620D01*
X393700Y279400D01*
X393700Y282100D01*
X393700Y207010D02*
X393700Y205900D01*
X270510Y104140D02*
X293370Y81280D01*
X373380Y213360D02*
X377190Y217170D01*
X373380Y213360D02*
X373380Y193040D01*
X435610Y130810D01*
X436880Y130810D01*
X438150Y129540D01*
X439420Y130810D01*
X444500Y130810D01*
X444500Y129700D01*
D14*
X270510Y104140D03*
X293370Y81280D03*
D16*
X414655Y180975D02*
X444500Y151130D01*
X414655Y180975D02*
X408940Y186690D01*
X444500Y151130D02*
X444500Y149700D01*
X414655Y180975D02*
X472440Y238760D01*
D14*
X408940Y186690D03*
X472440Y238760D03*
D16*
X189230Y393700D02*
X185420Y393700D01*
X189230Y393700D02*
X227330Y355600D01*
X233680Y355600D01*
D14*
X233680Y355600D03*
D16*
X195580Y254000D02*
X199390Y250190D01*
X195580Y254000D02*
X163830Y254000D01*
X162560Y255270D01*
X161290Y255270D01*
X160020Y254000D01*
X157480Y254000D01*
X144780Y266700D01*
X139700Y266700D01*
D14*
X199390Y250190D03*
D16*
X156210Y231140D02*
X152400Y234950D01*
X152400Y236220D01*
X144780Y243840D01*
X119380Y243840D01*
D14*
X156210Y231140D03*
X119380Y243840D03*
D16*
X129540Y292100D02*
X139700Y292100D01*
X129540Y292100D02*
X121920Y299720D01*
X116840Y299720D01*
X116205Y299085D02*
X101600Y284480D01*
X116205Y299085D02*
X116840Y299720D01*
X101600Y284480D02*
X101600Y236220D01*
X95250Y229870D01*
X115570Y331470D02*
X87630Y359410D01*
X115570Y331470D02*
X115570Y299720D01*
X116205Y299085D01*
D14*
X95250Y229870D03*
X87630Y359410D03*
D16*
X317500Y220980D02*
X191770Y95250D01*
X317500Y220980D02*
X317500Y318770D01*
X332740Y334010D01*
X332740Y335280D01*
X337820Y340360D01*
X337820Y342900D01*
D14*
X191770Y95250D03*
D16*
X30480Y203200D02*
X25400Y203200D01*
X30480Y203200D02*
X147320Y86360D01*
X195580Y86360D01*
X322580Y213360D01*
X322580Y273050D01*
X330200Y280670D01*
X331470Y280670D01*
X332740Y279400D01*
X359410Y279400D01*
X360680Y280670D01*
X361950Y280670D01*
X363220Y279400D01*
X369570Y285750D01*
X369570Y425450D01*
X359410Y435610D01*
X359410Y436880D01*
X351790Y444500D01*
X337820Y444500D01*
X30480Y228600D02*
X25400Y228600D01*
X30480Y228600D02*
X54610Y252730D01*
X76200Y252730D01*
X96520Y273050D01*
X96520Y337820D01*
D14*
X96520Y337820D03*
D16*
X185420Y292100D02*
X189230Y292100D01*
X247650Y350520D01*
X247650Y450850D01*
X200660Y497840D01*
X138430Y497840D01*
X5080Y364490D01*
X5080Y346710D01*
X10160Y341630D01*
X10160Y340360D01*
X20320Y330200D01*
X25400Y330200D01*
X87630Y327660D02*
X87630Y278130D01*
D14*
X87630Y278130D03*
X87630Y327660D03*
M02*
