G04 EAGLE Gerber RS-274X export*
G75*
%MOMM*%
%FSLAX34Y34*%
%LPD*%
%INTop Copper*%
%IPPOS*%
%AMOC8*
5,1,8,0,0,1.08239X$1,22.5*%
G01*
%ADD10C,1.625600*%
%ADD11R,1.188700X1.795500*%
%ADD12C,1.422400*%
%ADD13R,1.100000X1.000000*%
%ADD14R,1.000000X1.100000*%
%ADD15R,1.470000X1.270000*%
%ADD16R,0.900000X0.800000*%
%ADD17R,1.795500X1.188700*%
%ADD18R,2.500000X2.000000*%
%ADD19R,0.800000X0.800000*%
%ADD20C,1.422400*%
%ADD21R,1.600000X3.900000*%
%ADD22C,1.509600*%
%ADD23R,1.200000X0.800000*%
%ADD24R,4.600000X1.000000*%
%ADD25R,3.400000X1.600000*%
%ADD26C,0.254000*%
%ADD27C,1.016000*%
%ADD28C,0.508000*%


D10*
X185420Y469900D02*
X169164Y469900D01*
X169164Y444500D02*
X185420Y444500D01*
X185420Y419100D02*
X169164Y419100D01*
X169164Y393700D02*
X185420Y393700D01*
X185420Y368300D02*
X169164Y368300D01*
X169164Y342900D02*
X185420Y342900D01*
X185420Y317500D02*
X169164Y317500D01*
X169164Y292100D02*
X185420Y292100D01*
X185420Y266700D02*
X169164Y266700D01*
X169164Y241300D02*
X185420Y241300D01*
X185420Y215900D02*
X169164Y215900D01*
X169164Y190500D02*
X185420Y190500D01*
X185420Y165100D02*
X169164Y165100D01*
X169164Y139700D02*
X185420Y139700D01*
X185420Y114300D02*
X169164Y114300D01*
X337820Y114300D02*
X354076Y114300D01*
X354076Y139700D02*
X337820Y139700D01*
X337820Y165100D02*
X354076Y165100D01*
X354076Y190500D02*
X337820Y190500D01*
X337820Y215900D02*
X354076Y215900D01*
X354076Y241300D02*
X337820Y241300D01*
X337820Y266700D02*
X354076Y266700D01*
X354076Y292100D02*
X337820Y292100D01*
X337820Y317500D02*
X354076Y317500D01*
X354076Y342900D02*
X337820Y342900D01*
X337820Y368300D02*
X354076Y368300D01*
X354076Y393700D02*
X337820Y393700D01*
X337820Y419100D02*
X354076Y419100D01*
X354076Y444500D02*
X337820Y444500D01*
X337800Y469900D02*
X354056Y469900D01*
D11*
X292100Y100802D03*
X292100Y127000D03*
D12*
X469900Y73500D03*
X469900Y53500D03*
D11*
X381000Y153198D03*
X381000Y127000D03*
D13*
X258200Y304800D03*
X275200Y304800D03*
D14*
X241300Y300600D03*
X241300Y283600D03*
D12*
X393700Y358300D03*
X393700Y378300D03*
D15*
X444500Y389800D03*
X444500Y346800D03*
D11*
X381000Y75402D03*
X381000Y101600D03*
D13*
X258200Y266700D03*
X275200Y266700D03*
D14*
X241300Y245500D03*
X241300Y262500D03*
D12*
X393700Y282100D03*
X393700Y302100D03*
D15*
X444500Y313600D03*
X444500Y270600D03*
D11*
X254000Y100802D03*
X254000Y127000D03*
D13*
X258200Y228600D03*
X275200Y228600D03*
D14*
X241300Y207400D03*
X241300Y224400D03*
D12*
X393700Y205900D03*
X393700Y225900D03*
D15*
X457200Y237400D03*
X457200Y194400D03*
D11*
X406400Y153198D03*
X406400Y127000D03*
D13*
X258200Y190500D03*
X275200Y190500D03*
D14*
X241300Y156600D03*
X241300Y173600D03*
D12*
X444500Y129700D03*
X444500Y149700D03*
D15*
X482600Y313600D03*
X482600Y270600D03*
D16*
X294800Y301600D03*
X294800Y282600D03*
X315800Y292100D03*
X294800Y263500D03*
X294800Y244500D03*
X315800Y254000D03*
X294800Y225400D03*
X294800Y206400D03*
X315800Y215900D03*
X294800Y187300D03*
X294800Y168300D03*
X315800Y177800D03*
X409100Y98400D03*
X409100Y79400D03*
X430100Y88900D03*
D17*
X240901Y381000D03*
X267099Y381000D03*
D11*
X215900Y101201D03*
X215900Y127399D03*
D17*
X266301Y330200D03*
X292499Y330200D03*
D13*
X220100Y342900D03*
X237100Y342900D03*
X313300Y368300D03*
X296300Y368300D03*
D11*
X419100Y25001D03*
X419100Y51199D03*
D18*
X271780Y419100D03*
X241300Y419100D03*
D19*
X215900Y381000D03*
X200900Y381000D03*
D20*
X146812Y266700D02*
X132588Y266700D01*
X132588Y292100D02*
X146812Y292100D01*
X70612Y292100D02*
X56388Y292100D01*
X56388Y266700D02*
X70612Y266700D01*
X132588Y317500D02*
X146812Y317500D01*
X146812Y342900D02*
X132588Y342900D01*
X70612Y317500D02*
X56388Y317500D01*
X56388Y342900D02*
X70612Y342900D01*
D14*
X215900Y258200D03*
X215900Y275200D03*
D13*
X207400Y152400D03*
X224400Y152400D03*
D14*
X215900Y220100D03*
X215900Y237100D03*
X215900Y182000D03*
X215900Y199000D03*
D13*
X135500Y203200D03*
X118500Y203200D03*
X80400Y203200D03*
X97400Y203200D03*
D21*
X101600Y84500D03*
X101600Y169500D03*
D22*
X139700Y228600D03*
X63500Y228600D03*
D23*
X215900Y295800D03*
X215900Y313800D03*
D24*
X77300Y416400D03*
X77300Y396400D03*
D25*
X129300Y440400D03*
X129300Y372400D03*
D10*
X33528Y177800D02*
X17272Y177800D01*
X17272Y203200D02*
X33528Y203200D01*
X33528Y228600D02*
X17272Y228600D01*
X17272Y254000D02*
X33528Y254000D01*
X33528Y279400D02*
X17272Y279400D01*
X17272Y304800D02*
X33528Y304800D01*
X33528Y330200D02*
X17272Y330200D01*
X17272Y355600D02*
X33528Y355600D01*
D26*
X280670Y368300D02*
X281940Y368300D01*
X296300Y368300D01*
X280670Y368300D02*
X267970Y381000D01*
X267099Y381000D01*
X293370Y330200D02*
X323850Y360680D01*
X323850Y374650D01*
X321310Y377190D01*
X306070Y377190D01*
X297180Y368300D01*
X293370Y330200D02*
X292499Y330200D01*
X296300Y368300D02*
X297180Y368300D01*
X271780Y383540D02*
X271780Y419100D01*
X271780Y383540D02*
X269240Y381000D01*
X267099Y381000D01*
X295910Y173990D02*
X295910Y168910D01*
X295910Y173990D02*
X303530Y181610D01*
X303530Y198120D01*
X295910Y205740D01*
X295910Y168910D02*
X294800Y168300D01*
X295910Y205740D02*
X294800Y206400D01*
X241300Y156210D02*
X215900Y181610D01*
X215900Y182000D01*
X241300Y156600D02*
X241300Y156210D01*
X251460Y167640D02*
X254000Y167640D01*
X294640Y167640D01*
X251460Y167640D02*
X241300Y157480D01*
X294640Y167640D02*
X294800Y168300D01*
X241300Y157480D02*
X241300Y156600D01*
X256540Y281940D02*
X261620Y281940D01*
X294640Y281940D01*
X256540Y281940D02*
X247650Y273050D01*
X234950Y273050D01*
X233045Y274955D02*
X232410Y275590D01*
X233045Y274955D02*
X234950Y273050D01*
X232410Y275590D02*
X232410Y290830D01*
X241300Y299720D01*
X294800Y282600D02*
X294640Y281940D01*
X241300Y299720D02*
X241300Y300600D01*
X232410Y255270D02*
X241300Y246380D01*
X232410Y255270D02*
X232410Y274320D01*
X241300Y246380D02*
X241300Y245500D01*
X232410Y274320D02*
X233045Y274955D01*
X383540Y99060D02*
X408940Y99060D01*
X383540Y99060D02*
X381000Y101600D01*
X408940Y99060D02*
X409100Y98400D01*
X406400Y127000D02*
X381000Y127000D01*
X381000Y101600D01*
X294640Y245110D02*
X281940Y245110D01*
X294640Y245110D02*
X294800Y244500D01*
X97790Y213360D02*
X97790Y203200D01*
X97790Y213360D02*
X100330Y215900D01*
X97790Y203200D02*
X97400Y203200D01*
X207010Y161290D02*
X207010Y152400D01*
X207010Y161290D02*
X203200Y165100D01*
X207010Y152400D02*
X207400Y152400D01*
X241300Y207010D02*
X254000Y207010D01*
X241300Y207010D02*
X241300Y207400D01*
X419100Y66040D02*
X419100Y51199D01*
X419100Y66040D02*
X421640Y68580D01*
X215900Y128270D02*
X196850Y128270D01*
X185420Y139700D01*
X215900Y128270D02*
X215900Y127399D01*
X215900Y127000D02*
X254000Y127000D01*
X215900Y127000D02*
X215900Y127399D01*
X254000Y127000D02*
X292100Y127000D01*
X381000Y127000D01*
X101600Y85090D02*
X85090Y85090D01*
X101600Y85090D02*
X101600Y84500D01*
X76200Y415290D02*
X59690Y415290D01*
X5080Y360680D01*
X5080Y299720D01*
X25400Y279400D01*
X76200Y415290D02*
X77300Y416400D01*
X254000Y170180D02*
X254000Y167640D01*
D27*
X281940Y245110D03*
X100330Y215900D03*
X203200Y165100D03*
X254000Y207010D03*
X421640Y68580D03*
X85090Y85090D03*
X261620Y281940D03*
X254000Y170180D03*
X281940Y368300D03*
D28*
X63500Y342900D02*
X63500Y317500D01*
X201930Y360680D02*
X201930Y381000D01*
X210820Y351790D02*
X219710Y342900D01*
X210820Y351790D02*
X201930Y360680D01*
X201930Y381000D02*
X200900Y381000D01*
X219710Y342900D02*
X220100Y342900D01*
X210820Y351790D02*
X240030Y381000D01*
X240901Y381000D01*
X207010Y391160D02*
X207010Y474980D01*
X207010Y391160D02*
X203200Y387350D01*
X203200Y382270D01*
X200900Y381000D01*
X63500Y228600D02*
X63500Y198120D01*
X91440Y170180D01*
X101600Y170180D01*
X101600Y169500D01*
X408940Y78740D02*
X408940Y67310D01*
X405130Y63500D01*
X405130Y39370D01*
X419100Y25400D01*
X408940Y78740D02*
X409100Y79400D01*
X419100Y25400D02*
X419100Y25001D01*
X222250Y236220D02*
X215900Y236220D01*
X222250Y236220D02*
X228600Y229870D01*
X228600Y190500D01*
X231140Y187960D01*
X215900Y236220D02*
X215900Y237100D01*
X215900Y101600D02*
X204470Y101600D01*
X191770Y114300D01*
X185420Y114300D01*
X215900Y101600D02*
X215900Y101201D01*
X285750Y100330D02*
X292100Y100330D01*
X285750Y100330D02*
X269240Y83820D01*
X232410Y83820D01*
X217170Y99060D01*
X292100Y100330D02*
X292100Y100802D01*
X217170Y99060D02*
X215900Y101201D01*
X396240Y62230D02*
X403860Y62230D01*
X364490Y93980D02*
X298450Y93980D01*
X293370Y99060D01*
X403860Y62230D02*
X405130Y63500D01*
X293370Y99060D02*
X292100Y100802D01*
X111760Y167640D02*
X102870Y167640D01*
X111760Y167640D02*
X137160Y142240D01*
X102870Y167640D02*
X101600Y169500D01*
X222250Y328930D02*
X222250Y341630D01*
X222250Y328930D02*
X232410Y318770D01*
X232410Y316230D01*
X222250Y341630D02*
X220100Y342900D01*
D27*
X207010Y474980D03*
X231140Y187960D03*
X396240Y62230D03*
X364490Y93980D03*
X137160Y142240D03*
X232410Y316230D03*
D28*
X403860Y347980D02*
X444500Y347980D01*
X403860Y347980D02*
X393700Y358140D01*
X444500Y347980D02*
X444500Y346800D01*
X393700Y358140D02*
X393700Y358300D01*
X459740Y271780D02*
X482600Y271780D01*
X459740Y271780D02*
X444500Y271780D01*
X444500Y270600D01*
X482600Y270600D02*
X482600Y271780D01*
X443230Y273050D02*
X402590Y273050D01*
X393700Y281940D01*
X443230Y273050D02*
X444500Y270600D01*
X393700Y281940D02*
X393700Y282100D01*
X445770Y337820D02*
X445770Y345440D01*
X445770Y337820D02*
X459740Y323850D01*
X459740Y271780D01*
X445770Y345440D02*
X444500Y346800D01*
X447040Y194310D02*
X457200Y194310D01*
X412750Y160020D02*
X406400Y153670D01*
X412750Y160020D02*
X447040Y194310D01*
X457200Y194310D02*
X457200Y194400D01*
X406400Y153670D02*
X406400Y153198D01*
X405130Y153670D02*
X381000Y153670D01*
X381000Y153198D01*
X405130Y153670D02*
X406400Y153198D01*
X444500Y88900D02*
X454660Y88900D01*
X444500Y88900D02*
X430100Y88900D01*
X454660Y88900D02*
X469900Y73660D01*
X469900Y73500D01*
X381000Y75402D02*
X381000Y36830D01*
X410210Y7620D01*
X427990Y7620D01*
X434340Y13970D01*
X434340Y87630D01*
X430100Y88900D01*
X267970Y101600D02*
X254000Y101600D01*
X267970Y101600D02*
X270510Y104140D01*
X293370Y81280D02*
X375920Y81280D01*
X379730Y77470D01*
X254000Y100802D02*
X254000Y101600D01*
X379730Y77470D02*
X381000Y75402D01*
X444500Y88900D02*
X444500Y129700D01*
X443230Y129540D02*
X412750Y160020D01*
X443230Y129540D02*
X444500Y129700D01*
D27*
X270510Y104140D03*
X293370Y81280D03*
D26*
X241300Y284480D02*
X257810Y300990D01*
X257810Y304800D01*
X241300Y284480D02*
X241300Y283600D01*
X257810Y304800D02*
X258200Y304800D01*
X259080Y304800D02*
X271780Y317500D01*
X337820Y317500D01*
X259080Y304800D02*
X258200Y304800D01*
X315800Y292100D02*
X320040Y292100D01*
X332740Y304800D01*
X359410Y304800D01*
X379730Y325120D01*
X379730Y364490D01*
X393700Y378460D01*
X403860Y388620D02*
X444500Y388620D01*
X403860Y388620D02*
X393700Y378460D01*
X444500Y388620D02*
X444500Y389800D01*
X393700Y378460D02*
X393700Y378300D01*
X254000Y262890D02*
X241300Y262890D01*
X254000Y262890D02*
X257810Y266700D01*
X241300Y262890D02*
X241300Y262500D01*
X257810Y266700D02*
X258200Y266700D01*
X259080Y266700D02*
X267970Y275590D01*
X287020Y275590D01*
X288290Y274320D01*
X320040Y274320D01*
X337820Y292100D01*
X259080Y266700D02*
X258200Y266700D01*
X315800Y254000D02*
X359410Y254000D01*
X379730Y274320D01*
X379730Y288290D01*
X393700Y302260D01*
X403860Y312420D02*
X444500Y312420D01*
X403860Y312420D02*
X393700Y302260D01*
X444500Y312420D02*
X444500Y313600D01*
X393700Y302260D02*
X393700Y302100D01*
X254000Y224790D02*
X241300Y224790D01*
X254000Y224790D02*
X257810Y228600D01*
X241300Y224790D02*
X241300Y224400D01*
X257810Y228600D02*
X258200Y228600D01*
X259080Y228600D02*
X259080Y234950D01*
X279400Y255270D01*
X302260Y255270D01*
X313690Y266700D01*
X337820Y266700D01*
X259080Y228600D02*
X258200Y228600D01*
X315800Y215900D02*
X320040Y215900D01*
X332740Y228600D01*
X391160Y228600D01*
X393700Y226060D01*
X393700Y225900D01*
X402590Y236220D02*
X457200Y236220D01*
X402590Y236220D02*
X393700Y227330D01*
X457200Y236220D02*
X457200Y237400D01*
X393700Y227330D02*
X393700Y225900D01*
X257810Y190500D02*
X241300Y173990D01*
X241300Y173600D01*
X257810Y190500D02*
X258200Y190500D01*
X259080Y190500D02*
X285750Y217170D01*
X302260Y217170D01*
X326390Y241300D01*
X337820Y241300D01*
X259080Y190500D02*
X258200Y190500D01*
X316230Y186690D02*
X316230Y177800D01*
X316230Y186690D02*
X332740Y203200D01*
X377190Y203200D01*
X393700Y186690D01*
X408940Y186690D01*
X316230Y177800D02*
X315800Y177800D01*
X482600Y293370D02*
X482600Y313600D01*
X482600Y293370D02*
X496570Y279400D01*
X496570Y261620D01*
X473710Y238760D01*
X472440Y238760D01*
D27*
X408940Y186690D03*
X472440Y238760D03*
D26*
X294640Y302260D02*
X278130Y302260D01*
X275590Y304800D01*
X294640Y302260D02*
X294800Y301600D01*
X275590Y304800D02*
X275200Y304800D01*
X278130Y264160D02*
X294640Y264160D01*
X278130Y264160D02*
X275590Y266700D01*
X294640Y264160D02*
X294800Y263500D01*
X275590Y266700D02*
X275200Y266700D01*
X278130Y226060D02*
X294640Y226060D01*
X278130Y226060D02*
X275590Y228600D01*
X294640Y226060D02*
X294800Y225400D01*
X275590Y228600D02*
X275200Y228600D01*
X278130Y187960D02*
X294640Y187960D01*
X278130Y187960D02*
X275590Y190500D01*
X294640Y187960D02*
X294800Y187300D01*
X275590Y190500D02*
X275200Y190500D01*
X252730Y342900D02*
X237100Y342900D01*
X252730Y342900D02*
X265430Y330200D01*
X266301Y330200D01*
X284480Y340360D02*
X312420Y368300D01*
X284480Y340360D02*
X276860Y340360D01*
X266700Y330200D01*
X312420Y368300D02*
X313300Y368300D01*
X266700Y330200D02*
X266301Y330200D01*
X233680Y345440D02*
X233680Y355600D01*
X233680Y345440D02*
X236220Y342900D01*
X237100Y342900D01*
D27*
X233680Y355600D03*
D26*
X215900Y381000D02*
X215900Y393700D01*
X241300Y419100D01*
X215900Y313690D02*
X199390Y313690D01*
X191135Y305435D02*
X190500Y304800D01*
X191135Y305435D02*
X199390Y313690D01*
X190500Y304800D02*
X152400Y304800D01*
X139700Y317500D01*
X215900Y313800D02*
X215900Y313690D01*
X156210Y245110D02*
X139700Y228600D01*
X156210Y245110D02*
X156210Y246380D01*
X163830Y254000D01*
X190500Y254000D01*
X198120Y261620D01*
X198120Y298450D01*
X191135Y305435D01*
X223520Y157480D02*
X223520Y152400D01*
X223520Y157480D02*
X204470Y176530D01*
X204470Y189230D01*
X190500Y203200D01*
X152400Y203200D01*
X138430Y217170D01*
X134620Y217170D01*
X128270Y223520D01*
X128270Y255270D01*
X139700Y266700D01*
X223520Y152400D02*
X224400Y152400D01*
X215900Y257810D02*
X207010Y257810D01*
X199390Y250190D01*
X215900Y257810D02*
X215900Y258200D01*
D27*
X199390Y250190D03*
D26*
X215900Y220100D02*
X215900Y199000D01*
X215900Y220980D02*
X198120Y220980D01*
X190500Y228600D01*
X158750Y228600D01*
X156210Y231140D01*
X119380Y243840D02*
X109220Y243840D01*
X63500Y289560D01*
X63500Y292100D01*
X215900Y220980D02*
X215900Y220100D01*
D27*
X156210Y231140D03*
X119380Y243840D03*
D26*
X134620Y203200D02*
X71120Y266700D01*
X63500Y266700D01*
X134620Y203200D02*
X135500Y203200D01*
X215900Y275200D02*
X215900Y295800D01*
X81280Y209550D02*
X81280Y203200D01*
X95885Y224155D02*
X96520Y224790D01*
X95885Y224155D02*
X81280Y209550D01*
X96520Y224790D02*
X104140Y224790D01*
X118110Y210820D01*
X118110Y203200D01*
X81280Y203200D02*
X80400Y203200D01*
X118110Y203200D02*
X118500Y203200D01*
X95250Y224790D02*
X95250Y229870D01*
X95250Y224790D02*
X95885Y224155D01*
X77470Y369570D02*
X77470Y396240D01*
X77470Y369570D02*
X87630Y359410D01*
X77470Y396240D02*
X77300Y396400D01*
D27*
X95250Y229870D03*
X87630Y359410D03*
D26*
X48260Y177800D02*
X25400Y177800D01*
X48260Y177800D02*
X130810Y95250D01*
X191770Y95250D01*
D27*
X191770Y95250D03*
D26*
X96520Y337820D02*
X96520Y378460D01*
X146050Y427990D01*
X147320Y427990D01*
X156210Y436880D01*
X156210Y474980D01*
X172720Y491490D01*
X314960Y491490D01*
X336550Y469900D01*
X337800Y469900D01*
D27*
X96520Y337820D03*
D26*
X25400Y254000D02*
X49530Y229870D01*
X49530Y184150D01*
X102870Y130810D01*
X142240Y130810D01*
X163830Y152400D01*
X190500Y152400D01*
X199390Y143510D01*
X298450Y143510D01*
X332740Y177800D01*
X417830Y177800D01*
X469900Y229870D01*
X476250Y229870D01*
X501650Y255270D01*
X501650Y351790D01*
X396240Y457200D01*
X241300Y457200D01*
X212090Y486410D01*
X201930Y486410D01*
X185420Y469900D01*
X49530Y304800D02*
X25400Y304800D01*
X49530Y304800D02*
X50800Y303530D01*
X76200Y303530D01*
X107950Y335280D01*
X107950Y382270D01*
X124460Y398780D01*
X130810Y398780D01*
X176530Y444500D01*
X185420Y444500D01*
X185420Y266700D02*
X162560Y266700D01*
X151130Y278130D01*
X87630Y278130D01*
X87630Y327660D02*
X87630Y345440D01*
X76200Y356870D01*
X26670Y356870D01*
X25400Y355600D01*
D27*
X87630Y278130D03*
X87630Y327660D03*
M02*
