G04 EAGLE Gerber RS-274X export*
G75*
%MOMM*%
%FSLAX34Y34*%
%LPD*%
%INSoldermask Bottom*%
%IPPOS*%
%AMOC8*
5,1,8,0,0,1.08239X$1,22.5*%
G01*
%ADD10C,6.203200*%
%ADD11C,1.828800*%
%ADD12C,1.625600*%
%ADD13C,1.625600*%
%ADD14C,1.712800*%


D10*
X457200Y469900D03*
X266700Y38100D03*
X38100Y469900D03*
D11*
X169164Y469900D02*
X185420Y469900D01*
X185420Y444500D02*
X169164Y444500D01*
X169164Y419100D02*
X185420Y419100D01*
X185420Y393700D02*
X169164Y393700D01*
X169164Y368300D02*
X185420Y368300D01*
X185420Y342900D02*
X169164Y342900D01*
X169164Y317500D02*
X185420Y317500D01*
X185420Y292100D02*
X169164Y292100D01*
X169164Y266700D02*
X185420Y266700D01*
X185420Y241300D02*
X169164Y241300D01*
X169164Y215900D02*
X185420Y215900D01*
X185420Y190500D02*
X169164Y190500D01*
X169164Y165100D02*
X185420Y165100D01*
X185420Y139700D02*
X169164Y139700D01*
X169164Y114300D02*
X185420Y114300D01*
X337820Y114300D02*
X354076Y114300D01*
X354076Y139700D02*
X337820Y139700D01*
X337820Y165100D02*
X354076Y165100D01*
X354076Y190500D02*
X337820Y190500D01*
X337820Y215900D02*
X354076Y215900D01*
X354076Y241300D02*
X337820Y241300D01*
X337820Y266700D02*
X354076Y266700D01*
X354076Y292100D02*
X337820Y292100D01*
X337820Y317500D02*
X354076Y317500D01*
X354076Y342900D02*
X337820Y342900D01*
X337820Y368300D02*
X354076Y368300D01*
X354076Y393700D02*
X337820Y393700D01*
X337820Y419100D02*
X354076Y419100D01*
X354076Y444500D02*
X337820Y444500D01*
X337800Y469900D02*
X354056Y469900D01*
D12*
X469900Y73500D03*
X469900Y53500D03*
X393700Y358300D03*
X393700Y378300D03*
X393700Y282100D03*
X393700Y302100D03*
X393700Y205900D03*
X393700Y225900D03*
X444500Y129700D03*
X444500Y149700D03*
D13*
X146812Y266700D02*
X132588Y266700D01*
X132588Y292100D02*
X146812Y292100D01*
X70612Y292100D02*
X56388Y292100D01*
X56388Y266700D02*
X70612Y266700D01*
X132588Y317500D02*
X146812Y317500D01*
X146812Y342900D02*
X132588Y342900D01*
X70612Y317500D02*
X56388Y317500D01*
X56388Y342900D02*
X70612Y342900D01*
D14*
X139700Y228600D03*
X63500Y228600D03*
D11*
X33528Y177800D02*
X17272Y177800D01*
X17272Y203200D02*
X33528Y203200D01*
X33528Y228600D02*
X17272Y228600D01*
X17272Y254000D02*
X33528Y254000D01*
X33528Y279400D02*
X17272Y279400D01*
X17272Y304800D02*
X33528Y304800D01*
X33528Y330200D02*
X17272Y330200D01*
X17272Y355600D02*
X33528Y355600D01*
M02*
