G04 EAGLE Gerber RS-274X export*
G75*
%MOMM*%
%FSLAX34Y34*%
%LPD*%
%INTop Copper*%
%IPPOS*%
%AMOC8*
5,1,8,0,0,1.08239X$1,22.5*%
G01*
%ADD10C,1.625600*%
%ADD11R,1.000000X1.100000*%
%ADD12C,1.422400*%
%ADD13R,1.200000X0.800000*%
%ADD14R,1.470000X1.270000*%
%ADD15R,0.800000X1.200000*%
%ADD16R,1.100000X1.000000*%
%ADD17R,0.900000X0.800000*%
%ADD18R,2.700000X2.550000*%
%ADD19R,2.550000X2.700000*%
%ADD20R,2.500000X2.000000*%
%ADD21R,0.800000X0.800000*%
%ADD22C,1.422400*%
%ADD23R,1.600000X3.900000*%
%ADD24C,1.509600*%
%ADD25R,4.600000X1.000000*%
%ADD26R,3.400000X1.600000*%
%ADD27C,0.254000*%
%ADD28C,1.016000*%
%ADD29C,0.508000*%

G36*
X245075Y11950D02*
X245075Y11950D01*
X245146Y11952D01*
X245195Y11970D01*
X245247Y11979D01*
X245310Y12012D01*
X245377Y12037D01*
X245418Y12069D01*
X245464Y12094D01*
X245513Y12146D01*
X245569Y12190D01*
X245598Y12234D01*
X245633Y12272D01*
X245664Y12337D01*
X245702Y12397D01*
X245715Y12448D01*
X245737Y12495D01*
X245745Y12566D01*
X245762Y12636D01*
X245758Y12688D01*
X245764Y12739D01*
X245749Y12810D01*
X245743Y12881D01*
X245723Y12929D01*
X245712Y12980D01*
X245675Y13041D01*
X245647Y13107D01*
X245602Y13163D01*
X245586Y13191D01*
X245568Y13206D01*
X245542Y13238D01*
X240661Y18120D01*
X236377Y25540D01*
X234159Y33816D01*
X234159Y42384D01*
X236377Y50660D01*
X240661Y58080D01*
X246720Y64139D01*
X254140Y68423D01*
X262416Y70641D01*
X270984Y70641D01*
X279260Y68423D01*
X286680Y64139D01*
X292739Y58080D01*
X297023Y50660D01*
X299241Y42384D01*
X299241Y33816D01*
X297023Y25540D01*
X292739Y18120D01*
X287858Y13238D01*
X287816Y13180D01*
X287767Y13128D01*
X287745Y13081D01*
X287714Y13039D01*
X287693Y12970D01*
X287663Y12905D01*
X287657Y12853D01*
X287642Y12803D01*
X287644Y12732D01*
X287636Y12661D01*
X287647Y12610D01*
X287648Y12558D01*
X287673Y12490D01*
X287688Y12420D01*
X287715Y12376D01*
X287733Y12327D01*
X287778Y12271D01*
X287814Y12209D01*
X287854Y12175D01*
X287886Y12135D01*
X287947Y12096D01*
X288001Y12049D01*
X288050Y12030D01*
X288093Y12002D01*
X288163Y11984D01*
X288229Y11957D01*
X288301Y11949D01*
X288332Y11941D01*
X288355Y11943D01*
X288396Y11939D01*
X482600Y11939D01*
X482690Y11954D01*
X482781Y11961D01*
X482811Y11973D01*
X482843Y11979D01*
X482923Y12021D01*
X483007Y12057D01*
X483039Y12083D01*
X483060Y12094D01*
X483082Y12117D01*
X483138Y12162D01*
X505196Y34220D01*
X505249Y34294D01*
X505309Y34363D01*
X505321Y34393D01*
X505340Y34419D01*
X505367Y34506D01*
X505401Y34591D01*
X505405Y34632D01*
X505412Y34655D01*
X505411Y34687D01*
X505419Y34758D01*
X505419Y495300D01*
X505416Y495320D01*
X505418Y495339D01*
X505396Y495441D01*
X505380Y495543D01*
X505370Y495560D01*
X505366Y495580D01*
X505313Y495669D01*
X505264Y495760D01*
X505250Y495774D01*
X505240Y495791D01*
X505161Y495858D01*
X505086Y495930D01*
X505068Y495938D01*
X505053Y495951D01*
X504957Y495990D01*
X504863Y496033D01*
X504843Y496035D01*
X504825Y496043D01*
X504658Y496061D01*
X478896Y496061D01*
X478825Y496050D01*
X478754Y496048D01*
X478705Y496030D01*
X478653Y496022D01*
X478590Y495988D01*
X478523Y495963D01*
X478482Y495931D01*
X478436Y495906D01*
X478387Y495855D01*
X478331Y495810D01*
X478302Y495766D01*
X478267Y495728D01*
X478236Y495663D01*
X478198Y495603D01*
X478185Y495552D01*
X478163Y495505D01*
X478155Y495434D01*
X478138Y495364D01*
X478142Y495312D01*
X478136Y495261D01*
X478151Y495190D01*
X478157Y495119D01*
X478177Y495071D01*
X478188Y495020D01*
X478225Y494959D01*
X478253Y494893D01*
X478298Y494837D01*
X478314Y494809D01*
X478332Y494794D01*
X478358Y494762D01*
X483239Y489880D01*
X487523Y482460D01*
X489741Y474184D01*
X489741Y465616D01*
X487523Y457340D01*
X483239Y449920D01*
X477180Y443861D01*
X469760Y439577D01*
X461484Y437359D01*
X452916Y437359D01*
X444640Y439577D01*
X437220Y443861D01*
X431161Y449920D01*
X426877Y457340D01*
X424659Y465616D01*
X424659Y469412D01*
X424648Y469483D01*
X424646Y469554D01*
X424628Y469603D01*
X424620Y469655D01*
X424586Y469718D01*
X424561Y469785D01*
X424529Y469826D01*
X424504Y469872D01*
X424452Y469921D01*
X424408Y469977D01*
X424364Y470006D01*
X424326Y470042D01*
X424261Y470072D01*
X424201Y470110D01*
X424150Y470123D01*
X424103Y470145D01*
X424032Y470153D01*
X423962Y470171D01*
X423910Y470166D01*
X423859Y470172D01*
X423788Y470157D01*
X423717Y470151D01*
X423669Y470131D01*
X423618Y470120D01*
X423557Y470083D01*
X423491Y470055D01*
X423435Y470010D01*
X423407Y469994D01*
X423392Y469976D01*
X423360Y469950D01*
X421046Y467636D01*
X417311Y466089D01*
X413254Y466089D01*
X413247Y466092D01*
X413170Y466101D01*
X413094Y466119D01*
X413048Y466114D01*
X413003Y466120D01*
X412926Y466103D01*
X412849Y466096D01*
X412807Y466077D01*
X412762Y466067D01*
X412695Y466027D01*
X412624Y465996D01*
X412591Y465965D01*
X412551Y465941D01*
X412500Y465882D01*
X412443Y465829D01*
X412421Y465789D01*
X412391Y465754D01*
X412362Y465682D01*
X412325Y465614D01*
X412316Y465569D01*
X412299Y465526D01*
X412284Y465390D01*
X412281Y465372D01*
X412282Y465367D01*
X412281Y465359D01*
X412281Y461345D01*
X409305Y458369D01*
X378095Y458369D01*
X375119Y461345D01*
X375119Y491055D01*
X378095Y494031D01*
X409305Y494031D01*
X412281Y491055D01*
X412281Y487141D01*
X412288Y487095D01*
X412286Y487049D01*
X412308Y486975D01*
X412320Y486898D01*
X412342Y486857D01*
X412355Y486813D01*
X412399Y486749D01*
X412436Y486681D01*
X412469Y486649D01*
X412495Y486611D01*
X412558Y486565D01*
X412614Y486511D01*
X412656Y486492D01*
X412692Y486464D01*
X412766Y486440D01*
X412837Y486408D01*
X412883Y486403D01*
X412926Y486388D01*
X413004Y486389D01*
X413081Y486380D01*
X413126Y486390D01*
X413172Y486391D01*
X413241Y486411D01*
X417311Y486411D01*
X421046Y484864D01*
X423904Y482006D01*
X424777Y479898D01*
X424842Y479793D01*
X424904Y479692D01*
X424905Y479691D01*
X424906Y479689D01*
X425002Y479610D01*
X425092Y479534D01*
X425094Y479533D01*
X425096Y479532D01*
X425210Y479488D01*
X425322Y479445D01*
X425324Y479444D01*
X425326Y479444D01*
X425447Y479439D01*
X425567Y479433D01*
X425569Y479433D01*
X425571Y479433D01*
X425687Y479467D01*
X425804Y479500D01*
X425806Y479501D01*
X425808Y479502D01*
X425906Y479570D01*
X426007Y479639D01*
X426008Y479641D01*
X426010Y479642D01*
X426082Y479740D01*
X426155Y479836D01*
X426155Y479838D01*
X426156Y479839D01*
X426159Y479847D01*
X426216Y479992D01*
X426877Y482460D01*
X431161Y489880D01*
X436042Y494762D01*
X436084Y494820D01*
X436133Y494872D01*
X436155Y494919D01*
X436186Y494961D01*
X436207Y495030D01*
X436237Y495095D01*
X436243Y495147D01*
X436258Y495197D01*
X436256Y495268D01*
X436264Y495339D01*
X436253Y495390D01*
X436252Y495442D01*
X436227Y495510D01*
X436212Y495580D01*
X436185Y495624D01*
X436167Y495673D01*
X436122Y495729D01*
X436086Y495791D01*
X436046Y495825D01*
X436014Y495865D01*
X435953Y495904D01*
X435899Y495951D01*
X435850Y495970D01*
X435807Y495998D01*
X435737Y496016D01*
X435671Y496043D01*
X435599Y496051D01*
X435568Y496059D01*
X435545Y496057D01*
X435504Y496061D01*
X59796Y496061D01*
X59725Y496050D01*
X59654Y496048D01*
X59605Y496030D01*
X59553Y496022D01*
X59490Y495988D01*
X59423Y495963D01*
X59382Y495931D01*
X59336Y495906D01*
X59287Y495855D01*
X59231Y495810D01*
X59202Y495766D01*
X59167Y495728D01*
X59136Y495663D01*
X59098Y495603D01*
X59085Y495552D01*
X59063Y495505D01*
X59055Y495434D01*
X59038Y495364D01*
X59042Y495312D01*
X59036Y495261D01*
X59051Y495190D01*
X59057Y495119D01*
X59077Y495071D01*
X59088Y495020D01*
X59125Y494959D01*
X59153Y494893D01*
X59198Y494837D01*
X59214Y494809D01*
X59232Y494794D01*
X59258Y494762D01*
X64139Y489880D01*
X68423Y482460D01*
X70641Y474184D01*
X70641Y465616D01*
X68423Y457340D01*
X64139Y449920D01*
X58080Y443861D01*
X52435Y440601D01*
X52397Y440571D01*
X52355Y440548D01*
X52303Y440493D01*
X52244Y440445D01*
X52219Y440405D01*
X52186Y440370D01*
X52154Y440301D01*
X52113Y440237D01*
X52102Y440190D01*
X52082Y440147D01*
X52074Y440072D01*
X52056Y439998D01*
X52060Y439950D01*
X52055Y439903D01*
X52071Y439828D01*
X52078Y439753D01*
X52097Y439709D01*
X52107Y439662D01*
X52146Y439597D01*
X52176Y439528D01*
X52209Y439492D01*
X52233Y439451D01*
X52291Y439402D01*
X52342Y439346D01*
X52384Y439322D01*
X52420Y439291D01*
X52491Y439263D01*
X52557Y439226D01*
X52604Y439217D01*
X52648Y439199D01*
X52777Y439185D01*
X52799Y439181D01*
X52805Y439182D01*
X52815Y439181D01*
X66548Y439181D01*
X66568Y439184D01*
X66587Y439182D01*
X66689Y439204D01*
X66791Y439220D01*
X66808Y439230D01*
X66828Y439234D01*
X66917Y439287D01*
X67008Y439336D01*
X67022Y439350D01*
X67039Y439360D01*
X67106Y439439D01*
X67178Y439514D01*
X67186Y439532D01*
X67199Y439547D01*
X67238Y439643D01*
X67281Y439737D01*
X67283Y439757D01*
X67291Y439775D01*
X67309Y439942D01*
X67309Y443981D01*
X68856Y447716D01*
X71714Y450574D01*
X75449Y452121D01*
X79491Y452121D01*
X83226Y450574D01*
X86084Y447716D01*
X87631Y443981D01*
X87631Y439942D01*
X87634Y439922D01*
X87632Y439903D01*
X87654Y439801D01*
X87670Y439699D01*
X87680Y439682D01*
X87684Y439662D01*
X87737Y439573D01*
X87786Y439482D01*
X87800Y439468D01*
X87810Y439451D01*
X87889Y439384D01*
X87964Y439312D01*
X87982Y439304D01*
X87997Y439291D01*
X88093Y439252D01*
X88187Y439209D01*
X88207Y439207D01*
X88225Y439199D01*
X88392Y439181D01*
X102405Y439181D01*
X105381Y436205D01*
X105381Y433700D01*
X105392Y433629D01*
X105394Y433557D01*
X105412Y433508D01*
X105420Y433457D01*
X105454Y433394D01*
X105479Y433326D01*
X105511Y433286D01*
X105536Y433240D01*
X105588Y433190D01*
X105632Y433134D01*
X105676Y433106D01*
X105714Y433070D01*
X105779Y433040D01*
X105839Y433001D01*
X105890Y432989D01*
X105937Y432967D01*
X106008Y432959D01*
X106078Y432941D01*
X106130Y432945D01*
X106181Y432940D01*
X106252Y432955D01*
X106323Y432960D01*
X106371Y432981D01*
X106422Y432992D01*
X106483Y433029D01*
X106549Y433057D01*
X106605Y433102D01*
X106633Y433118D01*
X106648Y433136D01*
X106680Y433162D01*
X108809Y435290D01*
X110703Y437184D01*
X113037Y438151D01*
X148184Y438151D01*
X148274Y438165D01*
X148365Y438173D01*
X148395Y438185D01*
X148427Y438190D01*
X148507Y438233D01*
X148591Y438269D01*
X148624Y438295D01*
X148644Y438306D01*
X148666Y438329D01*
X148722Y438374D01*
X149068Y438720D01*
X149110Y438778D01*
X149160Y438830D01*
X149182Y438877D01*
X149212Y438919D01*
X149233Y438988D01*
X149263Y439053D01*
X149269Y439105D01*
X149284Y439155D01*
X149282Y439226D01*
X149290Y439297D01*
X149279Y439348D01*
X149278Y439400D01*
X149253Y439468D01*
X149238Y439538D01*
X149211Y439583D01*
X149194Y439631D01*
X149149Y439687D01*
X149112Y439749D01*
X149072Y439783D01*
X149040Y439823D01*
X148980Y439862D01*
X148925Y439909D01*
X148877Y439928D01*
X148833Y439956D01*
X148764Y439974D01*
X148697Y440001D01*
X148626Y440009D01*
X148594Y440017D01*
X148571Y440015D01*
X148530Y440019D01*
X110195Y440019D01*
X107219Y442995D01*
X107219Y463205D01*
X110195Y466181D01*
X148405Y466181D01*
X151381Y463205D01*
X151381Y442995D01*
X149427Y441042D01*
X149382Y440979D01*
X149355Y440951D01*
X149348Y440936D01*
X149308Y440888D01*
X149299Y440863D01*
X149283Y440842D01*
X149255Y440749D01*
X149220Y440658D01*
X149219Y440632D01*
X149211Y440607D01*
X149213Y440509D01*
X149209Y440412D01*
X149217Y440387D01*
X149217Y440361D01*
X149251Y440269D01*
X149278Y440176D01*
X149293Y440155D01*
X149302Y440130D01*
X149363Y440054D01*
X149418Y439974D01*
X149439Y439958D01*
X149455Y439938D01*
X149537Y439885D01*
X149616Y439827D01*
X149640Y439819D01*
X149662Y439805D01*
X149757Y439781D01*
X149849Y439751D01*
X149876Y439751D01*
X149901Y439745D01*
X149998Y439752D01*
X150095Y439753D01*
X150127Y439762D01*
X150146Y439764D01*
X150176Y439777D01*
X150256Y439800D01*
X152101Y440564D01*
X152157Y440599D01*
X152217Y440624D01*
X152278Y440673D01*
X152286Y440677D01*
X152290Y440681D01*
X152310Y440694D01*
X152322Y440709D01*
X152348Y440729D01*
X155732Y444114D01*
X155785Y444188D01*
X155845Y444257D01*
X155857Y444287D01*
X155876Y444313D01*
X155903Y444401D01*
X155937Y444485D01*
X155941Y444526D01*
X155948Y444548D01*
X155947Y444581D01*
X155955Y444652D01*
X155955Y447127D01*
X157966Y451982D01*
X161682Y455698D01*
X163611Y456497D01*
X163672Y456535D01*
X163737Y456564D01*
X163775Y456599D01*
X163820Y456626D01*
X163865Y456682D01*
X163918Y456730D01*
X163943Y456776D01*
X163976Y456816D01*
X164002Y456883D01*
X164037Y456946D01*
X164046Y456997D01*
X164065Y457045D01*
X164068Y457117D01*
X164080Y457188D01*
X164073Y457239D01*
X164075Y457291D01*
X164055Y457360D01*
X164045Y457431D01*
X164021Y457477D01*
X164006Y457527D01*
X163966Y457586D01*
X163933Y457650D01*
X163896Y457687D01*
X163866Y457729D01*
X163809Y457772D01*
X163758Y457822D01*
X163695Y457857D01*
X163669Y457876D01*
X163647Y457883D01*
X163611Y457903D01*
X161682Y458702D01*
X157966Y462418D01*
X155955Y467273D01*
X155955Y472527D01*
X157966Y477382D01*
X161682Y481098D01*
X166537Y483109D01*
X188047Y483109D01*
X192902Y481098D01*
X196618Y477382D01*
X198629Y472527D01*
X198629Y467273D01*
X196618Y462418D01*
X192902Y458702D01*
X190973Y457903D01*
X190912Y457865D01*
X190847Y457836D01*
X190809Y457801D01*
X190764Y457774D01*
X190719Y457718D01*
X190666Y457670D01*
X190641Y457624D01*
X190608Y457584D01*
X190582Y457517D01*
X190547Y457454D01*
X190538Y457403D01*
X190519Y457355D01*
X190516Y457283D01*
X190504Y457212D01*
X190511Y457161D01*
X190509Y457109D01*
X190529Y457040D01*
X190539Y456969D01*
X190563Y456923D01*
X190578Y456873D01*
X190618Y456814D01*
X190651Y456750D01*
X190688Y456713D01*
X190718Y456671D01*
X190775Y456628D01*
X190826Y456578D01*
X190889Y456543D01*
X190915Y456524D01*
X190937Y456517D01*
X190973Y456497D01*
X192902Y455698D01*
X196618Y451982D01*
X198629Y447127D01*
X198629Y441873D01*
X196618Y437018D01*
X192902Y433302D01*
X190973Y432503D01*
X190912Y432465D01*
X190847Y432436D01*
X190809Y432401D01*
X190764Y432374D01*
X190719Y432318D01*
X190666Y432270D01*
X190641Y432224D01*
X190608Y432184D01*
X190582Y432117D01*
X190547Y432054D01*
X190538Y432003D01*
X190519Y431955D01*
X190516Y431883D01*
X190504Y431812D01*
X190511Y431761D01*
X190509Y431709D01*
X190529Y431640D01*
X190539Y431569D01*
X190563Y431523D01*
X190578Y431473D01*
X190618Y431414D01*
X190651Y431350D01*
X190688Y431313D01*
X190718Y431271D01*
X190775Y431228D01*
X190826Y431178D01*
X190889Y431143D01*
X190915Y431124D01*
X190937Y431117D01*
X190973Y431097D01*
X192902Y430298D01*
X196618Y426582D01*
X198629Y421727D01*
X198629Y416473D01*
X196618Y411618D01*
X192902Y407902D01*
X190973Y407103D01*
X190912Y407065D01*
X190847Y407036D01*
X190809Y407001D01*
X190764Y406974D01*
X190719Y406918D01*
X190666Y406870D01*
X190641Y406824D01*
X190608Y406784D01*
X190582Y406717D01*
X190547Y406654D01*
X190538Y406603D01*
X190519Y406555D01*
X190516Y406483D01*
X190504Y406412D01*
X190511Y406361D01*
X190509Y406309D01*
X190529Y406240D01*
X190539Y406169D01*
X190563Y406123D01*
X190578Y406073D01*
X190618Y406014D01*
X190651Y405950D01*
X190688Y405913D01*
X190718Y405871D01*
X190775Y405828D01*
X190826Y405778D01*
X190889Y405743D01*
X190915Y405724D01*
X190937Y405717D01*
X190973Y405697D01*
X192902Y404898D01*
X196618Y401182D01*
X198629Y396327D01*
X198629Y391057D01*
X198624Y391047D01*
X198615Y390970D01*
X198598Y390894D01*
X198602Y390848D01*
X198597Y390803D01*
X198613Y390727D01*
X198621Y390649D01*
X198639Y390607D01*
X198649Y390562D01*
X198689Y390495D01*
X198721Y390424D01*
X198752Y390390D01*
X198775Y390351D01*
X198834Y390301D01*
X198887Y390243D01*
X198927Y390221D01*
X198962Y390191D01*
X199034Y390162D01*
X199103Y390125D01*
X199148Y390116D01*
X199190Y390099D01*
X199326Y390084D01*
X199345Y390081D01*
X199350Y390082D01*
X199357Y390081D01*
X207005Y390081D01*
X207862Y389224D01*
X207878Y389212D01*
X207890Y389196D01*
X207978Y389140D01*
X208061Y389080D01*
X208080Y389074D01*
X208097Y389063D01*
X208198Y389038D01*
X208297Y389008D01*
X208316Y389008D01*
X208336Y389003D01*
X208439Y389011D01*
X208542Y389014D01*
X208561Y389021D01*
X208581Y389022D01*
X208676Y389063D01*
X208773Y389098D01*
X208789Y389111D01*
X208807Y389119D01*
X208938Y389224D01*
X209795Y390081D01*
X222034Y390081D01*
X222124Y390095D01*
X222215Y390103D01*
X222245Y390115D01*
X222277Y390120D01*
X222358Y390163D01*
X222441Y390199D01*
X222474Y390225D01*
X222494Y390236D01*
X222516Y390259D01*
X222572Y390304D01*
X227106Y394838D01*
X227159Y394912D01*
X227219Y394981D01*
X227231Y395011D01*
X227250Y395037D01*
X227277Y395125D01*
X227311Y395209D01*
X227315Y395250D01*
X227322Y395272D01*
X227321Y395305D01*
X227329Y395376D01*
X227329Y403258D01*
X227326Y403278D01*
X227328Y403297D01*
X227306Y403399D01*
X227290Y403501D01*
X227280Y403518D01*
X227276Y403538D01*
X227223Y403627D01*
X227174Y403718D01*
X227160Y403732D01*
X227150Y403749D01*
X227071Y403816D01*
X226996Y403888D01*
X226978Y403896D01*
X226963Y403909D01*
X226867Y403948D01*
X226773Y403991D01*
X226753Y403993D01*
X226735Y404001D01*
X226711Y404003D01*
X223719Y406995D01*
X223719Y431205D01*
X226695Y434181D01*
X255905Y434181D01*
X256002Y434084D01*
X256018Y434072D01*
X256030Y434056D01*
X256118Y434000D01*
X256201Y433940D01*
X256220Y433934D01*
X256237Y433923D01*
X256338Y433898D01*
X256437Y433868D01*
X256457Y433868D01*
X256476Y433863D01*
X256579Y433871D01*
X256682Y433874D01*
X256701Y433881D01*
X256721Y433882D01*
X256816Y433923D01*
X256913Y433958D01*
X256929Y433971D01*
X256947Y433979D01*
X257078Y434084D01*
X257176Y434181D01*
X286385Y434181D01*
X289361Y431205D01*
X289361Y406995D01*
X286360Y403994D01*
X286269Y403980D01*
X286252Y403970D01*
X286232Y403966D01*
X286143Y403913D01*
X286052Y403864D01*
X286038Y403850D01*
X286021Y403840D01*
X285954Y403761D01*
X285882Y403686D01*
X285874Y403668D01*
X285861Y403653D01*
X285822Y403557D01*
X285779Y403463D01*
X285777Y403443D01*
X285769Y403425D01*
X285751Y403258D01*
X285751Y402996D01*
X285765Y402906D01*
X285773Y402815D01*
X285785Y402785D01*
X285790Y402753D01*
X285833Y402672D01*
X285869Y402589D01*
X285895Y402556D01*
X285906Y402536D01*
X285929Y402514D01*
X285974Y402458D01*
X301294Y387137D01*
X302261Y384803D01*
X302261Y379142D01*
X302264Y379122D01*
X302262Y379103D01*
X302284Y379001D01*
X302300Y378899D01*
X302310Y378882D01*
X302314Y378862D01*
X302367Y378773D01*
X302416Y378682D01*
X302430Y378668D01*
X302440Y378651D01*
X302519Y378584D01*
X302594Y378512D01*
X302612Y378504D01*
X302627Y378491D01*
X302723Y378452D01*
X302817Y378409D01*
X302837Y378407D01*
X302855Y378399D01*
X303022Y378381D01*
X303905Y378381D01*
X304262Y378024D01*
X304278Y378012D01*
X304290Y377996D01*
X304377Y377940D01*
X304461Y377880D01*
X304480Y377874D01*
X304497Y377863D01*
X304598Y377838D01*
X304697Y377808D01*
X304716Y377808D01*
X304736Y377803D01*
X304839Y377811D01*
X304942Y377814D01*
X304961Y377821D01*
X304981Y377822D01*
X305076Y377863D01*
X305173Y377898D01*
X305189Y377911D01*
X305207Y377919D01*
X305338Y378024D01*
X305696Y378381D01*
X320905Y378381D01*
X323881Y375405D01*
X323881Y372991D01*
X323896Y372895D01*
X323906Y372798D01*
X323916Y372774D01*
X323920Y372748D01*
X323966Y372662D01*
X324006Y372573D01*
X324023Y372554D01*
X324036Y372531D01*
X324106Y372464D01*
X324172Y372392D01*
X324195Y372379D01*
X324214Y372361D01*
X324302Y372320D01*
X324388Y372273D01*
X324413Y372269D01*
X324437Y372258D01*
X324534Y372247D01*
X324630Y372230D01*
X324656Y372233D01*
X324681Y372231D01*
X324777Y372251D01*
X324873Y372265D01*
X324896Y372277D01*
X324922Y372283D01*
X325005Y372333D01*
X325092Y372377D01*
X325111Y372396D01*
X325133Y372409D01*
X325196Y372483D01*
X325264Y372552D01*
X325280Y372581D01*
X325293Y372596D01*
X325305Y372627D01*
X325345Y372699D01*
X326622Y375782D01*
X330338Y379498D01*
X332267Y380297D01*
X332327Y380334D01*
X332393Y380364D01*
X332431Y380399D01*
X332476Y380426D01*
X332521Y380481D01*
X332574Y380530D01*
X332599Y380576D01*
X332632Y380616D01*
X332658Y380683D01*
X332693Y380746D01*
X332702Y380797D01*
X332721Y380845D01*
X332724Y380917D01*
X332736Y380988D01*
X332729Y381039D01*
X332731Y381091D01*
X332711Y381160D01*
X332701Y381231D01*
X332677Y381277D01*
X332662Y381327D01*
X332622Y381386D01*
X332589Y381450D01*
X332552Y381487D01*
X332522Y381529D01*
X332465Y381572D01*
X332413Y381622D01*
X332351Y381657D01*
X332325Y381676D01*
X332303Y381683D01*
X332267Y381703D01*
X330338Y382502D01*
X326622Y386218D01*
X324611Y391073D01*
X324611Y396327D01*
X326622Y401182D01*
X330338Y404898D01*
X332267Y405697D01*
X332327Y405734D01*
X332393Y405764D01*
X332431Y405799D01*
X332476Y405826D01*
X332521Y405881D01*
X332574Y405930D01*
X332599Y405976D01*
X332632Y406016D01*
X332658Y406083D01*
X332693Y406146D01*
X332702Y406197D01*
X332721Y406245D01*
X332724Y406317D01*
X332736Y406388D01*
X332729Y406439D01*
X332731Y406491D01*
X332711Y406560D01*
X332701Y406631D01*
X332677Y406677D01*
X332662Y406727D01*
X332622Y406786D01*
X332589Y406850D01*
X332552Y406887D01*
X332522Y406929D01*
X332465Y406972D01*
X332413Y407022D01*
X332351Y407057D01*
X332325Y407076D01*
X332303Y407083D01*
X332267Y407103D01*
X330338Y407902D01*
X326622Y411618D01*
X324611Y416473D01*
X324611Y421727D01*
X326622Y426582D01*
X330338Y430298D01*
X332267Y431097D01*
X332327Y431134D01*
X332393Y431164D01*
X332431Y431199D01*
X332476Y431226D01*
X332521Y431281D01*
X332574Y431330D01*
X332599Y431376D01*
X332632Y431416D01*
X332658Y431483D01*
X332693Y431546D01*
X332702Y431597D01*
X332721Y431645D01*
X332724Y431717D01*
X332736Y431788D01*
X332729Y431839D01*
X332731Y431891D01*
X332711Y431960D01*
X332701Y432031D01*
X332677Y432077D01*
X332662Y432127D01*
X332622Y432186D01*
X332589Y432250D01*
X332552Y432287D01*
X332522Y432329D01*
X332465Y432372D01*
X332413Y432422D01*
X332351Y432457D01*
X332325Y432476D01*
X332303Y432483D01*
X332267Y432503D01*
X330338Y433302D01*
X326622Y437018D01*
X324611Y441873D01*
X324611Y447127D01*
X326622Y451982D01*
X330338Y455698D01*
X332257Y456493D01*
X332317Y456530D01*
X332383Y456559D01*
X332421Y456595D01*
X332466Y456622D01*
X332511Y456677D01*
X332564Y456726D01*
X332589Y456772D01*
X332622Y456812D01*
X332648Y456878D01*
X332683Y456941D01*
X332692Y456993D01*
X332711Y457041D01*
X332714Y457113D01*
X332726Y457183D01*
X332719Y457235D01*
X332721Y457287D01*
X332701Y457356D01*
X332691Y457427D01*
X332667Y457473D01*
X332652Y457523D01*
X332612Y457582D01*
X332579Y457646D01*
X332542Y457683D01*
X332512Y457725D01*
X332455Y457768D01*
X332403Y457818D01*
X332341Y457853D01*
X332315Y457872D01*
X332293Y457879D01*
X332257Y457899D01*
X330318Y458702D01*
X326602Y462418D01*
X324591Y467273D01*
X324591Y472527D01*
X326602Y477382D01*
X330318Y481098D01*
X335173Y483109D01*
X356683Y483109D01*
X361538Y481098D01*
X365254Y477382D01*
X367265Y472527D01*
X367265Y467273D01*
X365254Y462418D01*
X361538Y458702D01*
X359619Y457907D01*
X359559Y457870D01*
X359493Y457841D01*
X359455Y457805D01*
X359410Y457778D01*
X359365Y457723D01*
X359312Y457674D01*
X359287Y457628D01*
X359254Y457588D01*
X359228Y457522D01*
X359193Y457459D01*
X359184Y457407D01*
X359165Y457359D01*
X359162Y457287D01*
X359150Y457217D01*
X359157Y457165D01*
X359155Y457113D01*
X359175Y457044D01*
X359185Y456973D01*
X359209Y456927D01*
X359224Y456877D01*
X359264Y456818D01*
X359297Y456754D01*
X359334Y456717D01*
X359364Y456675D01*
X359421Y456632D01*
X359473Y456582D01*
X359535Y456547D01*
X359561Y456528D01*
X359583Y456521D01*
X359619Y456501D01*
X361558Y455698D01*
X365274Y451982D01*
X367285Y447127D01*
X367285Y441873D01*
X365274Y437018D01*
X361558Y433302D01*
X359629Y432503D01*
X359569Y432465D01*
X359503Y432436D01*
X359465Y432401D01*
X359420Y432374D01*
X359375Y432318D01*
X359322Y432270D01*
X359297Y432224D01*
X359264Y432184D01*
X359238Y432117D01*
X359203Y432054D01*
X359194Y432003D01*
X359175Y431955D01*
X359172Y431883D01*
X359160Y431812D01*
X359167Y431761D01*
X359165Y431709D01*
X359185Y431640D01*
X359195Y431569D01*
X359219Y431523D01*
X359234Y431473D01*
X359274Y431414D01*
X359307Y431350D01*
X359344Y431313D01*
X359374Y431271D01*
X359431Y431228D01*
X359483Y431178D01*
X359545Y431143D01*
X359571Y431124D01*
X359593Y431117D01*
X359629Y431097D01*
X361558Y430298D01*
X365274Y426582D01*
X367285Y421727D01*
X367285Y416473D01*
X365274Y411618D01*
X361558Y407902D01*
X359629Y407103D01*
X359569Y407065D01*
X359503Y407036D01*
X359465Y407001D01*
X359420Y406974D01*
X359375Y406918D01*
X359322Y406870D01*
X359297Y406824D01*
X359264Y406784D01*
X359238Y406717D01*
X359203Y406654D01*
X359194Y406603D01*
X359175Y406555D01*
X359172Y406483D01*
X359160Y406412D01*
X359167Y406361D01*
X359165Y406309D01*
X359185Y406240D01*
X359195Y406169D01*
X359219Y406123D01*
X359234Y406073D01*
X359274Y406014D01*
X359307Y405950D01*
X359344Y405913D01*
X359374Y405871D01*
X359431Y405828D01*
X359483Y405778D01*
X359545Y405743D01*
X359571Y405724D01*
X359593Y405717D01*
X359629Y405697D01*
X361558Y404898D01*
X365274Y401182D01*
X367285Y396327D01*
X367285Y391073D01*
X365274Y386218D01*
X361558Y382502D01*
X359629Y381703D01*
X359569Y381665D01*
X359503Y381636D01*
X359465Y381601D01*
X359420Y381574D01*
X359375Y381518D01*
X359322Y381470D01*
X359297Y381424D01*
X359264Y381384D01*
X359238Y381317D01*
X359203Y381254D01*
X359194Y381203D01*
X359175Y381155D01*
X359172Y381083D01*
X359160Y381012D01*
X359167Y380961D01*
X359165Y380909D01*
X359185Y380840D01*
X359195Y380769D01*
X359219Y380723D01*
X359234Y380673D01*
X359274Y380614D01*
X359307Y380550D01*
X359344Y380513D01*
X359374Y380471D01*
X359431Y380428D01*
X359483Y380378D01*
X359545Y380343D01*
X359571Y380324D01*
X359593Y380317D01*
X359629Y380297D01*
X361558Y379498D01*
X365274Y375782D01*
X367285Y370927D01*
X367285Y365673D01*
X365274Y360818D01*
X361558Y357102D01*
X359629Y356303D01*
X359569Y356265D01*
X359503Y356236D01*
X359465Y356201D01*
X359420Y356174D01*
X359375Y356118D01*
X359322Y356070D01*
X359297Y356024D01*
X359264Y355984D01*
X359238Y355917D01*
X359203Y355854D01*
X359194Y355803D01*
X359175Y355755D01*
X359172Y355683D01*
X359160Y355612D01*
X359167Y355561D01*
X359165Y355509D01*
X359185Y355440D01*
X359195Y355369D01*
X359219Y355323D01*
X359234Y355273D01*
X359274Y355214D01*
X359307Y355150D01*
X359344Y355113D01*
X359374Y355071D01*
X359431Y355028D01*
X359483Y354978D01*
X359545Y354943D01*
X359571Y354924D01*
X359593Y354917D01*
X359629Y354897D01*
X361558Y354098D01*
X365274Y350382D01*
X367285Y345527D01*
X367285Y340273D01*
X365274Y335418D01*
X361558Y331702D01*
X359629Y330903D01*
X359569Y330865D01*
X359503Y330836D01*
X359465Y330801D01*
X359420Y330774D01*
X359375Y330718D01*
X359322Y330670D01*
X359297Y330624D01*
X359264Y330584D01*
X359238Y330517D01*
X359203Y330454D01*
X359194Y330403D01*
X359175Y330355D01*
X359172Y330283D01*
X359160Y330212D01*
X359167Y330161D01*
X359165Y330109D01*
X359185Y330040D01*
X359195Y329969D01*
X359219Y329923D01*
X359234Y329873D01*
X359274Y329814D01*
X359307Y329750D01*
X359344Y329713D01*
X359374Y329671D01*
X359431Y329628D01*
X359483Y329578D01*
X359545Y329543D01*
X359571Y329524D01*
X359593Y329517D01*
X359629Y329497D01*
X361558Y328698D01*
X365274Y324982D01*
X367285Y320127D01*
X367285Y319684D01*
X367296Y319613D01*
X367298Y319541D01*
X367316Y319492D01*
X367324Y319441D01*
X367358Y319378D01*
X367383Y319310D01*
X367415Y319270D01*
X367440Y319224D01*
X367492Y319174D01*
X367536Y319118D01*
X367580Y319090D01*
X367618Y319054D01*
X367683Y319024D01*
X367743Y318985D01*
X367794Y318973D01*
X367841Y318951D01*
X367912Y318943D01*
X367982Y318925D01*
X368034Y318929D01*
X368085Y318924D01*
X368156Y318939D01*
X368227Y318944D01*
X368275Y318965D01*
X368326Y318976D01*
X368387Y319013D01*
X368453Y319041D01*
X368509Y319085D01*
X368537Y319102D01*
X368552Y319120D01*
X368584Y319146D01*
X374426Y324988D01*
X374479Y325062D01*
X374539Y325131D01*
X374551Y325161D01*
X374570Y325187D01*
X374597Y325274D01*
X374631Y325359D01*
X374635Y325400D01*
X374642Y325422D01*
X374641Y325455D01*
X374649Y325526D01*
X374649Y340353D01*
X375616Y342687D01*
X376966Y344038D01*
X377019Y344112D01*
X377079Y344181D01*
X377091Y344211D01*
X377110Y344237D01*
X377134Y344315D01*
X377145Y344336D01*
X377149Y344354D01*
X377171Y344409D01*
X377175Y344450D01*
X377182Y344472D01*
X377181Y344505D01*
X377189Y344576D01*
X377189Y344591D01*
X377177Y344664D01*
X377176Y344718D01*
X377164Y344751D01*
X377153Y344822D01*
X377151Y344827D01*
X377150Y344834D01*
X377098Y344930D01*
X377091Y344949D01*
X377084Y344959D01*
X377042Y345041D01*
X377037Y345045D01*
X377034Y345051D01*
X376950Y345131D01*
X376866Y345213D01*
X376860Y345217D01*
X376856Y345220D01*
X376839Y345228D01*
X376816Y345241D01*
X373364Y348693D01*
X371507Y353175D01*
X371507Y358025D01*
X373364Y362507D01*
X376793Y365936D01*
X381275Y367793D01*
X386125Y367793D01*
X390607Y365936D01*
X394036Y362507D01*
X394515Y361352D01*
X394570Y361262D01*
X394621Y361170D01*
X394635Y361158D01*
X394644Y361143D01*
X394726Y361076D01*
X394803Y361005D01*
X394820Y360998D01*
X394834Y360986D01*
X394932Y360948D01*
X395028Y360906D01*
X395047Y360904D01*
X395064Y360898D01*
X395169Y360893D01*
X395273Y360884D01*
X395291Y360888D01*
X395309Y360887D01*
X395410Y360917D01*
X395513Y360941D01*
X395528Y360951D01*
X395546Y360956D01*
X395632Y361016D01*
X395721Y361072D01*
X395736Y361088D01*
X395748Y361096D01*
X395766Y361121D01*
X395834Y361196D01*
X396337Y361888D01*
X397412Y362963D01*
X398641Y363856D01*
X399995Y364546D01*
X401440Y365015D01*
X402177Y365132D01*
X402177Y356362D01*
X402180Y356342D01*
X402178Y356323D01*
X402200Y356221D01*
X402217Y356119D01*
X402226Y356102D01*
X402230Y356082D01*
X402283Y355993D01*
X402332Y355902D01*
X402346Y355888D01*
X402356Y355871D01*
X402435Y355804D01*
X402510Y355733D01*
X402528Y355724D01*
X402543Y355711D01*
X402639Y355673D01*
X402733Y355629D01*
X402753Y355627D01*
X402771Y355619D01*
X402938Y355601D01*
X403701Y355601D01*
X403701Y355599D01*
X402938Y355599D01*
X402918Y355596D01*
X402899Y355598D01*
X402797Y355576D01*
X402695Y355559D01*
X402678Y355550D01*
X402658Y355546D01*
X402569Y355493D01*
X402478Y355444D01*
X402464Y355430D01*
X402447Y355420D01*
X402380Y355341D01*
X402309Y355266D01*
X402300Y355248D01*
X402287Y355233D01*
X402248Y355137D01*
X402205Y355043D01*
X402203Y355023D01*
X402195Y355005D01*
X402177Y354838D01*
X402177Y346068D01*
X401440Y346185D01*
X399995Y346654D01*
X398641Y347344D01*
X397412Y348237D01*
X396337Y349312D01*
X395834Y350004D01*
X395759Y350078D01*
X395688Y350156D01*
X395672Y350165D01*
X395659Y350177D01*
X395565Y350224D01*
X395473Y350274D01*
X395455Y350278D01*
X395438Y350286D01*
X395334Y350299D01*
X395231Y350318D01*
X395213Y350315D01*
X395195Y350318D01*
X395091Y350298D01*
X394987Y350282D01*
X394971Y350274D01*
X394953Y350271D01*
X394862Y350219D01*
X394768Y350171D01*
X394755Y350158D01*
X394739Y350149D01*
X394670Y350070D01*
X394596Y349995D01*
X394585Y349976D01*
X394576Y349965D01*
X394563Y349936D01*
X394515Y349848D01*
X394036Y348693D01*
X390607Y345264D01*
X390361Y345162D01*
X390262Y345100D01*
X390161Y345040D01*
X390157Y345035D01*
X390152Y345032D01*
X390078Y344943D01*
X390001Y344853D01*
X389999Y344847D01*
X389995Y344843D01*
X389953Y344735D01*
X389909Y344625D01*
X389908Y344618D01*
X389907Y344613D01*
X389906Y344595D01*
X389891Y344458D01*
X389891Y340367D01*
X388924Y338033D01*
X387574Y336682D01*
X387521Y336608D01*
X387461Y336539D01*
X387449Y336509D01*
X387430Y336483D01*
X387403Y336396D01*
X387369Y336311D01*
X387365Y336270D01*
X387358Y336248D01*
X387359Y336215D01*
X387351Y336144D01*
X387351Y321317D01*
X386384Y318983D01*
X374437Y307036D01*
X372103Y306069D01*
X369976Y306069D01*
X369886Y306055D01*
X369795Y306047D01*
X369765Y306035D01*
X369733Y306030D01*
X369652Y305987D01*
X369569Y305951D01*
X369536Y305925D01*
X369516Y305914D01*
X369494Y305891D01*
X369438Y305846D01*
X364762Y301171D01*
X364750Y301154D01*
X364735Y301142D01*
X364679Y301055D01*
X364618Y300971D01*
X364613Y300952D01*
X364602Y300935D01*
X364576Y300835D01*
X364546Y300736D01*
X364547Y300716D01*
X364542Y300697D01*
X364550Y300594D01*
X364552Y300490D01*
X364559Y300471D01*
X364561Y300451D01*
X364601Y300356D01*
X364637Y300259D01*
X364649Y300243D01*
X364657Y300225D01*
X364762Y300094D01*
X365274Y299582D01*
X367285Y294727D01*
X367285Y289473D01*
X365274Y284618D01*
X361558Y280902D01*
X359629Y280103D01*
X359569Y280065D01*
X359503Y280036D01*
X359465Y280001D01*
X359420Y279974D01*
X359375Y279918D01*
X359322Y279870D01*
X359297Y279824D01*
X359264Y279784D01*
X359238Y279717D01*
X359203Y279654D01*
X359194Y279603D01*
X359175Y279555D01*
X359172Y279483D01*
X359160Y279412D01*
X359167Y279361D01*
X359165Y279309D01*
X359185Y279240D01*
X359195Y279169D01*
X359219Y279123D01*
X359234Y279073D01*
X359274Y279014D01*
X359307Y278950D01*
X359344Y278913D01*
X359374Y278871D01*
X359431Y278828D01*
X359483Y278778D01*
X359545Y278743D01*
X359571Y278724D01*
X359593Y278717D01*
X359629Y278697D01*
X361558Y277898D01*
X365274Y274182D01*
X367285Y269327D01*
X367285Y268884D01*
X367296Y268813D01*
X367298Y268741D01*
X367316Y268692D01*
X367324Y268641D01*
X367358Y268578D01*
X367383Y268510D01*
X367415Y268470D01*
X367440Y268424D01*
X367492Y268374D01*
X367536Y268318D01*
X367580Y268290D01*
X367618Y268254D01*
X367683Y268224D01*
X367743Y268185D01*
X367794Y268173D01*
X367841Y268151D01*
X367912Y268143D01*
X367982Y268125D01*
X368034Y268129D01*
X368085Y268124D01*
X368156Y268139D01*
X368227Y268144D01*
X368275Y268165D01*
X368326Y268176D01*
X368387Y268213D01*
X368453Y268241D01*
X368509Y268286D01*
X368537Y268302D01*
X368552Y268320D01*
X368584Y268346D01*
X369346Y269108D01*
X369399Y269182D01*
X369459Y269251D01*
X369471Y269281D01*
X369490Y269307D01*
X369517Y269394D01*
X369551Y269479D01*
X369555Y269520D01*
X369562Y269542D01*
X369561Y269574D01*
X369569Y269646D01*
X369569Y290823D01*
X370536Y293157D01*
X381284Y303906D01*
X381337Y303980D01*
X381397Y304049D01*
X381409Y304079D01*
X381428Y304105D01*
X381455Y304192D01*
X381489Y304277D01*
X381493Y304318D01*
X381500Y304340D01*
X381499Y304373D01*
X381507Y304444D01*
X381507Y304525D01*
X383364Y309007D01*
X386793Y312436D01*
X391275Y314293D01*
X396125Y314293D01*
X400607Y312436D01*
X404036Y309007D01*
X405893Y304525D01*
X405893Y299675D01*
X404036Y295193D01*
X400607Y291764D01*
X399452Y291285D01*
X399362Y291230D01*
X399270Y291179D01*
X399258Y291165D01*
X399243Y291156D01*
X399175Y291074D01*
X399105Y290997D01*
X399098Y290980D01*
X399086Y290966D01*
X399048Y290868D01*
X399006Y290772D01*
X399004Y290753D01*
X398998Y290736D01*
X398993Y290631D01*
X398984Y290527D01*
X398988Y290509D01*
X398987Y290491D01*
X399017Y290390D01*
X399041Y290287D01*
X399051Y290272D01*
X399056Y290254D01*
X399116Y290168D01*
X399172Y290079D01*
X399188Y290064D01*
X399196Y290052D01*
X399222Y290033D01*
X399296Y289966D01*
X399988Y289463D01*
X401063Y288388D01*
X401956Y287159D01*
X402646Y285805D01*
X403115Y284360D01*
X403232Y283623D01*
X394462Y283623D01*
X394442Y283620D01*
X394423Y283622D01*
X394321Y283600D01*
X394219Y283583D01*
X394202Y283574D01*
X394182Y283570D01*
X394093Y283517D01*
X394002Y283468D01*
X393988Y283454D01*
X393971Y283444D01*
X393904Y283365D01*
X393833Y283290D01*
X393824Y283272D01*
X393811Y283257D01*
X393773Y283161D01*
X393729Y283067D01*
X393727Y283047D01*
X393719Y283029D01*
X393701Y282862D01*
X393701Y282099D01*
X393699Y282099D01*
X393699Y282862D01*
X393696Y282882D01*
X393698Y282901D01*
X393676Y283003D01*
X393659Y283105D01*
X393650Y283122D01*
X393646Y283142D01*
X393593Y283231D01*
X393544Y283322D01*
X393530Y283336D01*
X393520Y283353D01*
X393441Y283420D01*
X393366Y283491D01*
X393348Y283500D01*
X393333Y283513D01*
X393237Y283552D01*
X393143Y283595D01*
X393123Y283597D01*
X393105Y283605D01*
X392938Y283623D01*
X384168Y283623D01*
X384285Y284360D01*
X384754Y285805D01*
X385444Y287159D01*
X386337Y288388D01*
X387412Y289463D01*
X388104Y289966D01*
X388178Y290041D01*
X388256Y290112D01*
X388265Y290128D01*
X388277Y290141D01*
X388324Y290235D01*
X388374Y290327D01*
X388378Y290345D01*
X388386Y290362D01*
X388399Y290466D01*
X388418Y290569D01*
X388415Y290587D01*
X388418Y290605D01*
X388398Y290709D01*
X388382Y290813D01*
X388374Y290829D01*
X388371Y290847D01*
X388318Y290938D01*
X388271Y291032D01*
X388258Y291045D01*
X388249Y291061D01*
X388170Y291130D01*
X388095Y291204D01*
X388076Y291215D01*
X388065Y291224D01*
X388036Y291237D01*
X387948Y291285D01*
X387484Y291478D01*
X387370Y291504D01*
X387256Y291533D01*
X387250Y291532D01*
X387244Y291534D01*
X387127Y291523D01*
X387011Y291514D01*
X387005Y291511D01*
X386999Y291511D01*
X386892Y291463D01*
X386785Y291417D01*
X386779Y291413D01*
X386774Y291411D01*
X386761Y291398D01*
X386654Y291313D01*
X382494Y287152D01*
X382441Y287078D01*
X382381Y287009D01*
X382369Y286979D01*
X382350Y286953D01*
X382323Y286866D01*
X382289Y286781D01*
X382285Y286740D01*
X382278Y286718D01*
X382279Y286685D01*
X382271Y286614D01*
X382271Y265437D01*
X381304Y263103D01*
X374437Y256236D01*
X372103Y255269D01*
X369976Y255269D01*
X369886Y255255D01*
X369795Y255247D01*
X369765Y255235D01*
X369733Y255230D01*
X369652Y255187D01*
X369569Y255151D01*
X369536Y255125D01*
X369516Y255114D01*
X369494Y255091D01*
X369438Y255046D01*
X364762Y250371D01*
X364750Y250354D01*
X364735Y250342D01*
X364679Y250255D01*
X364618Y250171D01*
X364612Y250152D01*
X364602Y250135D01*
X364576Y250035D01*
X364546Y249936D01*
X364547Y249916D01*
X364542Y249897D01*
X364550Y249794D01*
X364552Y249690D01*
X364559Y249671D01*
X364561Y249651D01*
X364601Y249556D01*
X364637Y249459D01*
X364649Y249443D01*
X364657Y249425D01*
X364762Y249294D01*
X365274Y248782D01*
X367285Y243927D01*
X367285Y242062D01*
X367288Y242042D01*
X367286Y242023D01*
X367308Y241921D01*
X367324Y241819D01*
X367334Y241802D01*
X367338Y241782D01*
X367391Y241693D01*
X367440Y241602D01*
X367454Y241588D01*
X367464Y241571D01*
X367543Y241504D01*
X367618Y241432D01*
X367636Y241424D01*
X367651Y241411D01*
X367747Y241372D01*
X367841Y241329D01*
X367861Y241327D01*
X367879Y241319D01*
X368046Y241301D01*
X368293Y241301D01*
X370627Y240334D01*
X375788Y235174D01*
X375862Y235121D01*
X375931Y235061D01*
X375961Y235049D01*
X375987Y235030D01*
X376074Y235003D01*
X376159Y234969D01*
X376200Y234965D01*
X376222Y234958D01*
X376255Y234959D01*
X376326Y234951D01*
X378453Y234951D01*
X380787Y233984D01*
X382138Y232634D01*
X382212Y232581D01*
X382281Y232521D01*
X382311Y232509D01*
X382337Y232490D01*
X382415Y232466D01*
X382436Y232455D01*
X382454Y232451D01*
X382509Y232429D01*
X382550Y232425D01*
X382572Y232418D01*
X382605Y232419D01*
X382676Y232411D01*
X382691Y232411D01*
X382764Y232423D01*
X382818Y232424D01*
X382851Y232436D01*
X382922Y232447D01*
X382927Y232449D01*
X382934Y232450D01*
X383030Y232502D01*
X383049Y232509D01*
X383059Y232516D01*
X383141Y232558D01*
X383145Y232563D01*
X383151Y232566D01*
X383231Y232650D01*
X383313Y232734D01*
X383317Y232740D01*
X383320Y232744D01*
X383328Y232761D01*
X383341Y232784D01*
X386793Y236236D01*
X391275Y238093D01*
X396125Y238093D01*
X400607Y236236D01*
X404036Y232807D01*
X405893Y228325D01*
X405893Y223475D01*
X404036Y218993D01*
X400607Y215564D01*
X399452Y215085D01*
X399362Y215030D01*
X399270Y214979D01*
X399258Y214965D01*
X399243Y214956D01*
X399176Y214874D01*
X399105Y214797D01*
X399098Y214780D01*
X399086Y214766D01*
X399048Y214668D01*
X399006Y214572D01*
X399004Y214553D01*
X398998Y214536D01*
X398993Y214431D01*
X398984Y214327D01*
X398988Y214309D01*
X398987Y214291D01*
X399017Y214190D01*
X399041Y214087D01*
X399051Y214072D01*
X399056Y214054D01*
X399116Y213968D01*
X399172Y213879D01*
X399188Y213864D01*
X399196Y213852D01*
X399221Y213834D01*
X399296Y213766D01*
X399988Y213263D01*
X401063Y212188D01*
X401956Y210959D01*
X402646Y209605D01*
X403115Y208160D01*
X403232Y207423D01*
X394462Y207423D01*
X394442Y207420D01*
X394423Y207422D01*
X394321Y207400D01*
X394219Y207383D01*
X394202Y207374D01*
X394182Y207370D01*
X394093Y207317D01*
X394002Y207268D01*
X393988Y207254D01*
X393971Y207244D01*
X393904Y207165D01*
X393833Y207090D01*
X393824Y207072D01*
X393811Y207057D01*
X393773Y206961D01*
X393729Y206867D01*
X393727Y206847D01*
X393719Y206829D01*
X393701Y206662D01*
X393701Y205899D01*
X393699Y205899D01*
X393699Y206662D01*
X393696Y206682D01*
X393698Y206701D01*
X393676Y206803D01*
X393659Y206905D01*
X393650Y206922D01*
X393646Y206942D01*
X393593Y207031D01*
X393544Y207122D01*
X393530Y207136D01*
X393520Y207153D01*
X393441Y207220D01*
X393366Y207291D01*
X393348Y207300D01*
X393333Y207313D01*
X393237Y207352D01*
X393143Y207395D01*
X393123Y207397D01*
X393105Y207405D01*
X392938Y207423D01*
X384168Y207423D01*
X384285Y208160D01*
X384754Y209605D01*
X385444Y210959D01*
X386337Y212188D01*
X387412Y213263D01*
X388104Y213766D01*
X388178Y213841D01*
X388256Y213912D01*
X388265Y213928D01*
X388277Y213941D01*
X388324Y214035D01*
X388374Y214127D01*
X388378Y214145D01*
X388386Y214162D01*
X388399Y214266D01*
X388418Y214369D01*
X388415Y214387D01*
X388418Y214405D01*
X388398Y214509D01*
X388382Y214613D01*
X388374Y214629D01*
X388371Y214647D01*
X388319Y214738D01*
X388271Y214832D01*
X388258Y214845D01*
X388249Y214861D01*
X388170Y214930D01*
X388095Y215004D01*
X388076Y215015D01*
X388065Y215024D01*
X388036Y215037D01*
X387948Y215085D01*
X386793Y215564D01*
X383364Y218993D01*
X383262Y219239D01*
X383200Y219339D01*
X383140Y219439D01*
X383135Y219443D01*
X383132Y219448D01*
X383042Y219523D01*
X382953Y219599D01*
X382947Y219601D01*
X382942Y219605D01*
X382834Y219647D01*
X382725Y219691D01*
X382717Y219692D01*
X382713Y219693D01*
X382695Y219694D01*
X382558Y219709D01*
X378467Y219709D01*
X376133Y220676D01*
X374782Y222026D01*
X374708Y222079D01*
X374639Y222139D01*
X374609Y222151D01*
X374583Y222170D01*
X374496Y222197D01*
X374411Y222231D01*
X374370Y222235D01*
X374348Y222242D01*
X374315Y222241D01*
X374244Y222249D01*
X372117Y222249D01*
X369783Y223216D01*
X366933Y226065D01*
X366917Y226077D01*
X366905Y226093D01*
X366817Y226149D01*
X366734Y226209D01*
X366715Y226215D01*
X366698Y226226D01*
X366597Y226251D01*
X366498Y226281D01*
X366479Y226281D01*
X366459Y226286D01*
X366356Y226278D01*
X366253Y226275D01*
X366234Y226268D01*
X366214Y226267D01*
X366119Y226226D01*
X366022Y226191D01*
X366006Y226178D01*
X365988Y226170D01*
X365857Y226065D01*
X364762Y224971D01*
X364750Y224954D01*
X364735Y224942D01*
X364679Y224855D01*
X364618Y224771D01*
X364613Y224752D01*
X364602Y224735D01*
X364576Y224635D01*
X364546Y224536D01*
X364547Y224516D01*
X364542Y224497D01*
X364550Y224394D01*
X364552Y224290D01*
X364559Y224271D01*
X364561Y224251D01*
X364601Y224156D01*
X364637Y224059D01*
X364649Y224043D01*
X364657Y224025D01*
X364762Y223894D01*
X365274Y223382D01*
X367285Y218527D01*
X367285Y213273D01*
X365274Y208418D01*
X361558Y204702D01*
X359629Y203903D01*
X359569Y203865D01*
X359503Y203836D01*
X359465Y203801D01*
X359420Y203774D01*
X359375Y203718D01*
X359322Y203670D01*
X359297Y203624D01*
X359264Y203584D01*
X359238Y203517D01*
X359203Y203454D01*
X359194Y203403D01*
X359175Y203355D01*
X359172Y203283D01*
X359160Y203212D01*
X359167Y203161D01*
X359165Y203109D01*
X359185Y203040D01*
X359195Y202969D01*
X359219Y202923D01*
X359234Y202873D01*
X359274Y202814D01*
X359307Y202750D01*
X359344Y202713D01*
X359374Y202671D01*
X359431Y202628D01*
X359483Y202578D01*
X359545Y202543D01*
X359571Y202524D01*
X359593Y202517D01*
X359629Y202497D01*
X361558Y201698D01*
X365274Y197982D01*
X367285Y193127D01*
X367285Y191262D01*
X367288Y191242D01*
X367286Y191223D01*
X367308Y191121D01*
X367324Y191019D01*
X367334Y191002D01*
X367338Y190982D01*
X367391Y190893D01*
X367440Y190802D01*
X367454Y190788D01*
X367464Y190771D01*
X367543Y190704D01*
X367618Y190632D01*
X367636Y190624D01*
X367651Y190611D01*
X367747Y190572D01*
X367841Y190529D01*
X367861Y190527D01*
X367879Y190519D01*
X368046Y190501D01*
X368293Y190501D01*
X370627Y189534D01*
X389758Y170404D01*
X389832Y170351D01*
X389901Y170291D01*
X389931Y170279D01*
X389957Y170260D01*
X390044Y170233D01*
X390129Y170199D01*
X390170Y170195D01*
X390192Y170188D01*
X390225Y170189D01*
X390296Y170181D01*
X431793Y170181D01*
X434127Y169214D01*
X441272Y162069D01*
X441367Y162001D01*
X441461Y161931D01*
X441467Y161929D01*
X441472Y161925D01*
X441583Y161891D01*
X441695Y161855D01*
X441701Y161855D01*
X441707Y161853D01*
X441824Y161856D01*
X441941Y161857D01*
X441948Y161859D01*
X441953Y161859D01*
X441970Y161866D01*
X442063Y161893D01*
X446925Y161893D01*
X451407Y160036D01*
X454836Y156607D01*
X456693Y152125D01*
X456693Y147275D01*
X454836Y142793D01*
X451407Y139364D01*
X450252Y138885D01*
X450162Y138830D01*
X450070Y138779D01*
X450058Y138765D01*
X450043Y138756D01*
X449975Y138674D01*
X449905Y138597D01*
X449898Y138580D01*
X449886Y138566D01*
X449848Y138468D01*
X449806Y138372D01*
X449804Y138353D01*
X449798Y138336D01*
X449793Y138231D01*
X449784Y138127D01*
X449788Y138109D01*
X449787Y138091D01*
X449817Y137990D01*
X449841Y137887D01*
X449851Y137872D01*
X449856Y137854D01*
X449916Y137768D01*
X449972Y137679D01*
X449988Y137664D01*
X449996Y137652D01*
X450022Y137633D01*
X450096Y137566D01*
X450788Y137063D01*
X451863Y135988D01*
X452756Y134759D01*
X453446Y133405D01*
X453915Y131960D01*
X454032Y131223D01*
X445262Y131223D01*
X445242Y131220D01*
X445223Y131222D01*
X445121Y131200D01*
X445019Y131183D01*
X445002Y131174D01*
X444982Y131170D01*
X444893Y131117D01*
X444802Y131068D01*
X444788Y131054D01*
X444771Y131044D01*
X444704Y130965D01*
X444633Y130890D01*
X444624Y130872D01*
X444611Y130857D01*
X444573Y130761D01*
X444529Y130667D01*
X444527Y130647D01*
X444519Y130629D01*
X444501Y130462D01*
X444501Y129699D01*
X444499Y129699D01*
X444499Y130462D01*
X444496Y130482D01*
X444498Y130501D01*
X444476Y130603D01*
X444459Y130705D01*
X444450Y130722D01*
X444446Y130742D01*
X444393Y130831D01*
X444344Y130922D01*
X444330Y130936D01*
X444320Y130953D01*
X444241Y131020D01*
X444166Y131091D01*
X444148Y131100D01*
X444133Y131113D01*
X444037Y131152D01*
X443943Y131195D01*
X443923Y131197D01*
X443905Y131205D01*
X443738Y131223D01*
X434968Y131223D01*
X435085Y131960D01*
X435554Y133405D01*
X436244Y134759D01*
X437137Y135988D01*
X438212Y137063D01*
X438904Y137566D01*
X438978Y137641D01*
X439056Y137712D01*
X439065Y137728D01*
X439077Y137741D01*
X439124Y137835D01*
X439174Y137927D01*
X439178Y137945D01*
X439186Y137962D01*
X439199Y138066D01*
X439218Y138169D01*
X439215Y138187D01*
X439218Y138205D01*
X439198Y138309D01*
X439182Y138413D01*
X439174Y138429D01*
X439171Y138447D01*
X439118Y138538D01*
X439071Y138632D01*
X439058Y138645D01*
X439049Y138661D01*
X438970Y138730D01*
X438895Y138804D01*
X438876Y138815D01*
X438865Y138824D01*
X438836Y138837D01*
X438748Y138885D01*
X437593Y139364D01*
X434164Y142793D01*
X432307Y147275D01*
X432307Y152125D01*
X432390Y152324D01*
X432416Y152438D01*
X432445Y152551D01*
X432444Y152558D01*
X432446Y152564D01*
X432435Y152680D01*
X432426Y152797D01*
X432423Y152802D01*
X432423Y152809D01*
X432375Y152916D01*
X432330Y153023D01*
X432325Y153029D01*
X432323Y153033D01*
X432310Y153047D01*
X432225Y153154D01*
X428122Y157256D01*
X428048Y157309D01*
X427979Y157369D01*
X427949Y157381D01*
X427923Y157400D01*
X427835Y157427D01*
X427751Y157461D01*
X427710Y157465D01*
X427688Y157472D01*
X427655Y157471D01*
X427584Y157479D01*
X386087Y157479D01*
X383753Y158446D01*
X366933Y175265D01*
X366917Y175277D01*
X366905Y175293D01*
X366817Y175349D01*
X366734Y175409D01*
X366715Y175415D01*
X366698Y175426D01*
X366597Y175451D01*
X366498Y175481D01*
X366479Y175481D01*
X366459Y175486D01*
X366356Y175478D01*
X366253Y175475D01*
X366234Y175468D01*
X366214Y175467D01*
X366119Y175426D01*
X366022Y175391D01*
X366006Y175378D01*
X365988Y175370D01*
X365857Y175265D01*
X364762Y174171D01*
X364750Y174154D01*
X364735Y174142D01*
X364679Y174055D01*
X364618Y173971D01*
X364613Y173952D01*
X364602Y173935D01*
X364576Y173835D01*
X364546Y173736D01*
X364547Y173716D01*
X364542Y173697D01*
X364550Y173594D01*
X364552Y173490D01*
X364559Y173471D01*
X364561Y173451D01*
X364601Y173356D01*
X364637Y173259D01*
X364649Y173243D01*
X364657Y173225D01*
X364762Y173094D01*
X365274Y172582D01*
X367285Y167727D01*
X367285Y162473D01*
X365274Y157618D01*
X361558Y153902D01*
X359629Y153103D01*
X359568Y153065D01*
X359503Y153036D01*
X359465Y153001D01*
X359420Y152974D01*
X359375Y152918D01*
X359322Y152870D01*
X359297Y152824D01*
X359264Y152784D01*
X359238Y152717D01*
X359203Y152654D01*
X359194Y152603D01*
X359175Y152555D01*
X359172Y152483D01*
X359160Y152412D01*
X359167Y152361D01*
X359165Y152309D01*
X359185Y152240D01*
X359195Y152169D01*
X359219Y152123D01*
X359234Y152073D01*
X359274Y152014D01*
X359307Y151950D01*
X359344Y151913D01*
X359374Y151871D01*
X359431Y151828D01*
X359482Y151778D01*
X359545Y151743D01*
X359571Y151724D01*
X359593Y151717D01*
X359629Y151697D01*
X361558Y150898D01*
X365274Y147182D01*
X367285Y142327D01*
X367285Y137073D01*
X365274Y132218D01*
X361558Y128502D01*
X359629Y127703D01*
X359568Y127665D01*
X359503Y127636D01*
X359465Y127601D01*
X359420Y127574D01*
X359375Y127518D01*
X359322Y127470D01*
X359297Y127424D01*
X359264Y127384D01*
X359238Y127317D01*
X359203Y127254D01*
X359194Y127203D01*
X359175Y127155D01*
X359172Y127083D01*
X359160Y127012D01*
X359167Y126961D01*
X359165Y126909D01*
X359185Y126840D01*
X359195Y126769D01*
X359219Y126723D01*
X359234Y126673D01*
X359274Y126614D01*
X359307Y126550D01*
X359344Y126513D01*
X359374Y126471D01*
X359431Y126428D01*
X359482Y126378D01*
X359545Y126343D01*
X359571Y126324D01*
X359593Y126317D01*
X359629Y126297D01*
X361558Y125498D01*
X365274Y121782D01*
X367285Y116927D01*
X367285Y111673D01*
X365274Y106818D01*
X361558Y103102D01*
X356703Y101091D01*
X335193Y101091D01*
X330338Y103102D01*
X326622Y106818D01*
X324611Y111673D01*
X324611Y116927D01*
X326622Y121782D01*
X330338Y125498D01*
X332267Y126297D01*
X332328Y126335D01*
X332393Y126364D01*
X332431Y126399D01*
X332476Y126426D01*
X332521Y126482D01*
X332574Y126530D01*
X332599Y126576D01*
X332632Y126616D01*
X332658Y126683D01*
X332693Y126746D01*
X332702Y126797D01*
X332721Y126845D01*
X332724Y126917D01*
X332736Y126988D01*
X332729Y127039D01*
X332731Y127091D01*
X332711Y127160D01*
X332701Y127231D01*
X332677Y127277D01*
X332662Y127327D01*
X332622Y127386D01*
X332589Y127450D01*
X332552Y127487D01*
X332522Y127529D01*
X332465Y127572D01*
X332414Y127622D01*
X332351Y127657D01*
X332325Y127676D01*
X332303Y127683D01*
X332267Y127703D01*
X330338Y128502D01*
X326622Y132218D01*
X324611Y137073D01*
X324611Y142327D01*
X326622Y147182D01*
X330338Y150898D01*
X332267Y151697D01*
X332328Y151735D01*
X332393Y151764D01*
X332431Y151799D01*
X332476Y151826D01*
X332521Y151882D01*
X332574Y151930D01*
X332599Y151976D01*
X332632Y152016D01*
X332658Y152083D01*
X332693Y152146D01*
X332702Y152197D01*
X332721Y152245D01*
X332724Y152317D01*
X332736Y152388D01*
X332729Y152439D01*
X332731Y152491D01*
X332711Y152560D01*
X332701Y152631D01*
X332677Y152677D01*
X332662Y152727D01*
X332622Y152786D01*
X332589Y152850D01*
X332552Y152887D01*
X332522Y152929D01*
X332465Y152972D01*
X332414Y153022D01*
X332351Y153057D01*
X332325Y153076D01*
X332303Y153083D01*
X332267Y153103D01*
X330338Y153902D01*
X326622Y157618D01*
X324611Y162473D01*
X324611Y167727D01*
X325409Y169652D01*
X325431Y169747D01*
X325459Y169840D01*
X325459Y169866D01*
X325465Y169892D01*
X325456Y169988D01*
X325453Y170086D01*
X325444Y170110D01*
X325442Y170136D01*
X325402Y170225D01*
X325369Y170317D01*
X325352Y170337D01*
X325342Y170361D01*
X325276Y170433D01*
X325215Y170509D01*
X325193Y170523D01*
X325175Y170542D01*
X325090Y170589D01*
X325008Y170642D01*
X324983Y170648D01*
X324960Y170661D01*
X324864Y170678D01*
X324769Y170702D01*
X324743Y170700D01*
X324718Y170705D01*
X324621Y170690D01*
X324524Y170683D01*
X324500Y170673D01*
X324474Y170669D01*
X324387Y170625D01*
X324298Y170587D01*
X324273Y170566D01*
X324255Y170557D01*
X324232Y170534D01*
X324167Y170482D01*
X322405Y168719D01*
X309195Y168719D01*
X306219Y171695D01*
X306219Y183905D01*
X309195Y186881D01*
X322405Y186881D01*
X324167Y185118D01*
X324246Y185062D01*
X324321Y184999D01*
X324346Y184990D01*
X324367Y184975D01*
X324460Y184946D01*
X324551Y184911D01*
X324577Y184910D01*
X324602Y184902D01*
X324699Y184905D01*
X324796Y184901D01*
X324822Y184908D01*
X324848Y184909D01*
X324939Y184942D01*
X325033Y184969D01*
X325054Y184984D01*
X325079Y184993D01*
X325155Y185054D01*
X325235Y185110D01*
X325250Y185131D01*
X325271Y185147D01*
X325323Y185229D01*
X325381Y185307D01*
X325390Y185332D01*
X325404Y185354D01*
X325428Y185448D01*
X325458Y185541D01*
X325457Y185567D01*
X325464Y185592D01*
X325456Y185689D01*
X325455Y185787D01*
X325446Y185818D01*
X325445Y185838D01*
X325432Y185868D01*
X325409Y185948D01*
X324611Y187873D01*
X324611Y193127D01*
X326622Y197982D01*
X330338Y201698D01*
X332267Y202497D01*
X332327Y202534D01*
X332393Y202564D01*
X332431Y202599D01*
X332476Y202626D01*
X332521Y202681D01*
X332574Y202730D01*
X332599Y202776D01*
X332632Y202816D01*
X332658Y202883D01*
X332693Y202946D01*
X332702Y202997D01*
X332721Y203045D01*
X332724Y203117D01*
X332736Y203188D01*
X332729Y203239D01*
X332731Y203291D01*
X332711Y203360D01*
X332701Y203431D01*
X332677Y203477D01*
X332662Y203527D01*
X332622Y203586D01*
X332589Y203650D01*
X332552Y203687D01*
X332522Y203729D01*
X332465Y203772D01*
X332413Y203822D01*
X332351Y203857D01*
X332325Y203876D01*
X332303Y203883D01*
X332267Y203903D01*
X330338Y204702D01*
X326622Y208418D01*
X326291Y209217D01*
X326267Y209256D01*
X326251Y209299D01*
X326203Y209360D01*
X326161Y209426D01*
X326126Y209456D01*
X326097Y209491D01*
X326032Y209533D01*
X325972Y209583D01*
X325929Y209600D01*
X325891Y209624D01*
X325815Y209643D01*
X325742Y209671D01*
X325697Y209673D01*
X325652Y209684D01*
X325574Y209678D01*
X325497Y209682D01*
X325452Y209669D01*
X325407Y209665D01*
X325335Y209635D01*
X325260Y209613D01*
X325223Y209587D01*
X325180Y209569D01*
X325074Y209484D01*
X325058Y209473D01*
X325055Y209469D01*
X325049Y209464D01*
X322405Y206819D01*
X312636Y206819D01*
X312546Y206805D01*
X312455Y206797D01*
X312425Y206785D01*
X312393Y206780D01*
X312312Y206737D01*
X312229Y206701D01*
X312196Y206675D01*
X312176Y206664D01*
X312175Y206664D01*
X312153Y206641D01*
X312098Y206596D01*
X310104Y204602D01*
X310051Y204528D01*
X309991Y204459D01*
X309979Y204429D01*
X309960Y204403D01*
X309933Y204316D01*
X309899Y204231D01*
X309895Y204190D01*
X309888Y204168D01*
X309889Y204135D01*
X309881Y204064D01*
X309881Y199397D01*
X308914Y197063D01*
X304604Y192752D01*
X304551Y192678D01*
X304491Y192609D01*
X304479Y192579D01*
X304460Y192553D01*
X304433Y192466D01*
X304399Y192381D01*
X304395Y192340D01*
X304388Y192318D01*
X304389Y192285D01*
X304381Y192214D01*
X304381Y181195D01*
X301524Y178338D01*
X301512Y178322D01*
X301496Y178310D01*
X301440Y178222D01*
X301380Y178139D01*
X301374Y178120D01*
X301363Y178103D01*
X301338Y178002D01*
X301308Y177903D01*
X301308Y177884D01*
X301303Y177864D01*
X301311Y177761D01*
X301314Y177658D01*
X301321Y177639D01*
X301322Y177619D01*
X301363Y177524D01*
X301398Y177427D01*
X301411Y177411D01*
X301419Y177393D01*
X301524Y177262D01*
X304381Y174405D01*
X304381Y162195D01*
X301274Y159089D01*
X301241Y159072D01*
X301236Y159067D01*
X301231Y159064D01*
X301151Y158980D01*
X301069Y158896D01*
X301065Y158890D01*
X301061Y158886D01*
X301054Y158869D01*
X300988Y158749D01*
X300024Y156423D01*
X299944Y156342D01*
X299900Y156282D01*
X299863Y156243D01*
X299857Y156229D01*
X299831Y156199D01*
X299819Y156169D01*
X299800Y156143D01*
X299773Y156056D01*
X299739Y155971D01*
X299735Y155930D01*
X299728Y155908D01*
X299729Y155875D01*
X299721Y155804D01*
X299721Y137167D01*
X298754Y134833D01*
X298674Y134752D01*
X298621Y134678D01*
X298561Y134609D01*
X298549Y134579D01*
X298530Y134553D01*
X298503Y134466D01*
X298469Y134381D01*
X298465Y134340D01*
X298458Y134318D01*
X298459Y134285D01*
X298451Y134214D01*
X298451Y133743D01*
X298454Y133723D01*
X298452Y133704D01*
X298474Y133602D01*
X298490Y133500D01*
X298500Y133483D01*
X298504Y133463D01*
X298557Y133374D01*
X298606Y133283D01*
X298620Y133269D01*
X298630Y133252D01*
X298709Y133185D01*
X298784Y133113D01*
X298802Y133105D01*
X298817Y133092D01*
X298913Y133053D01*
X299007Y133010D01*
X299027Y133008D01*
X299045Y133000D01*
X299204Y132983D01*
X302181Y130006D01*
X302181Y114796D01*
X301824Y114439D01*
X301812Y114423D01*
X301796Y114411D01*
X301740Y114324D01*
X301680Y114240D01*
X301674Y114221D01*
X301663Y114204D01*
X301638Y114103D01*
X301608Y114004D01*
X301608Y113985D01*
X301603Y113965D01*
X301611Y113862D01*
X301614Y113759D01*
X301621Y113740D01*
X301622Y113720D01*
X301663Y113625D01*
X301698Y113528D01*
X301711Y113512D01*
X301719Y113494D01*
X301824Y113363D01*
X302181Y113005D01*
X302181Y97796D01*
X299203Y94819D01*
X299192Y94817D01*
X299173Y94819D01*
X299071Y94797D01*
X298969Y94781D01*
X298952Y94771D01*
X298932Y94767D01*
X298843Y94714D01*
X298752Y94665D01*
X298738Y94651D01*
X298721Y94641D01*
X298654Y94562D01*
X298582Y94487D01*
X298574Y94469D01*
X298561Y94454D01*
X298522Y94358D01*
X298479Y94264D01*
X298477Y94244D01*
X298469Y94226D01*
X298451Y94059D01*
X298451Y93642D01*
X298465Y93552D01*
X298473Y93461D01*
X298485Y93431D01*
X298490Y93399D01*
X298533Y93318D01*
X298569Y93235D01*
X298595Y93202D01*
X298606Y93182D01*
X298629Y93160D01*
X298674Y93104D01*
X317894Y73884D01*
X317968Y73831D01*
X318037Y73771D01*
X318067Y73759D01*
X318093Y73740D01*
X318180Y73713D01*
X318265Y73679D01*
X318306Y73675D01*
X318328Y73668D01*
X318361Y73669D01*
X318432Y73661D01*
X387688Y73661D01*
X387778Y73675D01*
X387869Y73683D01*
X387899Y73695D01*
X387931Y73700D01*
X388012Y73743D01*
X388095Y73779D01*
X388128Y73805D01*
X388148Y73816D01*
X388170Y73839D01*
X388226Y73884D01*
X399296Y84954D01*
X399349Y85028D01*
X399409Y85097D01*
X399421Y85127D01*
X399440Y85153D01*
X399467Y85240D01*
X399501Y85325D01*
X399505Y85366D01*
X399512Y85388D01*
X399511Y85421D01*
X399519Y85492D01*
X399519Y85505D01*
X402376Y88362D01*
X402388Y88378D01*
X402404Y88390D01*
X402460Y88478D01*
X402520Y88561D01*
X402526Y88580D01*
X402537Y88597D01*
X402562Y88698D01*
X402592Y88797D01*
X402592Y88816D01*
X402597Y88836D01*
X402589Y88939D01*
X402586Y89042D01*
X402579Y89061D01*
X402578Y89081D01*
X402537Y89176D01*
X402502Y89273D01*
X402489Y89289D01*
X402481Y89307D01*
X402376Y89438D01*
X399519Y92295D01*
X399519Y104505D01*
X401096Y106082D01*
X401149Y106156D01*
X401209Y106225D01*
X401221Y106255D01*
X401240Y106281D01*
X401267Y106368D01*
X401301Y106453D01*
X401305Y106494D01*
X401312Y106516D01*
X401311Y106549D01*
X401319Y106620D01*
X401319Y111046D01*
X401305Y111136D01*
X401297Y111227D01*
X401285Y111257D01*
X401280Y111289D01*
X401237Y111369D01*
X401201Y111453D01*
X401175Y111485D01*
X401164Y111506D01*
X401141Y111528D01*
X401096Y111584D01*
X399056Y113624D01*
X397509Y117359D01*
X397509Y121401D01*
X397726Y121923D01*
X397752Y122037D01*
X397781Y122151D01*
X397780Y122157D01*
X397782Y122163D01*
X397771Y122279D01*
X397762Y122396D01*
X397759Y122402D01*
X397759Y122408D01*
X397711Y122515D01*
X397665Y122622D01*
X397661Y122628D01*
X397659Y122633D01*
X397646Y122646D01*
X397561Y122753D01*
X395317Y124997D01*
X395318Y125007D01*
X395296Y125109D01*
X395280Y125211D01*
X395270Y125228D01*
X395266Y125248D01*
X395213Y125337D01*
X395164Y125428D01*
X395150Y125442D01*
X395140Y125459D01*
X395061Y125526D01*
X394986Y125598D01*
X394968Y125606D01*
X394953Y125619D01*
X394857Y125658D01*
X394763Y125701D01*
X394743Y125703D01*
X394725Y125711D01*
X394558Y125729D01*
X392842Y125729D01*
X392822Y125726D01*
X392803Y125728D01*
X392701Y125706D01*
X392599Y125690D01*
X392582Y125680D01*
X392562Y125676D01*
X392473Y125623D01*
X392382Y125574D01*
X392368Y125560D01*
X392351Y125550D01*
X392284Y125471D01*
X392212Y125396D01*
X392204Y125378D01*
X392191Y125363D01*
X392152Y125267D01*
X392109Y125173D01*
X392107Y125153D01*
X392099Y125135D01*
X392084Y124998D01*
X389105Y122018D01*
X372895Y122018D01*
X369919Y124994D01*
X369919Y137204D01*
X372895Y140180D01*
X389105Y140180D01*
X390631Y138654D01*
X390704Y138601D01*
X390774Y138541D01*
X390804Y138529D01*
X390830Y138510D01*
X390917Y138483D01*
X391002Y138449D01*
X391043Y138445D01*
X391065Y138438D01*
X391098Y138439D01*
X391169Y138431D01*
X396231Y138431D01*
X396321Y138445D01*
X396412Y138453D01*
X396442Y138465D01*
X396474Y138470D01*
X396555Y138513D01*
X396638Y138549D01*
X396671Y138575D01*
X396691Y138586D01*
X396713Y138609D01*
X396769Y138654D01*
X398295Y140180D01*
X414505Y140180D01*
X417481Y137204D01*
X417481Y124995D01*
X417035Y124549D01*
X416967Y124454D01*
X416897Y124361D01*
X416895Y124355D01*
X416892Y124349D01*
X416858Y124238D01*
X416821Y124127D01*
X416821Y124120D01*
X416819Y124114D01*
X416823Y123997D01*
X416824Y123881D01*
X416826Y123873D01*
X416826Y123868D01*
X416832Y123851D01*
X416870Y123720D01*
X417831Y121401D01*
X417831Y117359D01*
X416284Y113624D01*
X414244Y111584D01*
X414191Y111510D01*
X414131Y111441D01*
X414119Y111411D01*
X414100Y111384D01*
X414073Y111298D01*
X414039Y111213D01*
X414035Y111172D01*
X414028Y111149D01*
X414029Y111117D01*
X414021Y111046D01*
X414021Y110896D01*
X414024Y110878D01*
X414022Y110862D01*
X414036Y110795D01*
X414043Y110715D01*
X414055Y110685D01*
X414060Y110653D01*
X414072Y110632D01*
X414074Y110621D01*
X414102Y110574D01*
X414103Y110572D01*
X414139Y110488D01*
X414165Y110456D01*
X414176Y110436D01*
X414197Y110415D01*
X414200Y110410D01*
X414204Y110407D01*
X414244Y110358D01*
X414324Y110277D01*
X415288Y107951D01*
X415350Y107851D01*
X415409Y107751D01*
X415414Y107747D01*
X415417Y107742D01*
X415508Y107667D01*
X415582Y107603D01*
X418681Y104505D01*
X418681Y92295D01*
X415824Y89438D01*
X415812Y89422D01*
X415796Y89410D01*
X415740Y89322D01*
X415680Y89239D01*
X415674Y89220D01*
X415663Y89203D01*
X415638Y89102D01*
X415608Y89003D01*
X415608Y88984D01*
X415603Y88964D01*
X415611Y88861D01*
X415614Y88758D01*
X415621Y88739D01*
X415622Y88719D01*
X415663Y88624D01*
X415698Y88527D01*
X415711Y88511D01*
X415719Y88493D01*
X415824Y88362D01*
X418681Y85505D01*
X418681Y76282D01*
X418695Y76192D01*
X418703Y76101D01*
X418715Y76071D01*
X418720Y76039D01*
X418763Y75958D01*
X418799Y75875D01*
X418825Y75842D01*
X418836Y75822D01*
X418859Y75800D01*
X418904Y75744D01*
X419211Y75437D01*
X420051Y73409D01*
X420085Y73353D01*
X420111Y73293D01*
X420163Y73228D01*
X420180Y73200D01*
X420195Y73187D01*
X420216Y73162D01*
X423558Y69820D01*
X423574Y69808D01*
X423586Y69792D01*
X423674Y69736D01*
X423758Y69676D01*
X423777Y69670D01*
X423793Y69659D01*
X423894Y69634D01*
X423993Y69604D01*
X424013Y69604D01*
X424032Y69599D01*
X424135Y69607D01*
X424238Y69610D01*
X424257Y69617D01*
X424277Y69618D01*
X424372Y69659D01*
X424469Y69694D01*
X424485Y69707D01*
X424503Y69715D01*
X424634Y69820D01*
X424696Y69881D01*
X425818Y69881D01*
X425908Y69895D01*
X425999Y69903D01*
X426029Y69915D01*
X426061Y69920D01*
X426142Y69963D01*
X426225Y69999D01*
X426258Y70025D01*
X426278Y70036D01*
X426300Y70059D01*
X426356Y70104D01*
X458246Y101994D01*
X458289Y102053D01*
X458333Y102099D01*
X458341Y102116D01*
X458359Y102137D01*
X458371Y102167D01*
X458390Y102193D01*
X458416Y102277D01*
X458437Y102323D01*
X458438Y102333D01*
X458451Y102365D01*
X458455Y102406D01*
X458462Y102428D01*
X458461Y102461D01*
X458469Y102532D01*
X458469Y155278D01*
X458455Y155368D01*
X458447Y155459D01*
X458435Y155489D01*
X458430Y155521D01*
X458387Y155602D01*
X458351Y155685D01*
X458325Y155718D01*
X458314Y155738D01*
X458291Y155760D01*
X458246Y155816D01*
X451726Y162336D01*
X451652Y162389D01*
X451583Y162449D01*
X451553Y162461D01*
X451527Y162480D01*
X451440Y162507D01*
X451355Y162541D01*
X451314Y162545D01*
X451292Y162552D01*
X451259Y162551D01*
X451188Y162559D01*
X449334Y162559D01*
X446533Y163719D01*
X416449Y193803D01*
X415289Y196604D01*
X415289Y359748D01*
X415275Y359838D01*
X415267Y359929D01*
X415255Y359959D01*
X415250Y359991D01*
X415207Y360072D01*
X415171Y360155D01*
X415145Y360188D01*
X415134Y360208D01*
X415111Y360230D01*
X415066Y360286D01*
X387239Y388113D01*
X386079Y390914D01*
X386079Y394208D01*
X386076Y394228D01*
X386078Y394247D01*
X386056Y394349D01*
X386040Y394451D01*
X386030Y394468D01*
X386026Y394488D01*
X385973Y394577D01*
X385924Y394668D01*
X385910Y394682D01*
X385900Y394699D01*
X385821Y394766D01*
X385746Y394838D01*
X385728Y394846D01*
X385713Y394859D01*
X385617Y394898D01*
X385523Y394941D01*
X385503Y394943D01*
X385485Y394951D01*
X385318Y394969D01*
X378095Y394969D01*
X375119Y397945D01*
X375119Y427655D01*
X378095Y430631D01*
X409305Y430631D01*
X412281Y427655D01*
X412281Y397945D01*
X409305Y394969D01*
X403776Y394969D01*
X403705Y394958D01*
X403633Y394956D01*
X403584Y394938D01*
X403533Y394930D01*
X403470Y394896D01*
X403402Y394871D01*
X403362Y394839D01*
X403316Y394814D01*
X403266Y394763D01*
X403210Y394718D01*
X403182Y394674D01*
X403146Y394636D01*
X403116Y394571D01*
X403077Y394511D01*
X403065Y394460D01*
X403043Y394413D01*
X403035Y394342D01*
X403017Y394272D01*
X403021Y394220D01*
X403016Y394169D01*
X403031Y394098D01*
X403036Y394027D01*
X403057Y393979D01*
X403068Y393928D01*
X403105Y393867D01*
X403133Y393801D01*
X403178Y393745D01*
X403194Y393717D01*
X403212Y393702D01*
X403238Y393670D01*
X418255Y378653D01*
X418292Y378626D01*
X418323Y378592D01*
X418391Y378554D01*
X418454Y378509D01*
X418498Y378496D01*
X418539Y378473D01*
X418615Y378460D01*
X418690Y378437D01*
X418735Y378438D01*
X418781Y378430D01*
X418858Y378441D01*
X418935Y378443D01*
X418979Y378459D01*
X419024Y378466D01*
X419093Y378501D01*
X419166Y378528D01*
X419202Y378556D01*
X419243Y378577D01*
X419298Y378633D01*
X419358Y378681D01*
X419383Y378720D01*
X419415Y378753D01*
X419481Y378872D01*
X419491Y378888D01*
X419493Y378893D01*
X419496Y378900D01*
X420646Y381676D01*
X423504Y384534D01*
X427239Y386081D01*
X431281Y386081D01*
X431741Y385890D01*
X431855Y385864D01*
X431968Y385835D01*
X431974Y385836D01*
X431980Y385834D01*
X432096Y385845D01*
X432213Y385854D01*
X432219Y385857D01*
X432225Y385857D01*
X432332Y385905D01*
X432439Y385951D01*
X432445Y385955D01*
X432450Y385957D01*
X432463Y385970D01*
X432570Y386055D01*
X435045Y388531D01*
X453955Y388531D01*
X456931Y385555D01*
X456931Y368645D01*
X453955Y365669D01*
X435045Y365669D01*
X434239Y366476D01*
X434146Y366542D01*
X434113Y366571D01*
X434102Y366575D01*
X434050Y366614D01*
X434044Y366616D01*
X434039Y366619D01*
X433928Y366654D01*
X433816Y366690D01*
X433810Y366690D01*
X433804Y366692D01*
X433687Y366689D01*
X433570Y366688D01*
X433563Y366685D01*
X433558Y366685D01*
X433541Y366679D01*
X433409Y366641D01*
X431281Y365759D01*
X431246Y365759D01*
X431201Y365752D01*
X431155Y365754D01*
X431080Y365732D01*
X431003Y365720D01*
X430963Y365698D01*
X430919Y365685D01*
X430855Y365641D01*
X430786Y365604D01*
X430754Y365571D01*
X430717Y365545D01*
X430670Y365482D01*
X430617Y365426D01*
X430597Y365384D01*
X430570Y365348D01*
X430546Y365274D01*
X430513Y365203D01*
X430508Y365157D01*
X430494Y365114D01*
X430494Y365036D01*
X430486Y364959D01*
X430496Y364914D01*
X430496Y364868D01*
X430531Y364748D01*
X430531Y308483D01*
X430538Y308438D01*
X430536Y308391D01*
X430558Y308317D01*
X430570Y308241D01*
X430592Y308200D01*
X430605Y308155D01*
X430649Y308092D01*
X430686Y308023D01*
X430719Y307991D01*
X430745Y307953D01*
X430808Y307907D01*
X430864Y307854D01*
X430906Y307834D01*
X430943Y307807D01*
X431017Y307783D01*
X431087Y307750D01*
X431133Y307745D01*
X431177Y307731D01*
X431254Y307732D01*
X431331Y307723D01*
X431377Y307733D01*
X431423Y307733D01*
X431553Y307771D01*
X431572Y307775D01*
X431576Y307778D01*
X431584Y307780D01*
X431600Y307787D01*
X431699Y307848D01*
X431799Y307908D01*
X431803Y307913D01*
X431809Y307917D01*
X431883Y308006D01*
X431959Y308095D01*
X431961Y308101D01*
X431966Y308106D01*
X432007Y308215D01*
X432051Y308323D01*
X432052Y308331D01*
X432054Y308336D01*
X432054Y308355D01*
X432069Y308490D01*
X432069Y322055D01*
X435123Y325108D01*
X435134Y325124D01*
X435150Y325137D01*
X435206Y325223D01*
X435266Y325307D01*
X435272Y325327D01*
X435283Y325343D01*
X435308Y325444D01*
X435338Y325543D01*
X435338Y325563D01*
X435343Y325582D01*
X435335Y325685D01*
X435332Y325788D01*
X435325Y325807D01*
X435324Y325827D01*
X435283Y325922D01*
X435248Y326019D01*
X435235Y326035D01*
X435227Y326054D01*
X435122Y326184D01*
X435117Y326190D01*
X434782Y326769D01*
X434609Y327416D01*
X434609Y332577D01*
X443738Y332577D01*
X443758Y332580D01*
X443777Y332578D01*
X443879Y332600D01*
X443981Y332617D01*
X443998Y332626D01*
X444018Y332630D01*
X444107Y332683D01*
X444198Y332732D01*
X444212Y332746D01*
X444229Y332756D01*
X444296Y332835D01*
X444367Y332910D01*
X444376Y332928D01*
X444389Y332943D01*
X444428Y333039D01*
X444471Y333133D01*
X444473Y333153D01*
X444481Y333171D01*
X444499Y333338D01*
X444499Y334101D01*
X444501Y334101D01*
X444501Y333338D01*
X444504Y333318D01*
X444502Y333299D01*
X444524Y333197D01*
X444541Y333095D01*
X444550Y333078D01*
X444554Y333058D01*
X444607Y332969D01*
X444656Y332878D01*
X444670Y332864D01*
X444680Y332847D01*
X444759Y332780D01*
X444834Y332709D01*
X444852Y332700D01*
X444867Y332687D01*
X444963Y332648D01*
X445057Y332605D01*
X445077Y332603D01*
X445095Y332595D01*
X445262Y332577D01*
X454391Y332577D01*
X454391Y327416D01*
X454218Y326769D01*
X453883Y326190D01*
X453878Y326184D01*
X453866Y326168D01*
X453850Y326156D01*
X453794Y326069D01*
X453734Y325985D01*
X453728Y325966D01*
X453717Y325949D01*
X453692Y325848D01*
X453662Y325750D01*
X453662Y325730D01*
X453657Y325710D01*
X453665Y325607D01*
X453668Y325504D01*
X453675Y325485D01*
X453676Y325465D01*
X453717Y325370D01*
X453752Y325273D01*
X453765Y325257D01*
X453773Y325239D01*
X453877Y325108D01*
X456931Y322055D01*
X456931Y305145D01*
X453955Y302169D01*
X448626Y302169D01*
X448536Y302155D01*
X448445Y302147D01*
X448415Y302135D01*
X448383Y302130D01*
X448302Y302087D01*
X448219Y302051D01*
X448186Y302025D01*
X448166Y302014D01*
X448144Y301991D01*
X448088Y301946D01*
X445994Y299852D01*
X445941Y299778D01*
X445881Y299709D01*
X445869Y299679D01*
X445850Y299653D01*
X445823Y299566D01*
X445789Y299481D01*
X445785Y299440D01*
X445778Y299418D01*
X445779Y299385D01*
X445771Y299314D01*
X445771Y296429D01*
X444224Y292694D01*
X441366Y289836D01*
X437631Y288289D01*
X433589Y288289D01*
X431583Y289120D01*
X431539Y289131D01*
X431497Y289150D01*
X431420Y289158D01*
X431344Y289176D01*
X431298Y289172D01*
X431253Y289177D01*
X431176Y289160D01*
X431099Y289153D01*
X431057Y289134D01*
X431012Y289125D01*
X430945Y289085D01*
X430874Y289053D01*
X430840Y289022D01*
X430801Y288999D01*
X430750Y288939D01*
X430693Y288887D01*
X430671Y288846D01*
X430641Y288812D01*
X430612Y288739D01*
X430575Y288671D01*
X430566Y288626D01*
X430549Y288583D01*
X430534Y288448D01*
X430531Y288429D01*
X430532Y288424D01*
X430531Y288417D01*
X430531Y239006D01*
X430546Y238910D01*
X430556Y238813D01*
X430566Y238789D01*
X430570Y238763D01*
X430616Y238677D01*
X430656Y238588D01*
X430673Y238569D01*
X430686Y238545D01*
X430756Y238478D01*
X430822Y238407D01*
X430845Y238394D01*
X430864Y238376D01*
X430952Y238335D01*
X431038Y238288D01*
X431063Y238283D01*
X431087Y238272D01*
X431184Y238262D01*
X431280Y238244D01*
X431306Y238248D01*
X431331Y238245D01*
X431427Y238266D01*
X431523Y238280D01*
X431546Y238292D01*
X431572Y238298D01*
X431655Y238348D01*
X431742Y238392D01*
X431761Y238410D01*
X431783Y238424D01*
X431846Y238498D01*
X431914Y238567D01*
X431930Y238596D01*
X431943Y238611D01*
X431955Y238641D01*
X431995Y238714D01*
X433346Y241976D01*
X436204Y244834D01*
X439939Y246381D01*
X443981Y246381D01*
X444441Y246190D01*
X444555Y246164D01*
X444668Y246135D01*
X444674Y246136D01*
X444680Y246134D01*
X444796Y246145D01*
X444913Y246154D01*
X444919Y246157D01*
X444925Y246157D01*
X445032Y246205D01*
X445139Y246251D01*
X445145Y246255D01*
X445150Y246257D01*
X445163Y246270D01*
X445270Y246355D01*
X447745Y248831D01*
X466655Y248831D01*
X469631Y245855D01*
X469631Y228945D01*
X466655Y225969D01*
X447745Y225969D01*
X446939Y226776D01*
X446845Y226843D01*
X446750Y226914D01*
X446744Y226916D01*
X446739Y226919D01*
X446628Y226953D01*
X446516Y226990D01*
X446510Y226990D01*
X446504Y226992D01*
X446387Y226989D01*
X446270Y226988D01*
X446263Y226985D01*
X446258Y226985D01*
X446241Y226979D01*
X446109Y226941D01*
X443981Y226059D01*
X439939Y226059D01*
X436204Y227606D01*
X433346Y230464D01*
X431995Y233726D01*
X431944Y233809D01*
X431898Y233895D01*
X431880Y233912D01*
X431866Y233935D01*
X431790Y233997D01*
X431720Y234064D01*
X431696Y234075D01*
X431676Y234092D01*
X431585Y234127D01*
X431497Y234168D01*
X431471Y234170D01*
X431447Y234180D01*
X431349Y234184D01*
X431253Y234195D01*
X431227Y234189D01*
X431201Y234190D01*
X431107Y234163D01*
X431012Y234142D01*
X430990Y234129D01*
X430965Y234122D01*
X430885Y234066D01*
X430801Y234016D01*
X430784Y233996D01*
X430763Y233981D01*
X430704Y233903D01*
X430641Y233829D01*
X430631Y233805D01*
X430616Y233784D01*
X430586Y233692D01*
X430549Y233601D01*
X430546Y233569D01*
X430540Y233550D01*
X430540Y233517D01*
X430531Y233434D01*
X430531Y201592D01*
X430545Y201502D01*
X430553Y201411D01*
X430565Y201381D01*
X430570Y201349D01*
X430613Y201268D01*
X430649Y201185D01*
X430675Y201152D01*
X430686Y201132D01*
X430709Y201110D01*
X430754Y201054D01*
X453784Y178024D01*
X453858Y177971D01*
X453927Y177911D01*
X453957Y177899D01*
X453983Y177880D01*
X454070Y177853D01*
X454155Y177819D01*
X454196Y177815D01*
X454218Y177808D01*
X454251Y177809D01*
X454322Y177801D01*
X456176Y177801D01*
X458977Y176641D01*
X472551Y163067D01*
X473711Y160266D01*
X473711Y97544D01*
X472551Y94743D01*
X442104Y64296D01*
X442051Y64222D01*
X441991Y64153D01*
X441979Y64123D01*
X441960Y64097D01*
X441933Y64010D01*
X441899Y63925D01*
X441895Y63884D01*
X441888Y63862D01*
X441889Y63829D01*
X441881Y63758D01*
X441881Y51696D01*
X441524Y51338D01*
X441512Y51322D01*
X441496Y51310D01*
X441440Y51223D01*
X441380Y51139D01*
X441374Y51120D01*
X441363Y51103D01*
X441338Y51002D01*
X441308Y50903D01*
X441308Y50884D01*
X441303Y50864D01*
X441311Y50761D01*
X441314Y50658D01*
X441321Y50639D01*
X441322Y50619D01*
X441363Y50524D01*
X441398Y50427D01*
X441411Y50411D01*
X441419Y50393D01*
X441524Y50262D01*
X441881Y49905D01*
X441881Y49022D01*
X441884Y49002D01*
X441882Y48983D01*
X441904Y48881D01*
X441920Y48779D01*
X441930Y48762D01*
X441934Y48742D01*
X441987Y48653D01*
X442036Y48562D01*
X442050Y48548D01*
X442060Y48531D01*
X442139Y48464D01*
X442214Y48392D01*
X442232Y48384D01*
X442247Y48371D01*
X442343Y48332D01*
X442437Y48289D01*
X442457Y48287D01*
X442475Y48279D01*
X442642Y48261D01*
X447904Y48261D01*
X447994Y48275D01*
X448085Y48283D01*
X448115Y48295D01*
X448147Y48300D01*
X448228Y48343D01*
X448311Y48379D01*
X448344Y48405D01*
X448364Y48416D01*
X448386Y48439D01*
X448442Y48484D01*
X454873Y54914D01*
X457224Y55888D01*
X457295Y55900D01*
X457411Y55917D01*
X457417Y55919D01*
X457423Y55920D01*
X457526Y55975D01*
X457630Y56028D01*
X457635Y56033D01*
X457640Y56036D01*
X457720Y56120D01*
X457803Y56204D01*
X457806Y56210D01*
X457810Y56214D01*
X457817Y56231D01*
X457883Y56351D01*
X459564Y60407D01*
X462993Y63836D01*
X464148Y64315D01*
X464238Y64370D01*
X464330Y64421D01*
X464342Y64435D01*
X464357Y64444D01*
X464425Y64526D01*
X464495Y64603D01*
X464502Y64620D01*
X464514Y64634D01*
X464552Y64732D01*
X464594Y64828D01*
X464596Y64847D01*
X464602Y64864D01*
X464607Y64969D01*
X464616Y65073D01*
X464612Y65091D01*
X464613Y65109D01*
X464583Y65210D01*
X464559Y65313D01*
X464549Y65328D01*
X464544Y65346D01*
X464484Y65432D01*
X464428Y65521D01*
X464412Y65536D01*
X464404Y65548D01*
X464378Y65567D01*
X464304Y65634D01*
X463612Y66137D01*
X462537Y67212D01*
X461644Y68441D01*
X460954Y69795D01*
X460485Y71240D01*
X460368Y71977D01*
X469138Y71977D01*
X469158Y71980D01*
X469177Y71978D01*
X469279Y72000D01*
X469381Y72017D01*
X469398Y72026D01*
X469418Y72030D01*
X469507Y72083D01*
X469598Y72132D01*
X469612Y72146D01*
X469629Y72156D01*
X469696Y72235D01*
X469767Y72310D01*
X469776Y72328D01*
X469789Y72343D01*
X469827Y72439D01*
X469871Y72533D01*
X469873Y72553D01*
X469881Y72571D01*
X469899Y72738D01*
X469899Y73501D01*
X469901Y73501D01*
X469901Y72738D01*
X469904Y72718D01*
X469902Y72699D01*
X469924Y72597D01*
X469941Y72495D01*
X469950Y72478D01*
X469954Y72458D01*
X470007Y72369D01*
X470056Y72278D01*
X470070Y72264D01*
X470080Y72247D01*
X470159Y72180D01*
X470234Y72109D01*
X470252Y72100D01*
X470267Y72087D01*
X470363Y72048D01*
X470457Y72005D01*
X470477Y72003D01*
X470495Y71995D01*
X470662Y71977D01*
X479432Y71977D01*
X479315Y71240D01*
X478846Y69795D01*
X478156Y68441D01*
X477263Y67212D01*
X476188Y66137D01*
X475496Y65634D01*
X475422Y65559D01*
X475344Y65488D01*
X475335Y65472D01*
X475323Y65459D01*
X475276Y65365D01*
X475226Y65273D01*
X475222Y65255D01*
X475214Y65238D01*
X475201Y65134D01*
X475182Y65031D01*
X475185Y65013D01*
X475182Y64995D01*
X475202Y64891D01*
X475218Y64787D01*
X475226Y64771D01*
X475229Y64753D01*
X475282Y64662D01*
X475329Y64568D01*
X475342Y64555D01*
X475351Y64539D01*
X475430Y64469D01*
X475505Y64396D01*
X475524Y64385D01*
X475535Y64376D01*
X475564Y64363D01*
X475652Y64315D01*
X476807Y63836D01*
X480236Y60407D01*
X482093Y55925D01*
X482093Y51075D01*
X480236Y46593D01*
X476807Y43164D01*
X472325Y41307D01*
X467475Y41307D01*
X462906Y43200D01*
X462817Y43221D01*
X462730Y43249D01*
X462698Y43249D01*
X462666Y43256D01*
X462575Y43247D01*
X462484Y43247D01*
X462445Y43235D01*
X462421Y43233D01*
X462392Y43220D01*
X462323Y43200D01*
X462273Y43179D01*
X461416Y43179D01*
X461326Y43165D01*
X461235Y43157D01*
X461205Y43145D01*
X461173Y43140D01*
X461092Y43097D01*
X461009Y43061D01*
X460976Y43035D01*
X460956Y43024D01*
X460934Y43001D01*
X460878Y42956D01*
X454447Y36526D01*
X452113Y35559D01*
X442642Y35559D01*
X442622Y35556D01*
X442603Y35558D01*
X442501Y35536D01*
X442399Y35520D01*
X442382Y35510D01*
X442362Y35506D01*
X442273Y35453D01*
X442182Y35404D01*
X442168Y35390D01*
X442151Y35380D01*
X442084Y35301D01*
X442012Y35226D01*
X442004Y35208D01*
X441991Y35193D01*
X441952Y35097D01*
X441909Y35003D01*
X441907Y34983D01*
X441899Y34965D01*
X441881Y34798D01*
X441881Y34695D01*
X438905Y31719D01*
X424695Y31719D01*
X421719Y34695D01*
X421719Y34798D01*
X421717Y34809D01*
X421718Y34816D01*
X421717Y34823D01*
X421718Y34837D01*
X421696Y34939D01*
X421680Y35041D01*
X421670Y35058D01*
X421666Y35078D01*
X421613Y35167D01*
X421564Y35258D01*
X421550Y35272D01*
X421540Y35289D01*
X421461Y35356D01*
X421386Y35428D01*
X421368Y35436D01*
X421353Y35449D01*
X421257Y35488D01*
X421163Y35531D01*
X421143Y35533D01*
X421125Y35541D01*
X420958Y35559D01*
X405892Y35559D01*
X405872Y35556D01*
X405853Y35558D01*
X405751Y35536D01*
X405649Y35520D01*
X405632Y35510D01*
X405612Y35506D01*
X405523Y35453D01*
X405432Y35404D01*
X405418Y35390D01*
X405401Y35380D01*
X405334Y35301D01*
X405262Y35226D01*
X405254Y35208D01*
X405241Y35193D01*
X405202Y35097D01*
X405159Y35003D01*
X405157Y34983D01*
X405149Y34965D01*
X405131Y34798D01*
X405131Y22495D01*
X402155Y19519D01*
X372445Y19519D01*
X369469Y22495D01*
X369469Y53705D01*
X372445Y56681D01*
X402155Y56681D01*
X405131Y53705D01*
X405131Y49022D01*
X405134Y49002D01*
X405132Y48983D01*
X405154Y48881D01*
X405170Y48779D01*
X405180Y48762D01*
X405184Y48742D01*
X405237Y48653D01*
X405286Y48562D01*
X405300Y48548D01*
X405310Y48531D01*
X405389Y48464D01*
X405464Y48392D01*
X405482Y48384D01*
X405497Y48371D01*
X405593Y48332D01*
X405687Y48289D01*
X405707Y48287D01*
X405725Y48279D01*
X405892Y48261D01*
X420958Y48261D01*
X420978Y48264D01*
X420997Y48262D01*
X421099Y48284D01*
X421201Y48300D01*
X421218Y48310D01*
X421238Y48314D01*
X421327Y48367D01*
X421418Y48416D01*
X421432Y48430D01*
X421449Y48440D01*
X421516Y48519D01*
X421588Y48594D01*
X421596Y48612D01*
X421609Y48627D01*
X421648Y48723D01*
X421691Y48817D01*
X421693Y48837D01*
X421701Y48855D01*
X421719Y49022D01*
X421719Y49905D01*
X422076Y50262D01*
X422088Y50278D01*
X422104Y50290D01*
X422160Y50377D01*
X422220Y50461D01*
X422226Y50480D01*
X422237Y50497D01*
X422262Y50598D01*
X422292Y50697D01*
X422292Y50716D01*
X422297Y50736D01*
X422289Y50839D01*
X422286Y50942D01*
X422279Y50961D01*
X422278Y50981D01*
X422237Y51076D01*
X422202Y51173D01*
X422189Y51189D01*
X422181Y51207D01*
X422076Y51338D01*
X421719Y51696D01*
X421719Y52478D01*
X421701Y52592D01*
X421683Y52709D01*
X421681Y52715D01*
X421680Y52721D01*
X421625Y52823D01*
X421572Y52928D01*
X421567Y52933D01*
X421564Y52938D01*
X421480Y53018D01*
X421396Y53101D01*
X421390Y53104D01*
X421386Y53108D01*
X421369Y53115D01*
X421249Y53181D01*
X421008Y53281D01*
X420944Y53296D01*
X420883Y53321D01*
X420801Y53330D01*
X420769Y53338D01*
X420749Y53336D01*
X420717Y53339D01*
X420124Y53339D01*
X417323Y54499D01*
X406289Y65533D01*
X405449Y67561D01*
X405415Y67617D01*
X405389Y67677D01*
X405337Y67742D01*
X405320Y67770D01*
X405305Y67783D01*
X405284Y67808D01*
X405033Y68059D01*
X405017Y68071D01*
X405005Y68087D01*
X404937Y68130D01*
X404901Y68161D01*
X404881Y68169D01*
X404833Y68203D01*
X404815Y68209D01*
X404798Y68220D01*
X404697Y68245D01*
X404677Y68251D01*
X404673Y68253D01*
X404671Y68253D01*
X404598Y68275D01*
X404579Y68275D01*
X404559Y68280D01*
X404456Y68272D01*
X404353Y68269D01*
X404334Y68262D01*
X404314Y68261D01*
X404249Y68233D01*
X404241Y68232D01*
X404222Y68221D01*
X404219Y68220D01*
X404122Y68184D01*
X404106Y68172D01*
X404088Y68164D01*
X404036Y68123D01*
X404024Y68116D01*
X404010Y68102D01*
X403957Y68059D01*
X397728Y61830D01*
X395477Y59579D01*
X392676Y58419D01*
X325882Y58419D01*
X325862Y58416D01*
X325843Y58418D01*
X325741Y58396D01*
X325639Y58380D01*
X325622Y58370D01*
X325602Y58366D01*
X325513Y58313D01*
X325422Y58264D01*
X325408Y58250D01*
X325391Y58240D01*
X325324Y58161D01*
X325252Y58086D01*
X325244Y58068D01*
X325231Y58053D01*
X325192Y57957D01*
X325149Y57863D01*
X325147Y57843D01*
X325139Y57825D01*
X325121Y57658D01*
X325121Y57442D01*
X325124Y57422D01*
X325122Y57403D01*
X325144Y57301D01*
X325160Y57199D01*
X325170Y57182D01*
X325174Y57162D01*
X325227Y57073D01*
X325276Y56982D01*
X325290Y56968D01*
X325300Y56951D01*
X325379Y56884D01*
X325454Y56812D01*
X325472Y56804D01*
X325487Y56791D01*
X325583Y56752D01*
X325677Y56709D01*
X325697Y56707D01*
X325715Y56699D01*
X325882Y56681D01*
X338755Y56681D01*
X341731Y53705D01*
X341731Y22495D01*
X338755Y19519D01*
X309045Y19519D01*
X306069Y22495D01*
X306069Y53705D01*
X309045Y56681D01*
X309118Y56681D01*
X309138Y56684D01*
X309157Y56682D01*
X309259Y56704D01*
X309361Y56720D01*
X309378Y56730D01*
X309398Y56734D01*
X309487Y56787D01*
X309578Y56836D01*
X309592Y56850D01*
X309609Y56860D01*
X309676Y56939D01*
X309748Y57014D01*
X309756Y57032D01*
X309769Y57047D01*
X309808Y57143D01*
X309851Y57237D01*
X309853Y57257D01*
X309861Y57275D01*
X309879Y57442D01*
X309879Y60028D01*
X309865Y60118D01*
X309857Y60209D01*
X309845Y60239D01*
X309840Y60271D01*
X309797Y60352D01*
X309761Y60435D01*
X309735Y60468D01*
X309724Y60488D01*
X309701Y60510D01*
X309656Y60566D01*
X291500Y78723D01*
X291408Y78789D01*
X291373Y78818D01*
X291362Y78823D01*
X291311Y78861D01*
X291305Y78863D01*
X291300Y78866D01*
X291189Y78901D01*
X291077Y78937D01*
X291071Y78937D01*
X291065Y78939D01*
X290948Y78936D01*
X290831Y78935D01*
X290824Y78933D01*
X290819Y78932D01*
X290801Y78926D01*
X290670Y78888D01*
X290311Y78739D01*
X286269Y78739D01*
X282534Y80286D01*
X279676Y83144D01*
X278129Y86879D01*
X278129Y90921D01*
X279676Y94656D01*
X281880Y96859D01*
X281892Y96876D01*
X281907Y96888D01*
X281963Y96975D01*
X282023Y97059D01*
X282029Y97078D01*
X282040Y97095D01*
X282065Y97196D01*
X282096Y97294D01*
X282095Y97314D01*
X282100Y97334D01*
X282092Y97437D01*
X282089Y97540D01*
X282083Y97559D01*
X282081Y97579D01*
X282041Y97674D01*
X282019Y97732D01*
X282019Y113005D01*
X282376Y113363D01*
X282388Y113379D01*
X282404Y113391D01*
X282460Y113478D01*
X282520Y113562D01*
X282526Y113581D01*
X282537Y113598D01*
X282562Y113699D01*
X282592Y113798D01*
X282592Y113817D01*
X282597Y113837D01*
X282589Y113940D01*
X282586Y114043D01*
X282579Y114062D01*
X282578Y114082D01*
X282537Y114177D01*
X282502Y114274D01*
X282489Y114290D01*
X282481Y114308D01*
X282376Y114439D01*
X282019Y114796D01*
X282019Y114808D01*
X282016Y114828D01*
X282018Y114847D01*
X281996Y114949D01*
X281980Y115051D01*
X281970Y115068D01*
X281966Y115088D01*
X281913Y115177D01*
X281864Y115268D01*
X281850Y115282D01*
X281840Y115299D01*
X281761Y115366D01*
X281686Y115438D01*
X281668Y115446D01*
X281653Y115459D01*
X281557Y115498D01*
X281463Y115541D01*
X281443Y115543D01*
X281425Y115551D01*
X281258Y115569D01*
X281076Y115569D01*
X280986Y115555D01*
X280895Y115547D01*
X280865Y115535D01*
X280833Y115530D01*
X280753Y115487D01*
X280669Y115451D01*
X280636Y115425D01*
X280616Y115414D01*
X280594Y115391D01*
X280538Y115346D01*
X280446Y115255D01*
X279624Y114432D01*
X279571Y114358D01*
X279511Y114289D01*
X279499Y114259D01*
X279480Y114233D01*
X279453Y114146D01*
X279419Y114061D01*
X279415Y114020D01*
X279408Y113998D01*
X279409Y113965D01*
X279401Y113894D01*
X279401Y111767D01*
X278434Y109433D01*
X277084Y108082D01*
X277031Y108008D01*
X276971Y107939D01*
X276959Y107909D01*
X276940Y107883D01*
X276913Y107796D01*
X276879Y107711D01*
X276875Y107670D01*
X276868Y107648D01*
X276869Y107615D01*
X276861Y107544D01*
X276861Y96527D01*
X275894Y94193D01*
X274000Y92299D01*
X271905Y90203D01*
X271852Y90129D01*
X271792Y90060D01*
X271780Y90030D01*
X271761Y90004D01*
X271734Y89917D01*
X271700Y89832D01*
X271696Y89791D01*
X271689Y89769D01*
X271690Y89736D01*
X271682Y89665D01*
X271682Y80795D01*
X268706Y77819D01*
X256496Y77819D01*
X253520Y80795D01*
X253520Y97004D01*
X253576Y97061D01*
X253618Y97119D01*
X253668Y97171D01*
X253690Y97218D01*
X253720Y97260D01*
X253741Y97329D01*
X253771Y97394D01*
X253777Y97446D01*
X253792Y97496D01*
X253791Y97567D01*
X253798Y97638D01*
X253787Y97689D01*
X253786Y97741D01*
X253761Y97809D01*
X253746Y97879D01*
X253719Y97924D01*
X253702Y97972D01*
X253657Y98028D01*
X253620Y98090D01*
X253580Y98124D01*
X253548Y98164D01*
X253488Y98203D01*
X253433Y98250D01*
X253385Y98269D01*
X253341Y98297D01*
X253272Y98315D01*
X253205Y98342D01*
X253134Y98350D01*
X253103Y98358D01*
X253079Y98356D01*
X253038Y98360D01*
X250530Y98360D01*
X250483Y98353D01*
X250435Y98354D01*
X250362Y98333D01*
X250287Y98321D01*
X250245Y98298D01*
X250199Y98284D01*
X250137Y98241D01*
X250070Y98205D01*
X250037Y98171D01*
X249998Y98143D01*
X249953Y98082D01*
X249901Y98027D01*
X249880Y97984D01*
X249852Y97945D01*
X249829Y97873D01*
X249797Y97804D01*
X249792Y97756D01*
X249777Y97711D01*
X249778Y97635D01*
X249770Y97560D01*
X249780Y97513D01*
X249781Y97465D01*
X249806Y97393D01*
X249822Y97319D01*
X249847Y97278D01*
X249863Y97233D01*
X249910Y97173D01*
X249948Y97108D01*
X249985Y97077D01*
X250014Y97039D01*
X250118Y96963D01*
X250135Y96948D01*
X250141Y96946D01*
X250150Y96940D01*
X250161Y96933D01*
X250634Y96460D01*
X250969Y95881D01*
X251142Y95234D01*
X251142Y90423D01*
X246124Y90423D01*
X246124Y97448D01*
X246166Y97447D01*
X246239Y97468D01*
X246314Y97480D01*
X246356Y97503D01*
X246402Y97517D01*
X246464Y97560D01*
X246531Y97596D01*
X246564Y97630D01*
X246603Y97658D01*
X246648Y97719D01*
X246700Y97774D01*
X246721Y97818D01*
X246749Y97856D01*
X246772Y97928D01*
X246804Y97997D01*
X246809Y98045D01*
X246824Y98091D01*
X246823Y98166D01*
X246831Y98241D01*
X246821Y98288D01*
X246820Y98336D01*
X246795Y98408D01*
X246779Y98482D01*
X246754Y98523D01*
X246738Y98568D01*
X246692Y98628D01*
X246653Y98693D01*
X246616Y98724D01*
X246587Y98762D01*
X246483Y98838D01*
X246466Y98853D01*
X246460Y98855D01*
X246451Y98861D01*
X246440Y98868D01*
X245967Y99341D01*
X245632Y99920D01*
X245459Y100567D01*
X245459Y103378D01*
X253238Y103378D01*
X253258Y103381D01*
X253277Y103379D01*
X253379Y103401D01*
X253481Y103418D01*
X253498Y103427D01*
X253518Y103431D01*
X253607Y103484D01*
X253698Y103533D01*
X253712Y103547D01*
X253729Y103557D01*
X253796Y103636D01*
X253867Y103711D01*
X253876Y103729D01*
X253889Y103744D01*
X253928Y103840D01*
X253971Y103934D01*
X253973Y103954D01*
X253981Y103972D01*
X253999Y104139D01*
X253999Y104902D01*
X254001Y104902D01*
X254001Y104139D01*
X254004Y104119D01*
X254002Y104100D01*
X254024Y103998D01*
X254041Y103896D01*
X254050Y103879D01*
X254054Y103859D01*
X254107Y103770D01*
X254156Y103679D01*
X254170Y103665D01*
X254180Y103648D01*
X254259Y103581D01*
X254334Y103510D01*
X254352Y103501D01*
X254367Y103488D01*
X254463Y103449D01*
X254557Y103406D01*
X254577Y103404D01*
X254595Y103396D01*
X254762Y103378D01*
X262541Y103378D01*
X262541Y100742D01*
X262544Y100722D01*
X262542Y100703D01*
X262564Y100601D01*
X262580Y100499D01*
X262590Y100482D01*
X262594Y100462D01*
X262647Y100373D01*
X262696Y100282D01*
X262710Y100268D01*
X262720Y100251D01*
X262799Y100184D01*
X262874Y100112D01*
X262892Y100104D01*
X262907Y100091D01*
X263003Y100052D01*
X263097Y100009D01*
X263117Y100007D01*
X263135Y99999D01*
X263302Y99981D01*
X263398Y99981D01*
X263418Y99984D01*
X263437Y99982D01*
X263539Y100004D01*
X263641Y100020D01*
X263658Y100030D01*
X263678Y100034D01*
X263767Y100087D01*
X263858Y100136D01*
X263872Y100150D01*
X263889Y100160D01*
X263956Y100239D01*
X264028Y100314D01*
X264036Y100332D01*
X264049Y100347D01*
X264088Y100443D01*
X264131Y100537D01*
X264133Y100557D01*
X264141Y100575D01*
X264159Y100742D01*
X264159Y111753D01*
X265126Y114087D01*
X265308Y114270D01*
X265350Y114328D01*
X265400Y114380D01*
X265422Y114427D01*
X265452Y114469D01*
X265473Y114538D01*
X265503Y114603D01*
X265509Y114655D01*
X265524Y114705D01*
X265522Y114776D01*
X265530Y114847D01*
X265519Y114898D01*
X265518Y114950D01*
X265493Y115018D01*
X265478Y115088D01*
X265451Y115133D01*
X265434Y115181D01*
X265389Y115237D01*
X265352Y115299D01*
X265312Y115333D01*
X265280Y115373D01*
X265220Y115412D01*
X265165Y115459D01*
X265117Y115478D01*
X265073Y115506D01*
X265004Y115524D01*
X264937Y115551D01*
X264866Y115559D01*
X264834Y115567D01*
X264811Y115565D01*
X264770Y115569D01*
X264169Y115569D01*
X264079Y115555D01*
X263988Y115547D01*
X263958Y115535D01*
X263926Y115530D01*
X263845Y115487D01*
X263762Y115451D01*
X263729Y115425D01*
X263709Y115414D01*
X263687Y115391D01*
X263631Y115346D01*
X262105Y113820D01*
X245961Y113820D01*
X245871Y113806D01*
X245780Y113798D01*
X245751Y113786D01*
X245719Y113781D01*
X245638Y113738D01*
X245554Y113702D01*
X245522Y113676D01*
X245501Y113665D01*
X245479Y113642D01*
X245423Y113597D01*
X211725Y79899D01*
X208924Y78739D01*
X126444Y78739D01*
X126354Y78725D01*
X126263Y78717D01*
X126233Y78705D01*
X126201Y78700D01*
X126121Y78657D01*
X126037Y78621D01*
X126005Y78595D01*
X125984Y78584D01*
X125962Y78561D01*
X125906Y78516D01*
X123866Y76476D01*
X120131Y74929D01*
X116089Y74929D01*
X115733Y75077D01*
X115689Y75087D01*
X115647Y75106D01*
X115570Y75115D01*
X115494Y75133D01*
X115448Y75128D01*
X115403Y75133D01*
X115326Y75117D01*
X115249Y75110D01*
X115207Y75091D01*
X115162Y75081D01*
X115095Y75041D01*
X115024Y75010D01*
X114990Y74979D01*
X114951Y74955D01*
X114900Y74896D01*
X114843Y74843D01*
X114821Y74803D01*
X114791Y74768D01*
X114762Y74696D01*
X114725Y74628D01*
X114716Y74583D01*
X114716Y74581D01*
X114709Y74566D01*
X114709Y74563D01*
X114699Y74540D01*
X114684Y74404D01*
X114681Y74386D01*
X114682Y74381D01*
X114681Y74373D01*
X114681Y62895D01*
X111705Y59919D01*
X91495Y59919D01*
X88519Y62895D01*
X88519Y106105D01*
X91495Y109081D01*
X111705Y109081D01*
X114681Y106105D01*
X114681Y95807D01*
X114688Y95761D01*
X114686Y95716D01*
X114708Y95641D01*
X114720Y95564D01*
X114742Y95523D01*
X114755Y95479D01*
X114799Y95415D01*
X114836Y95347D01*
X114869Y95315D01*
X114895Y95277D01*
X114957Y95231D01*
X115014Y95177D01*
X115056Y95158D01*
X115092Y95131D01*
X115166Y95106D01*
X115237Y95074D01*
X115283Y95069D01*
X115326Y95054D01*
X115404Y95055D01*
X115481Y95047D01*
X115526Y95056D01*
X115572Y95057D01*
X115704Y95095D01*
X115722Y95099D01*
X115726Y95101D01*
X115733Y95103D01*
X116089Y95251D01*
X120131Y95251D01*
X123057Y94039D01*
X123121Y94024D01*
X123182Y93999D01*
X123265Y93990D01*
X123297Y93983D01*
X123316Y93984D01*
X123349Y93981D01*
X147930Y93981D01*
X148001Y93992D01*
X148073Y93994D01*
X148122Y94012D01*
X148173Y94020D01*
X148236Y94054D01*
X148304Y94079D01*
X148344Y94111D01*
X148390Y94136D01*
X148440Y94188D01*
X148496Y94232D01*
X148524Y94276D01*
X148560Y94314D01*
X148590Y94379D01*
X148629Y94439D01*
X148641Y94490D01*
X148663Y94537D01*
X148671Y94608D01*
X148689Y94678D01*
X148685Y94730D01*
X148690Y94781D01*
X148675Y94852D01*
X148670Y94923D01*
X148649Y94971D01*
X148638Y95022D01*
X148601Y95083D01*
X148573Y95149D01*
X148529Y95205D01*
X148512Y95233D01*
X148494Y95248D01*
X148468Y95280D01*
X132212Y111536D01*
X132138Y111589D01*
X132069Y111649D01*
X132039Y111661D01*
X132013Y111680D01*
X131926Y111707D01*
X131841Y111741D01*
X131800Y111745D01*
X131778Y111752D01*
X131745Y111751D01*
X131674Y111759D01*
X46997Y111759D01*
X44663Y112726D01*
X42769Y114620D01*
X13238Y144150D01*
X13180Y144192D01*
X13128Y144242D01*
X13081Y144264D01*
X13039Y144294D01*
X12970Y144315D01*
X12905Y144345D01*
X12853Y144351D01*
X12803Y144366D01*
X12732Y144364D01*
X12661Y144372D01*
X12610Y144361D01*
X12558Y144360D01*
X12490Y144335D01*
X12420Y144320D01*
X12376Y144293D01*
X12327Y144276D01*
X12271Y144231D01*
X12209Y144194D01*
X12175Y144154D01*
X12135Y144122D01*
X12096Y144062D01*
X12049Y144007D01*
X12030Y143959D01*
X12002Y143915D01*
X11984Y143845D01*
X11957Y143779D01*
X11949Y143708D01*
X11941Y143676D01*
X11943Y143653D01*
X11939Y143612D01*
X11939Y12700D01*
X11942Y12680D01*
X11940Y12661D01*
X11962Y12559D01*
X11979Y12457D01*
X11988Y12440D01*
X11992Y12420D01*
X12045Y12331D01*
X12094Y12240D01*
X12108Y12226D01*
X12118Y12209D01*
X12197Y12142D01*
X12272Y12071D01*
X12290Y12062D01*
X12305Y12049D01*
X12401Y12010D01*
X12495Y11967D01*
X12515Y11965D01*
X12533Y11957D01*
X12700Y11939D01*
X245004Y11939D01*
X245075Y11950D01*
G37*
%LPC*%
G36*
X480579Y288289D02*
X480579Y288289D01*
X476844Y289836D01*
X473986Y292694D01*
X472439Y296429D01*
X472439Y300471D01*
X472949Y301701D01*
X472958Y301742D01*
X472971Y301770D01*
X472977Y301821D01*
X473004Y301928D01*
X473004Y301935D01*
X473005Y301941D01*
X472998Y302012D01*
X472998Y302014D01*
X472998Y302018D01*
X472994Y302057D01*
X472985Y302174D01*
X472983Y302179D01*
X472982Y302186D01*
X472934Y302293D01*
X472889Y302400D01*
X472884Y302406D01*
X472882Y302410D01*
X472869Y302424D01*
X472784Y302531D01*
X470169Y305145D01*
X470169Y322055D01*
X473145Y325031D01*
X492055Y325031D01*
X495031Y322055D01*
X495031Y305145D01*
X492416Y302531D01*
X492349Y302437D01*
X492278Y302342D01*
X492276Y302336D01*
X492273Y302331D01*
X492239Y302220D01*
X492202Y302108D01*
X492202Y302102D01*
X492200Y302096D01*
X492203Y301979D01*
X492204Y301954D01*
X492202Y301936D01*
X492204Y301925D01*
X492204Y301862D01*
X492207Y301855D01*
X492207Y301850D01*
X492213Y301833D01*
X492251Y301701D01*
X492761Y300471D01*
X492761Y296429D01*
X491214Y292694D01*
X488356Y289836D01*
X484621Y288289D01*
X480579Y288289D01*
G37*
%LPD*%
%LPC*%
G36*
X458723Y195923D02*
X458723Y195923D01*
X458723Y203291D01*
X464884Y203291D01*
X465531Y203118D01*
X466110Y202783D01*
X466583Y202310D01*
X466918Y201731D01*
X467091Y201084D01*
X467091Y195923D01*
X458723Y195923D01*
G37*
%LPD*%
%LPC*%
G36*
X446023Y335623D02*
X446023Y335623D01*
X446023Y342991D01*
X452184Y342991D01*
X452831Y342818D01*
X453410Y342483D01*
X453883Y342010D01*
X454218Y341431D01*
X454391Y340784D01*
X454391Y335623D01*
X446023Y335623D01*
G37*
%LPD*%
%LPC*%
G36*
X446023Y272123D02*
X446023Y272123D01*
X446023Y279491D01*
X452184Y279491D01*
X452831Y279318D01*
X453410Y278983D01*
X453883Y278510D01*
X454218Y277931D01*
X454391Y277284D01*
X454391Y272123D01*
X446023Y272123D01*
G37*
%LPD*%
%LPC*%
G36*
X484123Y272123D02*
X484123Y272123D01*
X484123Y279491D01*
X490284Y279491D01*
X490931Y279318D01*
X491510Y278983D01*
X491983Y278510D01*
X492318Y277931D01*
X492491Y277284D01*
X492491Y272123D01*
X484123Y272123D01*
G37*
%LPD*%
%LPC*%
G36*
X472709Y272123D02*
X472709Y272123D01*
X472709Y277284D01*
X472882Y277931D01*
X473217Y278510D01*
X473690Y278983D01*
X474269Y279318D01*
X474916Y279491D01*
X481077Y279491D01*
X481077Y272123D01*
X472709Y272123D01*
G37*
%LPD*%
%LPC*%
G36*
X447309Y195923D02*
X447309Y195923D01*
X447309Y201084D01*
X447482Y201731D01*
X447817Y202310D01*
X448290Y202783D01*
X448869Y203118D01*
X449516Y203291D01*
X455677Y203291D01*
X455677Y195923D01*
X447309Y195923D01*
G37*
%LPD*%
%LPC*%
G36*
X434609Y272123D02*
X434609Y272123D01*
X434609Y277284D01*
X434782Y277931D01*
X435117Y278510D01*
X435590Y278983D01*
X436169Y279318D01*
X436816Y279491D01*
X442977Y279491D01*
X442977Y272123D01*
X434609Y272123D01*
G37*
%LPD*%
%LPC*%
G36*
X434609Y335623D02*
X434609Y335623D01*
X434609Y340784D01*
X434782Y341431D01*
X435117Y342010D01*
X435590Y342483D01*
X436169Y342818D01*
X436816Y342991D01*
X442977Y342991D01*
X442977Y335623D01*
X434609Y335623D01*
G37*
%LPD*%
%LPC*%
G36*
X458723Y185509D02*
X458723Y185509D01*
X458723Y192877D01*
X467091Y192877D01*
X467091Y187716D01*
X466918Y187069D01*
X466583Y186490D01*
X466110Y186017D01*
X465531Y185682D01*
X464884Y185509D01*
X458723Y185509D01*
G37*
%LPD*%
%LPC*%
G36*
X446023Y261709D02*
X446023Y261709D01*
X446023Y269077D01*
X454391Y269077D01*
X454391Y263916D01*
X454218Y263269D01*
X453883Y262690D01*
X453410Y262217D01*
X452831Y261882D01*
X452184Y261709D01*
X446023Y261709D01*
G37*
%LPD*%
%LPC*%
G36*
X484123Y261709D02*
X484123Y261709D01*
X484123Y269077D01*
X492491Y269077D01*
X492491Y263916D01*
X492318Y263269D01*
X491983Y262690D01*
X491510Y262217D01*
X490931Y261882D01*
X490284Y261709D01*
X484123Y261709D01*
G37*
%LPD*%
%LPC*%
G36*
X449516Y185509D02*
X449516Y185509D01*
X448869Y185682D01*
X448290Y186017D01*
X447817Y186490D01*
X447482Y187069D01*
X447309Y187716D01*
X447309Y192877D01*
X455677Y192877D01*
X455677Y185509D01*
X449516Y185509D01*
G37*
%LPD*%
%LPC*%
G36*
X474916Y261709D02*
X474916Y261709D01*
X474269Y261882D01*
X473690Y262217D01*
X473217Y262690D01*
X472882Y263269D01*
X472709Y263916D01*
X472709Y269077D01*
X481077Y269077D01*
X481077Y261709D01*
X474916Y261709D01*
G37*
%LPD*%
%LPC*%
G36*
X436816Y261709D02*
X436816Y261709D01*
X436169Y261882D01*
X435590Y262217D01*
X435117Y262690D01*
X434782Y263269D01*
X434609Y263916D01*
X434609Y269077D01*
X442977Y269077D01*
X442977Y261709D01*
X436816Y261709D01*
G37*
%LPD*%
%LPC*%
G36*
X405223Y357123D02*
X405223Y357123D01*
X405223Y365132D01*
X405960Y365015D01*
X407405Y364546D01*
X408759Y363856D01*
X409988Y362963D01*
X411063Y361888D01*
X411956Y360659D01*
X412646Y359305D01*
X413115Y357860D01*
X413232Y357123D01*
X405223Y357123D01*
G37*
%LPD*%
%LPC*%
G36*
X471423Y75023D02*
X471423Y75023D01*
X471423Y83032D01*
X472160Y82915D01*
X473605Y82446D01*
X474959Y81756D01*
X476188Y80863D01*
X477263Y79788D01*
X478156Y78559D01*
X478846Y77205D01*
X479315Y75760D01*
X479432Y75023D01*
X471423Y75023D01*
G37*
%LPD*%
%LPC*%
G36*
X395223Y204377D02*
X395223Y204377D01*
X403232Y204377D01*
X403115Y203640D01*
X402646Y202195D01*
X401956Y200841D01*
X401063Y199612D01*
X399988Y198537D01*
X398759Y197644D01*
X397405Y196954D01*
X395960Y196485D01*
X395223Y196368D01*
X395223Y204377D01*
G37*
%LPD*%
%LPC*%
G36*
X405223Y354077D02*
X405223Y354077D01*
X413232Y354077D01*
X413115Y353340D01*
X412646Y351895D01*
X411956Y350541D01*
X411063Y349312D01*
X409988Y348237D01*
X408759Y347344D01*
X407405Y346654D01*
X405960Y346185D01*
X405223Y346068D01*
X405223Y354077D01*
G37*
%LPD*%
%LPC*%
G36*
X460368Y75023D02*
X460368Y75023D01*
X460485Y75760D01*
X460954Y77205D01*
X461644Y78559D01*
X462537Y79788D01*
X463612Y80863D01*
X464841Y81756D01*
X466195Y82446D01*
X467640Y82915D01*
X468377Y83032D01*
X468377Y75023D01*
X460368Y75023D01*
G37*
%LPD*%
%LPC*%
G36*
X446023Y128177D02*
X446023Y128177D01*
X454032Y128177D01*
X453915Y127440D01*
X453446Y125995D01*
X452756Y124641D01*
X451863Y123412D01*
X450788Y122337D01*
X449559Y121444D01*
X448205Y120754D01*
X446760Y120285D01*
X446023Y120168D01*
X446023Y128177D01*
G37*
%LPD*%
%LPC*%
G36*
X395223Y280577D02*
X395223Y280577D01*
X403232Y280577D01*
X403115Y279840D01*
X402646Y278395D01*
X401956Y277041D01*
X401063Y275812D01*
X399988Y274737D01*
X398759Y273844D01*
X397405Y273154D01*
X395960Y272685D01*
X395223Y272568D01*
X395223Y280577D01*
G37*
%LPD*%
%LPC*%
G36*
X391440Y196485D02*
X391440Y196485D01*
X389995Y196954D01*
X388641Y197644D01*
X387412Y198537D01*
X386337Y199612D01*
X385444Y200841D01*
X384754Y202195D01*
X384285Y203640D01*
X384168Y204377D01*
X392177Y204377D01*
X392177Y196368D01*
X391440Y196485D01*
G37*
%LPD*%
%LPC*%
G36*
X442240Y120285D02*
X442240Y120285D01*
X440795Y120754D01*
X439441Y121444D01*
X438212Y122337D01*
X437137Y123412D01*
X436244Y124641D01*
X435554Y125995D01*
X435085Y127440D01*
X434968Y128177D01*
X442977Y128177D01*
X442977Y120168D01*
X442240Y120285D01*
G37*
%LPD*%
%LPC*%
G36*
X391440Y272685D02*
X391440Y272685D01*
X389995Y273154D01*
X388641Y273844D01*
X387412Y274737D01*
X386337Y275812D01*
X385444Y277041D01*
X384754Y278395D01*
X384285Y279840D01*
X384168Y280577D01*
X392177Y280577D01*
X392177Y272568D01*
X391440Y272685D01*
G37*
%LPD*%
%LPC*%
G36*
X407923Y150622D02*
X407923Y150622D01*
X407923Y155640D01*
X412734Y155640D01*
X413381Y155467D01*
X413960Y155132D01*
X414433Y154659D01*
X414768Y154080D01*
X414941Y153433D01*
X414941Y150622D01*
X407923Y150622D01*
G37*
%LPD*%
%LPC*%
G36*
X382523Y150622D02*
X382523Y150622D01*
X382523Y155640D01*
X387334Y155640D01*
X387981Y155467D01*
X388560Y155132D01*
X389033Y154659D01*
X389368Y154080D01*
X389541Y153433D01*
X389541Y150622D01*
X382523Y150622D01*
G37*
%LPD*%
%LPC*%
G36*
X255523Y106424D02*
X255523Y106424D01*
X255523Y111442D01*
X260334Y111442D01*
X260981Y111269D01*
X261560Y110934D01*
X262033Y110461D01*
X262368Y109882D01*
X262541Y109235D01*
X262541Y106424D01*
X255523Y106424D01*
G37*
%LPD*%
%LPC*%
G36*
X397859Y150622D02*
X397859Y150622D01*
X397859Y153433D01*
X398032Y154080D01*
X398367Y154659D01*
X398840Y155132D01*
X399419Y155467D01*
X400066Y155640D01*
X404877Y155640D01*
X404877Y150622D01*
X397859Y150622D01*
G37*
%LPD*%
%LPC*%
G36*
X246124Y80359D02*
X246124Y80359D01*
X246124Y87377D01*
X251142Y87377D01*
X251142Y82566D01*
X250969Y81919D01*
X250634Y81340D01*
X250161Y80867D01*
X249582Y80532D01*
X248935Y80359D01*
X246124Y80359D01*
G37*
%LPD*%
%LPC*%
G36*
X245459Y106424D02*
X245459Y106424D01*
X245459Y109235D01*
X245632Y109882D01*
X245967Y110461D01*
X246440Y110934D01*
X247019Y111269D01*
X247666Y111442D01*
X252477Y111442D01*
X252477Y106424D01*
X245459Y106424D01*
G37*
%LPD*%
%LPC*%
G36*
X372459Y150622D02*
X372459Y150622D01*
X372459Y153433D01*
X372632Y154080D01*
X372967Y154659D01*
X373440Y155132D01*
X374019Y155467D01*
X374666Y155640D01*
X379477Y155640D01*
X379477Y150622D01*
X372459Y150622D01*
G37*
%LPD*%
%LPC*%
G36*
X382523Y142558D02*
X382523Y142558D01*
X382523Y147576D01*
X389541Y147576D01*
X389541Y144765D01*
X389368Y144118D01*
X389033Y143539D01*
X388560Y143066D01*
X387981Y142731D01*
X387334Y142558D01*
X382523Y142558D01*
G37*
%LPD*%
%LPC*%
G36*
X407923Y142558D02*
X407923Y142558D01*
X407923Y147576D01*
X414941Y147576D01*
X414941Y144765D01*
X414768Y144118D01*
X414433Y143539D01*
X413960Y143066D01*
X413381Y142731D01*
X412734Y142558D01*
X407923Y142558D01*
G37*
%LPD*%
%LPC*%
G36*
X238060Y90423D02*
X238060Y90423D01*
X238060Y95234D01*
X238233Y95881D01*
X238568Y96460D01*
X239041Y96933D01*
X239620Y97268D01*
X240267Y97441D01*
X243078Y97441D01*
X243078Y90423D01*
X238060Y90423D01*
G37*
%LPD*%
%LPC*%
G36*
X374666Y142558D02*
X374666Y142558D01*
X374019Y142731D01*
X373440Y143066D01*
X372967Y143539D01*
X372632Y144118D01*
X372459Y144765D01*
X372459Y147576D01*
X379477Y147576D01*
X379477Y142558D01*
X374666Y142558D01*
G37*
%LPD*%
%LPC*%
G36*
X240267Y80359D02*
X240267Y80359D01*
X239620Y80532D01*
X239041Y80867D01*
X238568Y81340D01*
X238233Y81919D01*
X238060Y82566D01*
X238060Y87377D01*
X243078Y87377D01*
X243078Y80359D01*
X240267Y80359D01*
G37*
%LPD*%
%LPC*%
G36*
X400066Y142558D02*
X400066Y142558D01*
X399419Y142731D01*
X398840Y143066D01*
X398367Y143539D01*
X398032Y144118D01*
X397859Y144765D01*
X397859Y147576D01*
X404877Y147576D01*
X404877Y142558D01*
X400066Y142558D01*
G37*
%LPD*%
%LPC*%
G36*
X431623Y90423D02*
X431623Y90423D01*
X431623Y95441D01*
X434934Y95441D01*
X435581Y95268D01*
X436160Y94933D01*
X436633Y94460D01*
X436968Y93881D01*
X437141Y93234D01*
X437141Y90423D01*
X431623Y90423D01*
G37*
%LPD*%
%LPC*%
G36*
X423059Y90423D02*
X423059Y90423D01*
X423059Y93234D01*
X423232Y93881D01*
X423567Y94460D01*
X424040Y94933D01*
X424619Y95268D01*
X425266Y95441D01*
X428577Y95441D01*
X428577Y90423D01*
X423059Y90423D01*
G37*
%LPD*%
%LPC*%
G36*
X431623Y87377D02*
X431623Y87377D01*
X437141Y87377D01*
X437141Y84565D01*
X436968Y83919D01*
X436633Y83340D01*
X436160Y82867D01*
X435581Y82532D01*
X434934Y82359D01*
X431623Y82359D01*
X431623Y87377D01*
G37*
%LPD*%
%LPC*%
G36*
X425266Y82359D02*
X425266Y82359D01*
X424619Y82532D01*
X424040Y82867D01*
X423567Y83340D01*
X423232Y83919D01*
X423059Y84566D01*
X423059Y87377D01*
X428577Y87377D01*
X428577Y82359D01*
X425266Y82359D01*
G37*
%LPD*%
%LPC*%
G36*
X406399Y149098D02*
X406399Y149098D01*
X406399Y149100D01*
X406401Y149100D01*
X406401Y149098D01*
X406399Y149098D01*
G37*
%LPD*%
%LPC*%
G36*
X430099Y88899D02*
X430099Y88899D01*
X430099Y88901D01*
X430101Y88901D01*
X430101Y88899D01*
X430099Y88899D01*
G37*
%LPD*%
%LPC*%
G36*
X244600Y88899D02*
X244600Y88899D01*
X244600Y88901D01*
X244602Y88901D01*
X244602Y88899D01*
X244600Y88899D01*
G37*
%LPD*%
%LPC*%
G36*
X380999Y149098D02*
X380999Y149098D01*
X380999Y149100D01*
X381001Y149100D01*
X381001Y149098D01*
X380999Y149098D01*
G37*
%LPD*%
%LPC*%
G36*
X457199Y194399D02*
X457199Y194399D01*
X457199Y194401D01*
X457201Y194401D01*
X457201Y194399D01*
X457199Y194399D01*
G37*
%LPD*%
%LPC*%
G36*
X444499Y270599D02*
X444499Y270599D01*
X444499Y270601D01*
X444501Y270601D01*
X444501Y270599D01*
X444499Y270599D01*
G37*
%LPD*%
%LPC*%
G36*
X482599Y270599D02*
X482599Y270599D01*
X482599Y270601D01*
X482601Y270601D01*
X482601Y270599D01*
X482599Y270599D01*
G37*
%LPD*%
D10*
X185420Y469900D02*
X169164Y469900D01*
X169164Y444500D02*
X185420Y444500D01*
X185420Y419100D02*
X169164Y419100D01*
X169164Y393700D02*
X185420Y393700D01*
X185420Y368300D02*
X169164Y368300D01*
X169164Y342900D02*
X185420Y342900D01*
X185420Y317500D02*
X169164Y317500D01*
X169164Y292100D02*
X185420Y292100D01*
X185420Y266700D02*
X169164Y266700D01*
X169164Y241300D02*
X185420Y241300D01*
X185420Y215900D02*
X169164Y215900D01*
X169164Y190500D02*
X185420Y190500D01*
X185420Y165100D02*
X169164Y165100D01*
X169164Y139700D02*
X185420Y139700D01*
X185420Y114300D02*
X169164Y114300D01*
X337820Y114300D02*
X354076Y114300D01*
X354076Y139700D02*
X337820Y139700D01*
X337820Y165100D02*
X354076Y165100D01*
X354076Y190500D02*
X337820Y190500D01*
X337820Y215900D02*
X354076Y215900D01*
X354076Y241300D02*
X337820Y241300D01*
X337820Y266700D02*
X354076Y266700D01*
X354076Y292100D02*
X337820Y292100D01*
X337820Y317500D02*
X354076Y317500D01*
X354076Y342900D02*
X337820Y342900D01*
X337820Y368300D02*
X354076Y368300D01*
X354076Y393700D02*
X337820Y393700D01*
X337820Y419100D02*
X354076Y419100D01*
X354076Y444500D02*
X337820Y444500D01*
X337800Y469900D02*
X354056Y469900D01*
D11*
X292100Y105401D03*
X292100Y122401D03*
D12*
X469900Y73500D03*
X469900Y53500D03*
D13*
X381000Y149099D03*
X381000Y131099D03*
D11*
X266700Y326000D03*
X266700Y309000D03*
X241300Y309000D03*
X241300Y326000D03*
D12*
X403700Y355600D03*
X383700Y355600D03*
D14*
X444500Y377100D03*
X444500Y334100D03*
D15*
X244601Y88900D03*
X262601Y88900D03*
D16*
X258200Y266700D03*
X275200Y266700D03*
D11*
X241300Y245500D03*
X241300Y262500D03*
D12*
X393700Y282100D03*
X393700Y302100D03*
D14*
X444500Y313600D03*
X444500Y270600D03*
D13*
X254000Y104901D03*
X254000Y122901D03*
D16*
X258200Y228600D03*
X275200Y228600D03*
D11*
X241300Y207400D03*
X241300Y224400D03*
D12*
X393700Y205900D03*
X393700Y225900D03*
D14*
X457200Y237400D03*
X457200Y194400D03*
D13*
X406400Y149099D03*
X406400Y131099D03*
D16*
X258200Y190500D03*
X275200Y190500D03*
D11*
X241300Y156600D03*
X241300Y173600D03*
D12*
X444500Y129700D03*
X444500Y149700D03*
D14*
X482600Y313600D03*
X482600Y270600D03*
D17*
X294800Y314300D03*
X294800Y295300D03*
X315800Y304800D03*
X294800Y263500D03*
X294800Y244500D03*
X315800Y254000D03*
X294800Y225400D03*
X294800Y206400D03*
X315800Y215900D03*
X294800Y187300D03*
X294800Y168300D03*
X315800Y177800D03*
X409100Y98400D03*
X409100Y79400D03*
X430100Y88900D03*
D18*
X393700Y476200D03*
X393700Y412800D03*
D19*
X387300Y38100D03*
X323900Y38100D03*
D16*
X300600Y342900D03*
X283600Y342900D03*
X220100Y342900D03*
X237100Y342900D03*
X313300Y368300D03*
X296300Y368300D03*
D11*
X431800Y59300D03*
X431800Y42300D03*
D20*
X271780Y419100D03*
X241300Y419100D03*
D21*
X215900Y381000D03*
X200900Y381000D03*
D22*
X146812Y266700D02*
X132588Y266700D01*
X132588Y292100D02*
X146812Y292100D01*
X70612Y292100D02*
X56388Y292100D01*
X56388Y266700D02*
X70612Y266700D01*
X132588Y317500D02*
X146812Y317500D01*
X146812Y342900D02*
X132588Y342900D01*
X70612Y317500D02*
X56388Y317500D01*
X56388Y342900D02*
X70612Y342900D01*
D11*
X215900Y258200D03*
X215900Y275200D03*
D16*
X207400Y152400D03*
X224400Y152400D03*
D11*
X215900Y220100D03*
X215900Y237100D03*
X215900Y182000D03*
X215900Y199000D03*
D16*
X135500Y203200D03*
X118500Y203200D03*
X80400Y203200D03*
X97400Y203200D03*
D23*
X101600Y84500D03*
X101600Y169500D03*
D24*
X63500Y228600D03*
X139700Y228600D03*
D13*
X215900Y295800D03*
X215900Y313800D03*
D25*
X77300Y429100D03*
X77300Y409100D03*
D26*
X129300Y453100D03*
X129300Y385100D03*
D10*
X33528Y177800D02*
X17272Y177800D01*
X17272Y203200D02*
X33528Y203200D01*
X33528Y228600D02*
X17272Y228600D01*
X17272Y254000D02*
X33528Y254000D01*
X33528Y279400D02*
X17272Y279400D01*
X17272Y304800D02*
X33528Y304800D01*
X33528Y330200D02*
X17272Y330200D01*
X17272Y355600D02*
X33528Y355600D01*
D27*
X241300Y156600D02*
X241300Y149860D01*
X245110Y146050D01*
X245110Y144780D01*
X245745Y144145D02*
X252730Y137160D01*
X245745Y144145D02*
X245110Y144780D01*
X252730Y137160D02*
X252730Y124460D01*
X254000Y123190D01*
X294640Y160020D02*
X294640Y167640D01*
X294640Y160020D02*
X293370Y158750D01*
X293370Y138430D01*
X292100Y137160D01*
X292100Y122401D01*
X294640Y167640D02*
X294800Y168300D01*
X262890Y90170D02*
X262890Y88900D01*
X262890Y90170D02*
X270510Y97790D01*
X270510Y110490D01*
X273050Y113030D01*
X273050Y116840D01*
X274955Y118745D02*
X278130Y121920D01*
X274955Y118745D02*
X273050Y116840D01*
X278130Y121920D02*
X292100Y121920D01*
X262890Y88900D02*
X262601Y88900D01*
X292100Y121920D02*
X292100Y122401D01*
X262890Y123190D02*
X254000Y123190D01*
X262890Y123190D02*
X264160Y121920D01*
X271780Y121920D01*
X274955Y118745D01*
X254000Y122901D02*
X254000Y123190D01*
X283210Y342900D02*
X283210Y354330D01*
X285750Y356870D02*
X297180Y368300D01*
X285750Y356870D02*
X283210Y354330D01*
X283210Y342900D02*
X283600Y342900D01*
X296300Y368300D02*
X297180Y368300D01*
X295910Y368300D02*
X295910Y383540D01*
X279400Y400050D01*
X279400Y411480D01*
X271780Y419100D01*
X295910Y368300D02*
X296300Y368300D01*
X391160Y41910D02*
X431800Y41910D01*
X391160Y41910D02*
X387350Y38100D01*
X387300Y38100D01*
X294640Y294640D02*
X287020Y294640D01*
X284480Y292100D01*
X279400Y292100D01*
X276860Y289560D01*
X246380Y289560D01*
X241300Y294640D01*
X241300Y309000D01*
X294800Y295300D02*
X294640Y294640D01*
X408940Y106680D02*
X408940Y99060D01*
X408940Y106680D02*
X407670Y107950D01*
X407670Y119380D02*
X407670Y129540D01*
X407670Y119380D02*
X407670Y107950D01*
X407670Y129540D02*
X406400Y130810D01*
X408940Y99060D02*
X409100Y98400D01*
X397510Y132080D02*
X381000Y132080D01*
X397510Y132080D02*
X398780Y130810D01*
X406400Y130810D01*
X381000Y131099D02*
X381000Y132080D01*
X406400Y131099D02*
X406400Y130810D01*
X267970Y245110D02*
X241300Y245110D01*
X267970Y245110D02*
X294640Y245110D01*
X294800Y244500D01*
X241300Y245110D02*
X241300Y245500D01*
X241300Y207010D02*
X294640Y207010D01*
X294800Y206400D01*
X207010Y152400D02*
X198120Y152400D01*
X185420Y139700D01*
X215900Y173990D02*
X215900Y181610D01*
X215900Y173990D02*
X205740Y163830D01*
X207010Y162560D01*
X207010Y152400D01*
X97790Y203200D02*
X97790Y215900D01*
X97790Y203200D02*
X97400Y203200D01*
X393700Y476250D02*
X415290Y476250D01*
X393700Y476250D02*
X393700Y476200D01*
X241300Y207010D02*
X215900Y181610D01*
X241300Y207010D02*
X241300Y207400D01*
X215900Y182000D02*
X215900Y181610D01*
X431800Y41910D02*
X450850Y41910D01*
X458470Y49530D01*
X461010Y49530D01*
X464820Y53340D01*
X469900Y53340D01*
X431800Y42300D02*
X431800Y41910D01*
X469900Y53340D02*
X469900Y53500D01*
X118110Y85090D02*
X101600Y85090D01*
X101600Y84500D01*
X77470Y429260D02*
X77470Y441960D01*
X77470Y429260D02*
X77300Y429100D01*
X245745Y144145D02*
X234950Y133350D01*
X213360Y133350D01*
X207010Y139700D01*
X207010Y152400D01*
X207400Y152400D01*
D28*
X97790Y215900D03*
X415290Y476250D03*
X267970Y245110D03*
X407670Y119380D03*
X279400Y292100D03*
X118110Y85090D03*
X77470Y441960D03*
X285750Y356870D03*
D29*
X241300Y128668D02*
X241300Y120252D01*
X241300Y128668D02*
X235348Y134620D01*
X119380Y86360D02*
X118110Y85090D01*
X119380Y86360D02*
X207408Y86360D01*
X241300Y120252D01*
X190500Y134620D02*
X185420Y139700D01*
X190500Y134620D02*
X235348Y134620D01*
X231220Y216796D02*
X231220Y232004D01*
X288980Y238680D02*
X294800Y244500D01*
X237896Y238680D02*
X231220Y232004D01*
X237896Y238680D02*
X288980Y238680D01*
X288078Y206400D02*
X294800Y206400D01*
X288078Y206400D02*
X287418Y205740D01*
X242276Y205740D01*
X231220Y216796D01*
X63500Y317500D02*
X63500Y342900D01*
X200660Y377190D02*
X200660Y381000D01*
X200660Y377190D02*
X218440Y359410D01*
X218440Y358140D02*
X218440Y350520D01*
X219710Y349250D01*
X219710Y342900D01*
X200900Y381000D02*
X200660Y381000D01*
X219710Y342900D02*
X220100Y342900D01*
X215900Y236220D02*
X209550Y236220D01*
X200660Y227330D01*
X215900Y236220D02*
X215900Y237100D01*
X218440Y358140D02*
X218440Y359410D01*
X106680Y168910D02*
X101600Y168910D01*
X106680Y168910D02*
X162560Y113030D01*
X184150Y113030D01*
X185420Y114300D01*
X101600Y168910D02*
X101600Y169500D01*
X107950Y171450D02*
X120650Y184150D01*
X107950Y171450D02*
X106680Y171450D01*
X105410Y170180D01*
X101600Y169500D01*
X408940Y78740D02*
X408940Y74930D01*
X412750Y71120D01*
X412750Y69850D01*
X421640Y60960D01*
X424180Y60960D01*
X425450Y59690D01*
X431800Y59690D01*
X408940Y78740D02*
X409100Y79400D01*
X431800Y59690D02*
X431800Y59300D01*
X292100Y99060D02*
X292100Y105401D01*
X292100Y99060D02*
X290830Y97790D01*
X290830Y90170D01*
X317500Y63500D01*
X317500Y44450D01*
X323850Y38100D01*
X323900Y38100D01*
X403860Y78740D02*
X406400Y78740D01*
X403860Y78740D02*
X391160Y66040D01*
X320040Y66040D01*
X406400Y78740D02*
X409100Y79400D01*
X320040Y66040D02*
X317500Y63500D01*
X393700Y392430D02*
X393700Y412800D01*
X393700Y392430D02*
X422910Y363220D01*
X422910Y198120D01*
X450850Y170180D01*
X454660Y170180D01*
X466090Y158750D01*
X466090Y99060D01*
X430530Y63500D01*
X430530Y60960D01*
X431800Y59300D01*
X289560Y88900D02*
X288290Y88900D01*
X289560Y88900D02*
X290830Y90170D01*
D28*
X200660Y227330D03*
X218440Y358140D03*
X120650Y184150D03*
X288290Y88900D03*
D27*
X266700Y326390D02*
X241300Y326390D01*
X241300Y326000D01*
X266700Y326000D02*
X266700Y326390D01*
X266700Y325120D02*
X275590Y325120D01*
X276860Y326390D01*
X279400Y326390D01*
X284480Y321310D01*
X287020Y321310D01*
X288290Y322580D01*
X308610Y322580D01*
X311150Y325120D01*
X316230Y325120D01*
X318770Y327660D01*
X321310Y327660D01*
X331470Y317500D01*
X337820Y317500D01*
X266700Y325120D02*
X266700Y326000D01*
X315800Y304800D02*
X359410Y304800D01*
X367030Y312420D01*
X370840Y312420D01*
X381000Y322580D01*
X381000Y339090D01*
X383540Y341630D01*
X383540Y355600D01*
X383700Y355600D01*
X429260Y375920D02*
X444500Y375920D01*
X444500Y377100D01*
D28*
X429260Y375920D03*
D27*
X254000Y262890D02*
X241300Y262890D01*
X254000Y262890D02*
X257810Y266700D01*
X241300Y262890D02*
X241300Y262500D01*
X257810Y266700D02*
X258200Y266700D01*
X259080Y266700D02*
X270510Y255270D01*
X300990Y255270D01*
X316230Y270510D01*
X316230Y276860D01*
X331470Y292100D01*
X337820Y292100D01*
X259080Y266700D02*
X258200Y266700D01*
X315800Y254000D02*
X359410Y254000D01*
X367030Y261620D01*
X370840Y261620D01*
X375920Y266700D01*
X375920Y289560D01*
X387350Y300990D01*
X393700Y300990D01*
X393700Y302100D01*
X444500Y307340D02*
X444500Y313600D01*
X444500Y307340D02*
X435610Y298450D01*
D28*
X435610Y298450D03*
D27*
X254000Y224790D02*
X241300Y224790D01*
X254000Y224790D02*
X257810Y228600D01*
X241300Y224790D02*
X241300Y224400D01*
X257810Y228600D02*
X258200Y228600D01*
X259080Y228600D02*
X271780Y215900D01*
X283210Y215900D01*
X259080Y228600D02*
X258200Y228600D01*
D28*
X283210Y215900D03*
D27*
X315800Y215900D02*
X320040Y215900D01*
X332740Y228600D01*
X359410Y228600D01*
X365760Y234950D01*
X367030Y234950D01*
X373380Y228600D01*
X377190Y228600D01*
X379730Y226060D01*
X393700Y226060D01*
X393700Y225900D01*
X441960Y236220D02*
X457200Y236220D01*
X457200Y237400D01*
D28*
X441960Y236220D03*
D27*
X241300Y180340D02*
X241300Y173600D01*
X241300Y180340D02*
X252730Y191770D01*
X256540Y191770D01*
X257810Y190500D01*
X258200Y190500D01*
X259080Y190500D02*
X267970Y199390D01*
X287020Y199390D01*
X288290Y198120D01*
X300990Y198120D01*
X303530Y200660D01*
X303530Y207010D01*
X307340Y210820D01*
X307340Y222250D01*
X321310Y236220D01*
X326390Y236220D01*
X331470Y241300D01*
X337820Y241300D01*
X259080Y190500D02*
X258200Y190500D01*
X315800Y177800D02*
X359410Y177800D01*
X365760Y184150D01*
X367030Y184150D01*
X387350Y163830D01*
X430530Y163830D01*
X444500Y149860D01*
X444500Y149700D01*
X482600Y298450D02*
X482600Y313600D01*
D28*
X482600Y298450D03*
D27*
X294640Y313690D02*
X287020Y313690D01*
X285750Y312420D01*
X283210Y312420D01*
X279400Y308610D01*
X266700Y308610D01*
X294640Y313690D02*
X294800Y314300D01*
X266700Y309000D02*
X266700Y308610D01*
X278130Y264160D02*
X294640Y264160D01*
X278130Y264160D02*
X275590Y266700D01*
X294640Y264160D02*
X294800Y263500D01*
X275590Y266700D02*
X275200Y266700D01*
X278130Y226060D02*
X294640Y226060D01*
X278130Y226060D02*
X275590Y228600D01*
X294640Y226060D02*
X294800Y225400D01*
X275590Y228600D02*
X275200Y228600D01*
X287020Y187960D02*
X294640Y187960D01*
X287020Y187960D02*
X284480Y190500D01*
X275200Y190500D01*
X294640Y187960D02*
X294800Y187300D01*
X243840Y342900D02*
X237490Y342900D01*
X243840Y342900D02*
X246380Y345440D01*
X264160Y345440D01*
X276860Y332740D01*
X283210Y332740D01*
X284480Y334010D01*
X292100Y334010D01*
X300990Y342900D01*
X300600Y342900D01*
X313690Y356870D02*
X313690Y368300D01*
X313690Y356870D02*
X299720Y342900D01*
X313300Y368300D02*
X313690Y368300D01*
X300600Y342900D02*
X299720Y342900D01*
X237490Y342900D02*
X237490Y355600D01*
X237490Y342900D02*
X237100Y342900D01*
D28*
X237490Y355600D03*
D27*
X222250Y381000D02*
X215900Y381000D01*
X222250Y381000D02*
X233680Y392430D01*
X233680Y411480D01*
X241300Y419100D01*
X215900Y313690D02*
X207010Y313690D01*
X205740Y312420D01*
X198120Y312420D01*
X190500Y304800D01*
X152400Y304800D01*
X139700Y317500D01*
X215900Y313800D02*
X215900Y313690D01*
X63500Y234950D02*
X63500Y228600D01*
X63500Y234950D02*
X74930Y246380D01*
X78740Y246380D01*
X106680Y274320D01*
X106680Y292100D01*
X113030Y298450D01*
X113030Y300990D01*
X128270Y316230D01*
X139700Y316230D01*
X139700Y317500D01*
X201930Y273050D02*
X215900Y259080D01*
X201930Y273050D02*
X196850Y273050D01*
X190500Y279400D01*
X152400Y279400D01*
X139700Y266700D01*
X223520Y163830D02*
X223520Y152400D01*
X223520Y163830D02*
X222250Y165100D01*
X215900Y259080D02*
X231140Y274320D01*
X224400Y152400D02*
X223520Y152400D01*
X215900Y258200D02*
X215900Y259080D01*
D28*
X222250Y165100D03*
X231140Y274320D03*
D27*
X215900Y220100D02*
X215900Y199390D01*
X200660Y199390D01*
X198120Y196850D01*
X196850Y196850D01*
X190500Y203200D01*
X163830Y203200D01*
X162560Y204470D01*
X160020Y204470D01*
X158750Y203200D01*
X215900Y199390D02*
X215900Y199000D01*
D28*
X158750Y203200D03*
D27*
X215900Y275200D02*
X215900Y295800D01*
X80010Y215900D02*
X80010Y203200D01*
X80010Y215900D02*
X88900Y224790D01*
X110490Y224790D01*
X111125Y224155D02*
X118110Y217170D01*
X111125Y224155D02*
X110490Y224790D01*
X118110Y217170D02*
X118110Y203200D01*
X80400Y203200D02*
X80010Y203200D01*
X118110Y203200D02*
X118500Y203200D01*
X129540Y292100D02*
X139700Y292100D01*
X129540Y292100D02*
X111760Y274320D01*
X111760Y224790D01*
X111125Y224155D01*
X77470Y396240D02*
X77470Y408940D01*
X77300Y409100D01*
D28*
X77470Y396240D03*
D27*
X25400Y228600D02*
X5080Y208280D01*
X5080Y161290D01*
X48260Y118110D01*
X134620Y118110D01*
X160020Y92710D01*
X199390Y92710D01*
X231140Y124460D01*
D28*
X231140Y124460D03*
D27*
X27940Y254000D02*
X25400Y254000D01*
X27940Y254000D02*
X52070Y278130D01*
X76200Y278130D01*
X78740Y275590D01*
X80010Y275590D01*
X81280Y274320D01*
X107950Y300990D01*
X107950Y363220D01*
D28*
X107950Y363220D03*
D27*
X25400Y304800D02*
X5080Y325120D01*
X5080Y377190D01*
X38100Y410210D01*
X44450Y410210D01*
X53340Y419100D01*
X101600Y419100D01*
X114300Y431800D01*
X151130Y431800D01*
X153670Y434340D01*
X154940Y434340D01*
X165100Y444500D01*
X185420Y444500D01*
X34290Y355600D02*
X25400Y355600D01*
X34290Y355600D02*
X52070Y373380D01*
X63500Y361950D01*
X73660Y361950D01*
X78740Y367030D01*
X80010Y367030D01*
X99060Y347980D01*
X99060Y308610D01*
D28*
X99060Y308610D03*
D27*
X135890Y203200D02*
X135890Y190500D01*
X135890Y203200D02*
X135500Y203200D01*
D28*
X135890Y190500D03*
M02*
