G04 EAGLE Gerber RS-274X export*
G75*
%MOMM*%
%FSLAX34Y34*%
%LPD*%
%INSolderpaste Top*%
%IPPOS*%
%AMOC8*
5,1,8,0,0,1.08239X$1,22.5*%
G01*
%ADD10R,1.000000X1.100000*%
%ADD11R,1.200000X0.800000*%
%ADD12R,1.470000X1.270000*%
%ADD13R,0.800000X1.200000*%
%ADD14R,1.100000X1.000000*%
%ADD15R,0.900000X0.800000*%
%ADD16R,2.700000X2.550000*%
%ADD17R,2.550000X2.700000*%
%ADD18R,2.500000X2.000000*%
%ADD19R,0.800000X0.800000*%
%ADD20R,1.600000X3.900000*%
%ADD21R,4.600000X1.000000*%
%ADD22R,3.400000X1.600000*%


D10*
X292100Y105401D03*
X292100Y122401D03*
D11*
X381000Y149099D03*
X381000Y131099D03*
D10*
X266700Y326000D03*
X266700Y309000D03*
X241300Y309000D03*
X241300Y326000D03*
D12*
X444500Y377100D03*
X444500Y334100D03*
D13*
X244601Y88900D03*
X262601Y88900D03*
D14*
X258200Y266700D03*
X275200Y266700D03*
D10*
X241300Y245500D03*
X241300Y262500D03*
D12*
X444500Y313600D03*
X444500Y270600D03*
D11*
X254000Y104901D03*
X254000Y122901D03*
D14*
X258200Y228600D03*
X275200Y228600D03*
D10*
X241300Y207400D03*
X241300Y224400D03*
D12*
X457200Y237400D03*
X457200Y194400D03*
D11*
X406400Y149099D03*
X406400Y131099D03*
D14*
X258200Y190500D03*
X275200Y190500D03*
D10*
X241300Y156600D03*
X241300Y173600D03*
D12*
X482600Y313600D03*
X482600Y270600D03*
D15*
X294800Y314300D03*
X294800Y295300D03*
X315800Y304800D03*
X294800Y263500D03*
X294800Y244500D03*
X315800Y254000D03*
X294800Y225400D03*
X294800Y206400D03*
X315800Y215900D03*
X294800Y187300D03*
X294800Y168300D03*
X315800Y177800D03*
X409100Y98400D03*
X409100Y79400D03*
X430100Y88900D03*
D16*
X393700Y476200D03*
X393700Y412800D03*
D17*
X387300Y38100D03*
X323900Y38100D03*
D14*
X300600Y342900D03*
X283600Y342900D03*
X220100Y342900D03*
X237100Y342900D03*
X313300Y368300D03*
X296300Y368300D03*
D10*
X431800Y59300D03*
X431800Y42300D03*
D18*
X271780Y419100D03*
X241300Y419100D03*
D19*
X215900Y381000D03*
X200900Y381000D03*
D10*
X215900Y258200D03*
X215900Y275200D03*
D14*
X207400Y152400D03*
X224400Y152400D03*
D10*
X215900Y220100D03*
X215900Y237100D03*
X215900Y182000D03*
X215900Y199000D03*
D14*
X135500Y203200D03*
X118500Y203200D03*
X80400Y203200D03*
X97400Y203200D03*
D20*
X101600Y84500D03*
X101600Y169500D03*
D11*
X215900Y295800D03*
X215900Y313800D03*
D21*
X77300Y429100D03*
X77300Y409100D03*
D22*
X129300Y453100D03*
X129300Y385100D03*
M02*
