M48
;GenerationSoftware,Autodesk,EAGLE,9.6.2*%
;CreationDate,2023-05-18T05:34:15Z*%
FMAT,2
ICI,OFF
METRIC,TZ,000.000
T7C0.508
T6C0.800
T5C0.813
T4C0.900
T3C1.016
T2C6.000
%
G90
M71
T2
X3810Y46990
X26670Y3810
X45720Y46990
T3
X33782Y24130
X33782Y26670
X33782Y21590
X33782Y19050
X33782Y16510
X33782Y13970
X33782Y11430
X18542Y13970
X18542Y16510
X18542Y19050
X18542Y21590
X18542Y24130
X18542Y26670
X18542Y29210
X18542Y31750
X33780Y46990
X2540Y35560
X2540Y33020
X2540Y30480
X2540Y27940
X2540Y25400
X2540Y22860
X2540Y20320
X2540Y17780
X18542Y11430
X33782Y44450
X33782Y41910
X33782Y39370
X33782Y36830
X33782Y34290
X33782Y31750
X33782Y29210
X18542Y36830
X18542Y39370
X18542Y41910
X18542Y44450
X18542Y46990
X18542Y34290
T4
X13970Y22860
X6350Y22860
T5
X6350Y26670
X13970Y26670
X13970Y29210
X6350Y29210
X13970Y31750
X13970Y34290
X6350Y31750
X6350Y34290
T6
X40370Y35560
X44450Y14970
X44450Y12970
X39370Y22590
X39370Y20590
X39370Y30210
X39370Y28210
X38370Y35560
X46990Y5350
X46990Y7350
T7
X7747Y39624
X41529Y47625
X26797Y24511
X40767Y11938
X27940Y29210
X11811Y8509
X7747Y44196
X28575Y35687
X20066Y22733
X13589Y19050
X9906Y30861
X9779Y21590
X10795Y36322
X23114Y12446
X15875Y20320
X23114Y27432
X22225Y16510
X23749Y35560
X48260Y29845
X44196Y23622
X28321Y21590
X43561Y29845
X42926Y37592
X28829Y8890
X12065Y18415
X21844Y35814
M30