G04 EAGLE Gerber RS-274X export*
G75*
%MOMM*%
%FSLAX34Y34*%
%LPD*%
%IN*%
%IPPOS*%
%AMOC8*
5,1,8,0,0,1.08239X$1,22.5*%
G01*
%ADD10C,0.008000*%
%ADD11C,0.000000*%
%ADD12C,0.254000*%


D10*
X0Y0D02*
X508000Y0D01*
X508000Y508000D01*
X0Y508000D01*
X0Y0D01*
D11*
X427200Y469900D02*
X427209Y470636D01*
X427236Y471372D01*
X427281Y472107D01*
X427344Y472841D01*
X427426Y473572D01*
X427525Y474302D01*
X427642Y475029D01*
X427776Y475753D01*
X427929Y476473D01*
X428099Y477189D01*
X428287Y477901D01*
X428492Y478609D01*
X428714Y479310D01*
X428954Y480007D01*
X429210Y480697D01*
X429484Y481381D01*
X429774Y482057D01*
X430080Y482727D01*
X430403Y483388D01*
X430742Y484042D01*
X431097Y484687D01*
X431468Y485323D01*
X431854Y485950D01*
X432256Y486567D01*
X432672Y487174D01*
X433104Y487771D01*
X433550Y488357D01*
X434010Y488932D01*
X434484Y489495D01*
X434971Y490047D01*
X435473Y490586D01*
X435987Y491113D01*
X436514Y491627D01*
X437053Y492129D01*
X437605Y492616D01*
X438168Y493090D01*
X438743Y493550D01*
X439329Y493996D01*
X439926Y494428D01*
X440533Y494844D01*
X441150Y495246D01*
X441777Y495632D01*
X442413Y496003D01*
X443058Y496358D01*
X443712Y496697D01*
X444373Y497020D01*
X445043Y497326D01*
X445719Y497616D01*
X446403Y497890D01*
X447093Y498146D01*
X447790Y498386D01*
X448491Y498608D01*
X449199Y498813D01*
X449911Y499001D01*
X450627Y499171D01*
X451347Y499324D01*
X452071Y499458D01*
X452798Y499575D01*
X453528Y499674D01*
X454259Y499756D01*
X454993Y499819D01*
X455728Y499864D01*
X456464Y499891D01*
X457200Y499900D01*
X457936Y499891D01*
X458672Y499864D01*
X459407Y499819D01*
X460141Y499756D01*
X460872Y499674D01*
X461602Y499575D01*
X462329Y499458D01*
X463053Y499324D01*
X463773Y499171D01*
X464489Y499001D01*
X465201Y498813D01*
X465909Y498608D01*
X466610Y498386D01*
X467307Y498146D01*
X467997Y497890D01*
X468681Y497616D01*
X469357Y497326D01*
X470027Y497020D01*
X470688Y496697D01*
X471342Y496358D01*
X471987Y496003D01*
X472623Y495632D01*
X473250Y495246D01*
X473867Y494844D01*
X474474Y494428D01*
X475071Y493996D01*
X475657Y493550D01*
X476232Y493090D01*
X476795Y492616D01*
X477347Y492129D01*
X477886Y491627D01*
X478413Y491113D01*
X478927Y490586D01*
X479429Y490047D01*
X479916Y489495D01*
X480390Y488932D01*
X480850Y488357D01*
X481296Y487771D01*
X481728Y487174D01*
X482144Y486567D01*
X482546Y485950D01*
X482932Y485323D01*
X483303Y484687D01*
X483658Y484042D01*
X483997Y483388D01*
X484320Y482727D01*
X484626Y482057D01*
X484916Y481381D01*
X485190Y480697D01*
X485446Y480007D01*
X485686Y479310D01*
X485908Y478609D01*
X486113Y477901D01*
X486301Y477189D01*
X486471Y476473D01*
X486624Y475753D01*
X486758Y475029D01*
X486875Y474302D01*
X486974Y473572D01*
X487056Y472841D01*
X487119Y472107D01*
X487164Y471372D01*
X487191Y470636D01*
X487200Y469900D01*
X487191Y469164D01*
X487164Y468428D01*
X487119Y467693D01*
X487056Y466959D01*
X486974Y466228D01*
X486875Y465498D01*
X486758Y464771D01*
X486624Y464047D01*
X486471Y463327D01*
X486301Y462611D01*
X486113Y461899D01*
X485908Y461191D01*
X485686Y460490D01*
X485446Y459793D01*
X485190Y459103D01*
X484916Y458419D01*
X484626Y457743D01*
X484320Y457073D01*
X483997Y456412D01*
X483658Y455758D01*
X483303Y455113D01*
X482932Y454477D01*
X482546Y453850D01*
X482144Y453233D01*
X481728Y452626D01*
X481296Y452029D01*
X480850Y451443D01*
X480390Y450868D01*
X479916Y450305D01*
X479429Y449753D01*
X478927Y449214D01*
X478413Y448687D01*
X477886Y448173D01*
X477347Y447671D01*
X476795Y447184D01*
X476232Y446710D01*
X475657Y446250D01*
X475071Y445804D01*
X474474Y445372D01*
X473867Y444956D01*
X473250Y444554D01*
X472623Y444168D01*
X471987Y443797D01*
X471342Y443442D01*
X470688Y443103D01*
X470027Y442780D01*
X469357Y442474D01*
X468681Y442184D01*
X467997Y441910D01*
X467307Y441654D01*
X466610Y441414D01*
X465909Y441192D01*
X465201Y440987D01*
X464489Y440799D01*
X463773Y440629D01*
X463053Y440476D01*
X462329Y440342D01*
X461602Y440225D01*
X460872Y440126D01*
X460141Y440044D01*
X459407Y439981D01*
X458672Y439936D01*
X457936Y439909D01*
X457200Y439900D01*
X456464Y439909D01*
X455728Y439936D01*
X454993Y439981D01*
X454259Y440044D01*
X453528Y440126D01*
X452798Y440225D01*
X452071Y440342D01*
X451347Y440476D01*
X450627Y440629D01*
X449911Y440799D01*
X449199Y440987D01*
X448491Y441192D01*
X447790Y441414D01*
X447093Y441654D01*
X446403Y441910D01*
X445719Y442184D01*
X445043Y442474D01*
X444373Y442780D01*
X443712Y443103D01*
X443058Y443442D01*
X442413Y443797D01*
X441777Y444168D01*
X441150Y444554D01*
X440533Y444956D01*
X439926Y445372D01*
X439329Y445804D01*
X438743Y446250D01*
X438168Y446710D01*
X437605Y447184D01*
X437053Y447671D01*
X436514Y448173D01*
X435987Y448687D01*
X435473Y449214D01*
X434971Y449753D01*
X434484Y450305D01*
X434010Y450868D01*
X433550Y451443D01*
X433104Y452029D01*
X432672Y452626D01*
X432256Y453233D01*
X431854Y453850D01*
X431468Y454477D01*
X431097Y455113D01*
X430742Y455758D01*
X430403Y456412D01*
X430080Y457073D01*
X429774Y457743D01*
X429484Y458419D01*
X429210Y459103D01*
X428954Y459793D01*
X428714Y460490D01*
X428492Y461191D01*
X428287Y461899D01*
X428099Y462611D01*
X427929Y463327D01*
X427776Y464047D01*
X427642Y464771D01*
X427525Y465498D01*
X427426Y466228D01*
X427344Y466959D01*
X427281Y467693D01*
X427236Y468428D01*
X427209Y469164D01*
X427200Y469900D01*
X236700Y38100D02*
X236709Y38836D01*
X236736Y39572D01*
X236781Y40307D01*
X236844Y41041D01*
X236926Y41772D01*
X237025Y42502D01*
X237142Y43229D01*
X237276Y43953D01*
X237429Y44673D01*
X237599Y45389D01*
X237787Y46101D01*
X237992Y46809D01*
X238214Y47510D01*
X238454Y48207D01*
X238710Y48897D01*
X238984Y49581D01*
X239274Y50257D01*
X239580Y50927D01*
X239903Y51588D01*
X240242Y52242D01*
X240597Y52887D01*
X240968Y53523D01*
X241354Y54150D01*
X241756Y54767D01*
X242172Y55374D01*
X242604Y55971D01*
X243050Y56557D01*
X243510Y57132D01*
X243984Y57695D01*
X244471Y58247D01*
X244973Y58786D01*
X245487Y59313D01*
X246014Y59827D01*
X246553Y60329D01*
X247105Y60816D01*
X247668Y61290D01*
X248243Y61750D01*
X248829Y62196D01*
X249426Y62628D01*
X250033Y63044D01*
X250650Y63446D01*
X251277Y63832D01*
X251913Y64203D01*
X252558Y64558D01*
X253212Y64897D01*
X253873Y65220D01*
X254543Y65526D01*
X255219Y65816D01*
X255903Y66090D01*
X256593Y66346D01*
X257290Y66586D01*
X257991Y66808D01*
X258699Y67013D01*
X259411Y67201D01*
X260127Y67371D01*
X260847Y67524D01*
X261571Y67658D01*
X262298Y67775D01*
X263028Y67874D01*
X263759Y67956D01*
X264493Y68019D01*
X265228Y68064D01*
X265964Y68091D01*
X266700Y68100D01*
X267436Y68091D01*
X268172Y68064D01*
X268907Y68019D01*
X269641Y67956D01*
X270372Y67874D01*
X271102Y67775D01*
X271829Y67658D01*
X272553Y67524D01*
X273273Y67371D01*
X273989Y67201D01*
X274701Y67013D01*
X275409Y66808D01*
X276110Y66586D01*
X276807Y66346D01*
X277497Y66090D01*
X278181Y65816D01*
X278857Y65526D01*
X279527Y65220D01*
X280188Y64897D01*
X280842Y64558D01*
X281487Y64203D01*
X282123Y63832D01*
X282750Y63446D01*
X283367Y63044D01*
X283974Y62628D01*
X284571Y62196D01*
X285157Y61750D01*
X285732Y61290D01*
X286295Y60816D01*
X286847Y60329D01*
X287386Y59827D01*
X287913Y59313D01*
X288427Y58786D01*
X288929Y58247D01*
X289416Y57695D01*
X289890Y57132D01*
X290350Y56557D01*
X290796Y55971D01*
X291228Y55374D01*
X291644Y54767D01*
X292046Y54150D01*
X292432Y53523D01*
X292803Y52887D01*
X293158Y52242D01*
X293497Y51588D01*
X293820Y50927D01*
X294126Y50257D01*
X294416Y49581D01*
X294690Y48897D01*
X294946Y48207D01*
X295186Y47510D01*
X295408Y46809D01*
X295613Y46101D01*
X295801Y45389D01*
X295971Y44673D01*
X296124Y43953D01*
X296258Y43229D01*
X296375Y42502D01*
X296474Y41772D01*
X296556Y41041D01*
X296619Y40307D01*
X296664Y39572D01*
X296691Y38836D01*
X296700Y38100D01*
X296691Y37364D01*
X296664Y36628D01*
X296619Y35893D01*
X296556Y35159D01*
X296474Y34428D01*
X296375Y33698D01*
X296258Y32971D01*
X296124Y32247D01*
X295971Y31527D01*
X295801Y30811D01*
X295613Y30099D01*
X295408Y29391D01*
X295186Y28690D01*
X294946Y27993D01*
X294690Y27303D01*
X294416Y26619D01*
X294126Y25943D01*
X293820Y25273D01*
X293497Y24612D01*
X293158Y23958D01*
X292803Y23313D01*
X292432Y22677D01*
X292046Y22050D01*
X291644Y21433D01*
X291228Y20826D01*
X290796Y20229D01*
X290350Y19643D01*
X289890Y19068D01*
X289416Y18505D01*
X288929Y17953D01*
X288427Y17414D01*
X287913Y16887D01*
X287386Y16373D01*
X286847Y15871D01*
X286295Y15384D01*
X285732Y14910D01*
X285157Y14450D01*
X284571Y14004D01*
X283974Y13572D01*
X283367Y13156D01*
X282750Y12754D01*
X282123Y12368D01*
X281487Y11997D01*
X280842Y11642D01*
X280188Y11303D01*
X279527Y10980D01*
X278857Y10674D01*
X278181Y10384D01*
X277497Y10110D01*
X276807Y9854D01*
X276110Y9614D01*
X275409Y9392D01*
X274701Y9187D01*
X273989Y8999D01*
X273273Y8829D01*
X272553Y8676D01*
X271829Y8542D01*
X271102Y8425D01*
X270372Y8326D01*
X269641Y8244D01*
X268907Y8181D01*
X268172Y8136D01*
X267436Y8109D01*
X266700Y8100D01*
X265964Y8109D01*
X265228Y8136D01*
X264493Y8181D01*
X263759Y8244D01*
X263028Y8326D01*
X262298Y8425D01*
X261571Y8542D01*
X260847Y8676D01*
X260127Y8829D01*
X259411Y8999D01*
X258699Y9187D01*
X257991Y9392D01*
X257290Y9614D01*
X256593Y9854D01*
X255903Y10110D01*
X255219Y10384D01*
X254543Y10674D01*
X253873Y10980D01*
X253212Y11303D01*
X252558Y11642D01*
X251913Y11997D01*
X251277Y12368D01*
X250650Y12754D01*
X250033Y13156D01*
X249426Y13572D01*
X248829Y14004D01*
X248243Y14450D01*
X247668Y14910D01*
X247105Y15384D01*
X246553Y15871D01*
X246014Y16373D01*
X245487Y16887D01*
X244973Y17414D01*
X244471Y17953D01*
X243984Y18505D01*
X243510Y19068D01*
X243050Y19643D01*
X242604Y20229D01*
X242172Y20826D01*
X241756Y21433D01*
X241354Y22050D01*
X240968Y22677D01*
X240597Y23313D01*
X240242Y23958D01*
X239903Y24612D01*
X239580Y25273D01*
X239274Y25943D01*
X238984Y26619D01*
X238710Y27303D01*
X238454Y27993D01*
X238214Y28690D01*
X237992Y29391D01*
X237787Y30099D01*
X237599Y30811D01*
X237429Y31527D01*
X237276Y32247D01*
X237142Y32971D01*
X237025Y33698D01*
X236926Y34428D01*
X236844Y35159D01*
X236781Y35893D01*
X236736Y36628D01*
X236709Y37364D01*
X236700Y38100D01*
X8100Y469900D02*
X8109Y470636D01*
X8136Y471372D01*
X8181Y472107D01*
X8244Y472841D01*
X8326Y473572D01*
X8425Y474302D01*
X8542Y475029D01*
X8676Y475753D01*
X8829Y476473D01*
X8999Y477189D01*
X9187Y477901D01*
X9392Y478609D01*
X9614Y479310D01*
X9854Y480007D01*
X10110Y480697D01*
X10384Y481381D01*
X10674Y482057D01*
X10980Y482727D01*
X11303Y483388D01*
X11642Y484042D01*
X11997Y484687D01*
X12368Y485323D01*
X12754Y485950D01*
X13156Y486567D01*
X13572Y487174D01*
X14004Y487771D01*
X14450Y488357D01*
X14910Y488932D01*
X15384Y489495D01*
X15871Y490047D01*
X16373Y490586D01*
X16887Y491113D01*
X17414Y491627D01*
X17953Y492129D01*
X18505Y492616D01*
X19068Y493090D01*
X19643Y493550D01*
X20229Y493996D01*
X20826Y494428D01*
X21433Y494844D01*
X22050Y495246D01*
X22677Y495632D01*
X23313Y496003D01*
X23958Y496358D01*
X24612Y496697D01*
X25273Y497020D01*
X25943Y497326D01*
X26619Y497616D01*
X27303Y497890D01*
X27993Y498146D01*
X28690Y498386D01*
X29391Y498608D01*
X30099Y498813D01*
X30811Y499001D01*
X31527Y499171D01*
X32247Y499324D01*
X32971Y499458D01*
X33698Y499575D01*
X34428Y499674D01*
X35159Y499756D01*
X35893Y499819D01*
X36628Y499864D01*
X37364Y499891D01*
X38100Y499900D01*
X38836Y499891D01*
X39572Y499864D01*
X40307Y499819D01*
X41041Y499756D01*
X41772Y499674D01*
X42502Y499575D01*
X43229Y499458D01*
X43953Y499324D01*
X44673Y499171D01*
X45389Y499001D01*
X46101Y498813D01*
X46809Y498608D01*
X47510Y498386D01*
X48207Y498146D01*
X48897Y497890D01*
X49581Y497616D01*
X50257Y497326D01*
X50927Y497020D01*
X51588Y496697D01*
X52242Y496358D01*
X52887Y496003D01*
X53523Y495632D01*
X54150Y495246D01*
X54767Y494844D01*
X55374Y494428D01*
X55971Y493996D01*
X56557Y493550D01*
X57132Y493090D01*
X57695Y492616D01*
X58247Y492129D01*
X58786Y491627D01*
X59313Y491113D01*
X59827Y490586D01*
X60329Y490047D01*
X60816Y489495D01*
X61290Y488932D01*
X61750Y488357D01*
X62196Y487771D01*
X62628Y487174D01*
X63044Y486567D01*
X63446Y485950D01*
X63832Y485323D01*
X64203Y484687D01*
X64558Y484042D01*
X64897Y483388D01*
X65220Y482727D01*
X65526Y482057D01*
X65816Y481381D01*
X66090Y480697D01*
X66346Y480007D01*
X66586Y479310D01*
X66808Y478609D01*
X67013Y477901D01*
X67201Y477189D01*
X67371Y476473D01*
X67524Y475753D01*
X67658Y475029D01*
X67775Y474302D01*
X67874Y473572D01*
X67956Y472841D01*
X68019Y472107D01*
X68064Y471372D01*
X68091Y470636D01*
X68100Y469900D01*
X68091Y469164D01*
X68064Y468428D01*
X68019Y467693D01*
X67956Y466959D01*
X67874Y466228D01*
X67775Y465498D01*
X67658Y464771D01*
X67524Y464047D01*
X67371Y463327D01*
X67201Y462611D01*
X67013Y461899D01*
X66808Y461191D01*
X66586Y460490D01*
X66346Y459793D01*
X66090Y459103D01*
X65816Y458419D01*
X65526Y457743D01*
X65220Y457073D01*
X64897Y456412D01*
X64558Y455758D01*
X64203Y455113D01*
X63832Y454477D01*
X63446Y453850D01*
X63044Y453233D01*
X62628Y452626D01*
X62196Y452029D01*
X61750Y451443D01*
X61290Y450868D01*
X60816Y450305D01*
X60329Y449753D01*
X59827Y449214D01*
X59313Y448687D01*
X58786Y448173D01*
X58247Y447671D01*
X57695Y447184D01*
X57132Y446710D01*
X56557Y446250D01*
X55971Y445804D01*
X55374Y445372D01*
X54767Y444956D01*
X54150Y444554D01*
X53523Y444168D01*
X52887Y443797D01*
X52242Y443442D01*
X51588Y443103D01*
X50927Y442780D01*
X50257Y442474D01*
X49581Y442184D01*
X48897Y441910D01*
X48207Y441654D01*
X47510Y441414D01*
X46809Y441192D01*
X46101Y440987D01*
X45389Y440799D01*
X44673Y440629D01*
X43953Y440476D01*
X43229Y440342D01*
X42502Y440225D01*
X41772Y440126D01*
X41041Y440044D01*
X40307Y439981D01*
X39572Y439936D01*
X38836Y439909D01*
X38100Y439900D01*
X37364Y439909D01*
X36628Y439936D01*
X35893Y439981D01*
X35159Y440044D01*
X34428Y440126D01*
X33698Y440225D01*
X32971Y440342D01*
X32247Y440476D01*
X31527Y440629D01*
X30811Y440799D01*
X30099Y440987D01*
X29391Y441192D01*
X28690Y441414D01*
X27993Y441654D01*
X27303Y441910D01*
X26619Y442184D01*
X25943Y442474D01*
X25273Y442780D01*
X24612Y443103D01*
X23958Y443442D01*
X23313Y443797D01*
X22677Y444168D01*
X22050Y444554D01*
X21433Y444956D01*
X20826Y445372D01*
X20229Y445804D01*
X19643Y446250D01*
X19068Y446710D01*
X18505Y447184D01*
X17953Y447671D01*
X17414Y448173D01*
X16887Y448687D01*
X16373Y449214D01*
X15871Y449753D01*
X15384Y450305D01*
X14910Y450868D01*
X14450Y451443D01*
X14004Y452029D01*
X13572Y452626D01*
X13156Y453233D01*
X12754Y453850D01*
X12368Y454477D01*
X11997Y455113D01*
X11642Y455758D01*
X11303Y456412D01*
X10980Y457073D01*
X10674Y457743D01*
X10384Y458419D01*
X10110Y459103D01*
X9854Y459793D01*
X9614Y460490D01*
X9392Y461191D01*
X9187Y461899D01*
X8999Y462611D01*
X8829Y463327D01*
X8676Y464047D01*
X8542Y464771D01*
X8425Y465498D01*
X8326Y466228D01*
X8244Y466959D01*
X8181Y467693D01*
X8136Y468428D01*
X8109Y469164D01*
X8100Y469900D01*
D12*
X0Y0D02*
X508000Y0D01*
X508000Y508000D01*
X0Y508000D01*
X0Y0D01*
X487200Y469164D02*
X487128Y467692D01*
X486983Y466227D01*
X486767Y464770D01*
X486480Y463325D01*
X486122Y461896D01*
X485694Y460487D01*
X485198Y459100D01*
X484635Y457739D01*
X484005Y456408D01*
X483310Y455109D01*
X482553Y453845D01*
X481735Y452621D01*
X480858Y451438D01*
X479923Y450299D01*
X478934Y449208D01*
X477892Y448166D01*
X476801Y447177D01*
X475663Y446242D01*
X474479Y445365D01*
X473255Y444547D01*
X471991Y443790D01*
X470692Y443095D01*
X469361Y442465D01*
X468000Y441902D01*
X466613Y441406D01*
X465204Y440978D01*
X463775Y440620D01*
X462330Y440333D01*
X460873Y440117D01*
X459408Y439972D01*
X457936Y439900D01*
X456464Y439900D01*
X454992Y439972D01*
X453527Y440117D01*
X452070Y440333D01*
X450625Y440620D01*
X449196Y440978D01*
X447787Y441406D01*
X446400Y441902D01*
X445039Y442465D01*
X443708Y443095D01*
X442409Y443790D01*
X441145Y444547D01*
X439921Y445365D01*
X438738Y446242D01*
X437599Y447177D01*
X436508Y448166D01*
X435466Y449208D01*
X434477Y450299D01*
X433542Y451438D01*
X432665Y452621D01*
X431847Y453845D01*
X431090Y455109D01*
X430395Y456408D01*
X429765Y457739D01*
X429202Y459100D01*
X428706Y460487D01*
X428278Y461896D01*
X427920Y463325D01*
X427633Y464770D01*
X427417Y466227D01*
X427272Y467692D01*
X427200Y469164D01*
X427200Y470636D01*
X427272Y472108D01*
X427417Y473573D01*
X427633Y475030D01*
X427920Y476475D01*
X428278Y477904D01*
X428706Y479313D01*
X429202Y480700D01*
X429765Y482061D01*
X430395Y483392D01*
X431090Y484691D01*
X431847Y485955D01*
X432665Y487179D01*
X433542Y488363D01*
X434477Y489501D01*
X435466Y490592D01*
X436508Y491634D01*
X437599Y492623D01*
X438738Y493558D01*
X439921Y494435D01*
X441145Y495253D01*
X442409Y496010D01*
X443708Y496705D01*
X445039Y497335D01*
X446400Y497898D01*
X447787Y498394D01*
X449196Y498822D01*
X450625Y499180D01*
X452070Y499467D01*
X453527Y499683D01*
X454992Y499828D01*
X456464Y499900D01*
X457936Y499900D01*
X459408Y499828D01*
X460873Y499683D01*
X462330Y499467D01*
X463775Y499180D01*
X465204Y498822D01*
X466613Y498394D01*
X468000Y497898D01*
X469361Y497335D01*
X470692Y496705D01*
X471991Y496010D01*
X473255Y495253D01*
X474479Y494435D01*
X475663Y493558D01*
X476801Y492623D01*
X477892Y491634D01*
X478934Y490592D01*
X479923Y489501D01*
X480858Y488363D01*
X481735Y487179D01*
X482553Y485955D01*
X483310Y484691D01*
X484005Y483392D01*
X484635Y482061D01*
X485198Y480700D01*
X485694Y479313D01*
X486122Y477904D01*
X486480Y476475D01*
X486767Y475030D01*
X486983Y473573D01*
X487128Y472108D01*
X487200Y470636D01*
X487200Y469164D01*
X296700Y37364D02*
X296628Y35892D01*
X296483Y34427D01*
X296267Y32970D01*
X295980Y31525D01*
X295622Y30096D01*
X295194Y28687D01*
X294698Y27300D01*
X294135Y25939D01*
X293505Y24608D01*
X292810Y23309D01*
X292053Y22045D01*
X291235Y20821D01*
X290358Y19638D01*
X289423Y18499D01*
X288434Y17408D01*
X287392Y16366D01*
X286301Y15377D01*
X285163Y14442D01*
X283979Y13565D01*
X282755Y12747D01*
X281491Y11990D01*
X280192Y11295D01*
X278861Y10665D01*
X277500Y10102D01*
X276113Y9606D01*
X274704Y9178D01*
X273275Y8820D01*
X271830Y8533D01*
X270373Y8317D01*
X268908Y8172D01*
X267436Y8100D01*
X265964Y8100D01*
X264492Y8172D01*
X263027Y8317D01*
X261570Y8533D01*
X260125Y8820D01*
X258696Y9178D01*
X257287Y9606D01*
X255900Y10102D01*
X254539Y10665D01*
X253208Y11295D01*
X251909Y11990D01*
X250645Y12747D01*
X249421Y13565D01*
X248238Y14442D01*
X247099Y15377D01*
X246008Y16366D01*
X244966Y17408D01*
X243977Y18499D01*
X243042Y19638D01*
X242165Y20821D01*
X241347Y22045D01*
X240590Y23309D01*
X239895Y24608D01*
X239265Y25939D01*
X238702Y27300D01*
X238206Y28687D01*
X237778Y30096D01*
X237420Y31525D01*
X237133Y32970D01*
X236917Y34427D01*
X236772Y35892D01*
X236700Y37364D01*
X236700Y38836D01*
X236772Y40308D01*
X236917Y41773D01*
X237133Y43230D01*
X237420Y44675D01*
X237778Y46104D01*
X238206Y47513D01*
X238702Y48900D01*
X239265Y50261D01*
X239895Y51592D01*
X240590Y52891D01*
X241347Y54155D01*
X242165Y55379D01*
X243042Y56563D01*
X243977Y57701D01*
X244966Y58792D01*
X246008Y59834D01*
X247099Y60823D01*
X248238Y61758D01*
X249421Y62635D01*
X250645Y63453D01*
X251909Y64210D01*
X253208Y64905D01*
X254539Y65535D01*
X255900Y66098D01*
X257287Y66594D01*
X258696Y67022D01*
X260125Y67380D01*
X261570Y67667D01*
X263027Y67883D01*
X264492Y68028D01*
X265964Y68100D01*
X267436Y68100D01*
X268908Y68028D01*
X270373Y67883D01*
X271830Y67667D01*
X273275Y67380D01*
X274704Y67022D01*
X276113Y66594D01*
X277500Y66098D01*
X278861Y65535D01*
X280192Y64905D01*
X281491Y64210D01*
X282755Y63453D01*
X283979Y62635D01*
X285163Y61758D01*
X286301Y60823D01*
X287392Y59834D01*
X288434Y58792D01*
X289423Y57701D01*
X290358Y56563D01*
X291235Y55379D01*
X292053Y54155D01*
X292810Y52891D01*
X293505Y51592D01*
X294135Y50261D01*
X294698Y48900D01*
X295194Y47513D01*
X295622Y46104D01*
X295980Y44675D01*
X296267Y43230D01*
X296483Y41773D01*
X296628Y40308D01*
X296700Y38836D01*
X296700Y37364D01*
X68100Y469164D02*
X68028Y467692D01*
X67883Y466227D01*
X67667Y464770D01*
X67380Y463325D01*
X67022Y461896D01*
X66594Y460487D01*
X66098Y459100D01*
X65535Y457739D01*
X64905Y456408D01*
X64210Y455109D01*
X63453Y453845D01*
X62635Y452621D01*
X61758Y451438D01*
X60823Y450299D01*
X59834Y449208D01*
X58792Y448166D01*
X57701Y447177D01*
X56563Y446242D01*
X55379Y445365D01*
X54155Y444547D01*
X52891Y443790D01*
X51592Y443095D01*
X50261Y442465D01*
X48900Y441902D01*
X47513Y441406D01*
X46104Y440978D01*
X44675Y440620D01*
X43230Y440333D01*
X41773Y440117D01*
X40308Y439972D01*
X38836Y439900D01*
X37364Y439900D01*
X35892Y439972D01*
X34427Y440117D01*
X32970Y440333D01*
X31525Y440620D01*
X30096Y440978D01*
X28687Y441406D01*
X27300Y441902D01*
X25939Y442465D01*
X24608Y443095D01*
X23309Y443790D01*
X22045Y444547D01*
X20821Y445365D01*
X19638Y446242D01*
X18499Y447177D01*
X17408Y448166D01*
X16366Y449208D01*
X15377Y450299D01*
X14442Y451438D01*
X13565Y452621D01*
X12747Y453845D01*
X11990Y455109D01*
X11295Y456408D01*
X10665Y457739D01*
X10102Y459100D01*
X9606Y460487D01*
X9178Y461896D01*
X8820Y463325D01*
X8533Y464770D01*
X8317Y466227D01*
X8172Y467692D01*
X8100Y469164D01*
X8100Y470636D01*
X8172Y472108D01*
X8317Y473573D01*
X8533Y475030D01*
X8820Y476475D01*
X9178Y477904D01*
X9606Y479313D01*
X10102Y480700D01*
X10665Y482061D01*
X11295Y483392D01*
X11990Y484691D01*
X12747Y485955D01*
X13565Y487179D01*
X14442Y488363D01*
X15377Y489501D01*
X16366Y490592D01*
X17408Y491634D01*
X18499Y492623D01*
X19638Y493558D01*
X20821Y494435D01*
X22045Y495253D01*
X23309Y496010D01*
X24608Y496705D01*
X25939Y497335D01*
X27300Y497898D01*
X28687Y498394D01*
X30096Y498822D01*
X31525Y499180D01*
X32970Y499467D01*
X34427Y499683D01*
X35892Y499828D01*
X37364Y499900D01*
X38836Y499900D01*
X40308Y499828D01*
X41773Y499683D01*
X43230Y499467D01*
X44675Y499180D01*
X46104Y498822D01*
X47513Y498394D01*
X48900Y497898D01*
X50261Y497335D01*
X51592Y496705D01*
X52891Y496010D01*
X54155Y495253D01*
X55379Y494435D01*
X56563Y493558D01*
X57701Y492623D01*
X58792Y491634D01*
X59834Y490592D01*
X60823Y489501D01*
X61758Y488363D01*
X62635Y487179D01*
X63453Y485955D01*
X64210Y484691D01*
X64905Y483392D01*
X65535Y482061D01*
X66098Y480700D01*
X66594Y479313D01*
X67022Y477904D01*
X67380Y476475D01*
X67667Y475030D01*
X67883Y473573D01*
X68028Y472108D01*
X68100Y470636D01*
X68100Y469164D01*
M02*
