G04 EAGLE Gerber RS-274X export*
G75*
%MOMM*%
%FSLAX34Y34*%
%LPD*%
%INBottom Copper*%
%IPPOS*%
%AMOC8*
5,1,8,0,0,1.08239X$1,22.5*%
G01*
%ADD10C,1.625600*%
%ADD11C,1.422400*%
%ADD12C,1.422400*%
%ADD13C,1.509600*%
%ADD14C,1.016000*%
%ADD15C,0.508000*%
%ADD16C,0.254000*%

G36*
X505419Y2615D02*
X505419Y2615D01*
X505417Y2618D01*
X505419Y2620D01*
X505419Y505380D01*
X505385Y505419D01*
X505382Y505417D01*
X505380Y505419D01*
X2620Y505419D01*
X2581Y505385D01*
X2583Y505382D01*
X2581Y505380D01*
X2581Y367475D01*
X2590Y367464D01*
X2589Y367451D01*
X2603Y367450D01*
X2615Y367436D01*
X2629Y367448D01*
X2648Y367447D01*
X7608Y372407D01*
X9852Y374651D01*
X67618Y374651D01*
X73592Y368677D01*
X73606Y368676D01*
X73615Y368666D01*
X73618Y368668D01*
X73620Y368665D01*
X73630Y368675D01*
X73644Y368674D01*
X73645Y368687D01*
X73659Y368700D01*
X73657Y368702D01*
X73659Y368705D01*
X73659Y389544D01*
X73640Y389565D01*
X73635Y389580D01*
X73153Y389779D01*
X71009Y391923D01*
X69849Y394724D01*
X69849Y397756D01*
X71009Y400557D01*
X73153Y402701D01*
X75954Y403861D01*
X78986Y403861D01*
X81787Y402701D01*
X83931Y400557D01*
X85091Y397756D01*
X85091Y394724D01*
X83931Y391923D01*
X81787Y389779D01*
X81305Y389580D01*
X81293Y389556D01*
X81288Y389551D01*
X81289Y389551D01*
X81281Y389544D01*
X81281Y368625D01*
X81293Y368611D01*
X81292Y368597D01*
X121921Y327968D01*
X121921Y310205D01*
X121933Y310191D01*
X121932Y310177D01*
X130429Y301680D01*
X130458Y301678D01*
X130472Y301672D01*
X130668Y301753D01*
X148732Y301753D01*
X152280Y300283D01*
X154995Y297568D01*
X156465Y294020D01*
X156465Y290180D01*
X154995Y286632D01*
X152804Y284441D01*
X152801Y284389D01*
X152804Y284389D01*
X152804Y284385D01*
X153007Y284182D01*
X153059Y284179D01*
X153059Y284182D01*
X153063Y284182D01*
X158583Y289702D01*
X158584Y289721D01*
X158593Y289729D01*
X158587Y289735D01*
X158592Y289745D01*
X158495Y289978D01*
X158495Y294222D01*
X160119Y298143D01*
X163121Y301145D01*
X167042Y302769D01*
X187542Y302769D01*
X191463Y301145D01*
X194465Y298143D01*
X196089Y294222D01*
X196089Y289978D01*
X194465Y286057D01*
X191463Y283055D01*
X187542Y281431D01*
X167042Y281431D01*
X163121Y283055D01*
X162945Y283231D01*
X162894Y283234D01*
X162893Y283231D01*
X162890Y283231D01*
X155248Y275589D01*
X150822Y275589D01*
X149563Y276848D01*
X149544Y276849D01*
X149535Y276859D01*
X129865Y276859D01*
X129851Y276847D01*
X129837Y276848D01*
X128578Y275589D01*
X124152Y275589D01*
X109219Y290522D01*
X109219Y322255D01*
X109207Y322269D01*
X109208Y322283D01*
X64473Y367018D01*
X64454Y367019D01*
X64445Y367029D01*
X13025Y367029D01*
X13011Y367017D01*
X12997Y367018D01*
X8902Y362923D01*
X8901Y362909D01*
X8892Y362901D01*
X8894Y362898D01*
X8891Y362895D01*
X8891Y362401D01*
X8900Y362391D01*
X8899Y362377D01*
X8913Y362376D01*
X8925Y362362D01*
X8939Y362375D01*
X8958Y362374D01*
X11229Y364645D01*
X15150Y366269D01*
X35650Y366269D01*
X39571Y364645D01*
X42573Y361643D01*
X44197Y357722D01*
X44197Y353478D01*
X42573Y349557D01*
X39571Y346555D01*
X35650Y344931D01*
X15150Y344931D01*
X11229Y346555D01*
X8958Y348826D01*
X8944Y348827D01*
X8935Y348838D01*
X8925Y348829D01*
X8906Y348830D01*
X8905Y348811D01*
X8891Y348799D01*
X8891Y348305D01*
X8903Y348291D01*
X8902Y348277D01*
X11431Y345748D01*
X11431Y344495D01*
X11443Y344481D01*
X11442Y344467D01*
X15054Y340855D01*
X15083Y340853D01*
X15097Y340847D01*
X15150Y340869D01*
X35650Y340869D01*
X39571Y339245D01*
X42573Y336243D01*
X44197Y332322D01*
X44197Y328078D01*
X42573Y324157D01*
X39571Y321155D01*
X35650Y319531D01*
X15150Y319531D01*
X11229Y321155D01*
X8227Y324157D01*
X6603Y328078D01*
X6603Y332322D01*
X8227Y336243D01*
X8530Y336546D01*
X8533Y336597D01*
X8530Y336598D01*
X8530Y336601D01*
X6053Y339078D01*
X3809Y341322D01*
X3809Y342575D01*
X3797Y342589D01*
X3798Y342603D01*
X3513Y342888D01*
X2648Y343753D01*
X2634Y343754D01*
X2625Y343764D01*
X2615Y343755D01*
X2596Y343756D01*
X2595Y343738D01*
X2581Y343725D01*
X2581Y189675D01*
X2590Y189664D01*
X2589Y189651D01*
X2603Y189650D01*
X2615Y189636D01*
X2627Y189646D01*
X2631Y189646D01*
X2633Y189648D01*
X2648Y189647D01*
X3798Y190797D01*
X3799Y190811D01*
X3808Y190819D01*
X3806Y190822D01*
X3809Y190825D01*
X3809Y192078D01*
X6053Y194322D01*
X8530Y196799D01*
X8531Y196817D01*
X8539Y196824D01*
X8532Y196832D01*
X8533Y196851D01*
X8530Y196851D01*
X8530Y196854D01*
X8227Y197157D01*
X6603Y201078D01*
X6603Y205322D01*
X8227Y209243D01*
X11229Y212245D01*
X15150Y213869D01*
X35650Y213869D01*
X39571Y212245D01*
X42573Y209243D01*
X44197Y205322D01*
X44197Y201078D01*
X42573Y197157D01*
X39571Y194155D01*
X35650Y192531D01*
X15150Y192531D01*
X15097Y192553D01*
X15089Y192551D01*
X15076Y192551D01*
X15068Y192544D01*
X15054Y192545D01*
X11442Y188933D01*
X11441Y188914D01*
X11431Y188905D01*
X11431Y187652D01*
X8902Y185123D01*
X8901Y185107D01*
X8891Y185098D01*
X8892Y185097D01*
X8891Y185095D01*
X8891Y184601D01*
X8900Y184591D01*
X8899Y184577D01*
X8913Y184576D01*
X8925Y184562D01*
X8939Y184575D01*
X8958Y184574D01*
X11229Y186845D01*
X15150Y188469D01*
X35650Y188469D01*
X39571Y186845D01*
X42573Y183843D01*
X44197Y179922D01*
X44197Y175678D01*
X42573Y171757D01*
X42270Y171454D01*
X42269Y171442D01*
X42267Y171439D01*
X42269Y171436D01*
X42267Y171403D01*
X42270Y171402D01*
X42270Y171399D01*
X115867Y97802D01*
X115886Y97801D01*
X115895Y97791D01*
X227887Y97791D01*
X227898Y97800D01*
X227911Y97799D01*
X227912Y97813D01*
X227926Y97825D01*
X227914Y97839D01*
X227915Y97858D01*
X204498Y121275D01*
X204446Y121278D01*
X204446Y121275D01*
X204442Y121275D01*
X198640Y115473D01*
X198639Y115454D01*
X198629Y115445D01*
X198629Y111673D01*
X196618Y106818D01*
X192902Y103102D01*
X188047Y101091D01*
X166537Y101091D01*
X161682Y103102D01*
X157966Y106818D01*
X155955Y111673D01*
X155955Y116927D01*
X157966Y121782D01*
X161682Y125498D01*
X166537Y127509D01*
X188047Y127509D01*
X188783Y127204D01*
X188810Y127214D01*
X188825Y127213D01*
X196838Y135225D01*
X196839Y135238D01*
X196842Y135241D01*
X196839Y135244D01*
X196849Y135253D01*
X196849Y217884D01*
X196830Y217906D01*
X196825Y217921D01*
X196075Y218231D01*
X196062Y218227D01*
X196049Y218233D01*
X196043Y218221D01*
X196025Y218215D01*
X196031Y218197D01*
X196023Y218180D01*
X196089Y218022D01*
X196089Y213778D01*
X194465Y209857D01*
X191463Y206855D01*
X187542Y205231D01*
X167042Y205231D01*
X166062Y205637D01*
X166049Y205633D01*
X166036Y205639D01*
X166030Y205627D01*
X166012Y205621D01*
X166019Y205603D01*
X166010Y205586D01*
X166371Y204716D01*
X166371Y201684D01*
X166010Y200814D01*
X166015Y200801D01*
X166009Y200789D01*
X166021Y200782D01*
X166027Y200765D01*
X166045Y200771D01*
X166062Y200763D01*
X167042Y201169D01*
X187542Y201169D01*
X191463Y199545D01*
X194465Y196543D01*
X196089Y192622D01*
X196089Y188378D01*
X194465Y184457D01*
X191463Y181455D01*
X187542Y179831D01*
X167042Y179831D01*
X163121Y181455D01*
X160119Y184457D01*
X158495Y188378D01*
X158495Y192622D01*
X159698Y195525D01*
X159697Y195528D01*
X159698Y195529D01*
X159696Y195531D01*
X159700Y195535D01*
X159690Y195547D01*
X159681Y195574D01*
X159669Y195570D01*
X159661Y195579D01*
X157234Y195579D01*
X156752Y195779D01*
X156725Y195769D01*
X156710Y195770D01*
X148602Y187663D01*
X148601Y187650D01*
X148600Y187649D01*
X148601Y187648D01*
X148601Y187644D01*
X148591Y187635D01*
X148591Y182572D01*
X129848Y163829D01*
X102562Y163829D01*
X100318Y166073D01*
X46693Y219698D01*
X44449Y221942D01*
X44449Y253675D01*
X44437Y253689D01*
X44438Y253703D01*
X44264Y253877D01*
X44250Y253878D01*
X44241Y253888D01*
X44231Y253879D01*
X44212Y253880D01*
X44211Y253862D01*
X44197Y253849D01*
X44197Y251878D01*
X42573Y247957D01*
X39571Y244955D01*
X35650Y243331D01*
X15150Y243331D01*
X11229Y244955D01*
X8227Y247957D01*
X6603Y251878D01*
X6603Y256122D01*
X8227Y260043D01*
X11229Y263045D01*
X15150Y264669D01*
X35650Y264669D01*
X38045Y263677D01*
X38051Y263679D01*
X38055Y263674D01*
X38067Y263684D01*
X38094Y263694D01*
X38090Y263705D01*
X38099Y263713D01*
X38099Y268278D01*
X40628Y270807D01*
X40629Y270826D01*
X40639Y270835D01*
X40639Y271329D01*
X40630Y271339D01*
X40631Y271353D01*
X40617Y271354D01*
X40605Y271368D01*
X40601Y271364D01*
X40600Y271365D01*
X40597Y271365D01*
X40586Y271356D01*
X40572Y271356D01*
X40478Y271262D01*
X39120Y270275D01*
X37623Y269513D01*
X36026Y268994D01*
X34368Y268731D01*
X25479Y268731D01*
X25479Y279321D01*
X44197Y279321D01*
X44197Y278560D01*
X43934Y276902D01*
X43415Y275305D01*
X43070Y274628D01*
X43075Y274607D01*
X43074Y274586D01*
X43081Y274585D01*
X43083Y274577D01*
X43108Y274584D01*
X43111Y274583D01*
X43112Y274583D01*
X43114Y274583D01*
X43133Y274582D01*
X51973Y283422D01*
X51973Y283428D01*
X51979Y283430D01*
X51974Y283445D01*
X51976Y283474D01*
X51964Y283475D01*
X51960Y283486D01*
X50920Y283917D01*
X48205Y286632D01*
X46735Y290180D01*
X46735Y294020D01*
X48205Y297568D01*
X50920Y300283D01*
X54468Y301753D01*
X72532Y301753D01*
X76080Y300283D01*
X78795Y297568D01*
X80265Y294020D01*
X80265Y290180D01*
X78795Y286632D01*
X76080Y283917D01*
X72532Y282447D01*
X61793Y282447D01*
X61779Y282435D01*
X61765Y282436D01*
X55749Y276420D01*
X55748Y276406D01*
X55738Y276397D01*
X55747Y276387D01*
X55746Y276368D01*
X55764Y276367D01*
X55777Y276353D01*
X72532Y276353D01*
X76080Y274883D01*
X78795Y272168D01*
X80265Y268620D01*
X80265Y264780D01*
X78795Y261232D01*
X76080Y258517D01*
X72532Y257047D01*
X71017Y257047D01*
X71006Y257038D01*
X70993Y257039D01*
X70992Y257025D01*
X70978Y257013D01*
X70990Y256999D01*
X70989Y256980D01*
X82551Y245418D01*
X82551Y211145D01*
X82563Y211131D01*
X82562Y211117D01*
X110422Y183257D01*
X110436Y183256D01*
X110445Y183246D01*
X110448Y183248D01*
X110450Y183248D01*
X110457Y183255D01*
X110474Y183254D01*
X110475Y183271D01*
X110489Y183283D01*
X110488Y183284D01*
X110489Y183285D01*
X110489Y239006D01*
X111649Y241807D01*
X112385Y242542D01*
X112388Y242594D01*
X112385Y242594D01*
X112385Y242598D01*
X84589Y270394D01*
X82439Y272543D01*
X81279Y275344D01*
X81279Y296547D01*
X81267Y296561D01*
X81268Y296575D01*
X72547Y305296D01*
X72528Y305297D01*
X72519Y305307D01*
X53963Y305307D01*
X49481Y307164D01*
X46052Y310593D01*
X44195Y315075D01*
X44195Y319925D01*
X46052Y324407D01*
X49481Y327836D01*
X53963Y329693D01*
X73037Y329693D01*
X77519Y327836D01*
X80948Y324407D01*
X82805Y319925D01*
X82805Y316609D01*
X82817Y316595D01*
X82816Y316581D01*
X91372Y308025D01*
X91386Y308024D01*
X91395Y308014D01*
X91405Y308023D01*
X91424Y308022D01*
X91425Y308040D01*
X91439Y308053D01*
X91439Y310126D01*
X92599Y312927D01*
X94743Y315071D01*
X97544Y316231D01*
X100576Y316231D01*
X103377Y315071D01*
X105521Y312927D01*
X106681Y310126D01*
X106681Y307094D01*
X105521Y304293D01*
X103377Y302149D01*
X102895Y301950D01*
X102882Y301924D01*
X102871Y301914D01*
X102871Y282265D01*
X102883Y282251D01*
X102882Y282237D01*
X128567Y256552D01*
X128586Y256551D01*
X128595Y256541D01*
X150805Y256541D01*
X150819Y256553D01*
X150833Y256552D01*
X158583Y264302D01*
X158585Y264329D01*
X158591Y264334D01*
X158588Y264337D01*
X158592Y264345D01*
X158495Y264578D01*
X158495Y268822D01*
X160119Y272743D01*
X163121Y275745D01*
X167042Y277369D01*
X187542Y277369D01*
X191463Y275745D01*
X194465Y272743D01*
X196089Y268822D01*
X196089Y264578D01*
X194465Y260657D01*
X191463Y257655D01*
X187542Y256031D01*
X167042Y256031D01*
X163121Y257655D01*
X162945Y257831D01*
X162894Y257834D01*
X162893Y257831D01*
X162890Y257831D01*
X153978Y248919D01*
X127713Y248919D01*
X127702Y248910D01*
X127689Y248911D01*
X127688Y248897D01*
X127674Y248885D01*
X127686Y248871D01*
X127685Y248852D01*
X129656Y246881D01*
X135841Y240697D01*
X135870Y240695D01*
X135883Y240688D01*
X137188Y241229D01*
X142212Y241229D01*
X146854Y239306D01*
X150406Y235754D01*
X152329Y231112D01*
X152329Y226088D01*
X150406Y221446D01*
X146854Y217894D01*
X142212Y215971D01*
X137188Y215971D01*
X132546Y217894D01*
X128994Y221446D01*
X127071Y226088D01*
X127071Y227895D01*
X127059Y227909D01*
X127060Y227923D01*
X125798Y229185D01*
X125784Y229186D01*
X125775Y229196D01*
X125765Y229187D01*
X125746Y229188D01*
X125745Y229170D01*
X125731Y229157D01*
X125731Y193070D01*
X125750Y193048D01*
X125755Y193033D01*
X126406Y192764D01*
X128202Y190967D01*
X128216Y190966D01*
X128225Y190956D01*
X128235Y190965D01*
X128254Y190964D01*
X128255Y190983D01*
X128269Y190995D01*
X128269Y192016D01*
X129429Y194817D01*
X131573Y196961D01*
X134374Y198121D01*
X137406Y198121D01*
X140207Y196961D01*
X142351Y194817D01*
X143098Y193013D01*
X143103Y193011D01*
X143103Y193004D01*
X143118Y193003D01*
X143144Y192991D01*
X143149Y193001D01*
X143162Y193001D01*
X143213Y193052D01*
X151320Y201160D01*
X151321Y201173D01*
X151330Y201181D01*
X151322Y201189D01*
X151329Y201202D01*
X151129Y201684D01*
X151129Y204716D01*
X152289Y207517D01*
X154433Y209661D01*
X157234Y210821D01*
X159661Y210821D01*
X159666Y210825D01*
X159672Y210822D01*
X159678Y210836D01*
X159700Y210855D01*
X159692Y210864D01*
X159698Y210875D01*
X158495Y213778D01*
X158495Y218022D01*
X160119Y221943D01*
X163121Y224945D01*
X167042Y226569D01*
X187542Y226569D01*
X190445Y225366D01*
X190451Y225368D01*
X190455Y225364D01*
X190457Y225366D01*
X190459Y225364D01*
X190460Y225364D01*
X190474Y225376D01*
X190494Y225383D01*
X190491Y225391D01*
X190499Y225398D01*
X190497Y225400D01*
X190499Y225403D01*
X190499Y229351D01*
X191796Y232481D01*
X191789Y232500D01*
X191791Y232520D01*
X191782Y232521D01*
X191779Y232530D01*
X191756Y232522D01*
X191732Y232524D01*
X191463Y232255D01*
X187542Y230631D01*
X167042Y230631D01*
X163121Y232255D01*
X160119Y235257D01*
X158495Y239178D01*
X158495Y243422D01*
X160119Y247343D01*
X163121Y250345D01*
X167042Y251969D01*
X187542Y251969D01*
X191463Y250345D01*
X194465Y247343D01*
X196089Y243422D01*
X196089Y239178D01*
X194715Y235861D01*
X194721Y235842D01*
X194720Y235822D01*
X194728Y235822D01*
X194732Y235812D01*
X194755Y235820D01*
X194779Y235818D01*
X194904Y235944D01*
X198639Y237491D01*
X200027Y237491D01*
X200041Y237503D01*
X200055Y237502D01*
X210808Y248255D01*
X210809Y248272D01*
X210819Y248281D01*
X210818Y248282D01*
X210819Y248283D01*
X210819Y351375D01*
X210807Y351389D01*
X210808Y351403D01*
X209826Y352384D01*
X208279Y356119D01*
X208279Y360161D01*
X209826Y363896D01*
X211708Y365777D01*
X211709Y365791D01*
X211714Y365795D01*
X211709Y365801D01*
X211711Y365829D01*
X211708Y365829D01*
X211708Y365833D01*
X209538Y368003D01*
X192202Y385339D01*
X192184Y385340D01*
X192178Y385347D01*
X192171Y385347D01*
X192164Y385341D01*
X192150Y385342D01*
X192150Y385339D01*
X192147Y385339D01*
X191463Y384655D01*
X187542Y383031D01*
X167042Y383031D01*
X163121Y384655D01*
X160119Y387657D01*
X158495Y391578D01*
X158495Y395822D01*
X160119Y399743D01*
X163121Y402745D01*
X167042Y404369D01*
X187542Y404369D01*
X191463Y402745D01*
X194465Y399743D01*
X196089Y395822D01*
X196089Y392247D01*
X196101Y392233D01*
X196100Y392219D01*
X214927Y373392D01*
X214946Y373391D01*
X214955Y373381D01*
X225098Y373381D01*
X235450Y363030D01*
X235479Y363028D01*
X235492Y363021D01*
X235974Y363221D01*
X239006Y363221D01*
X241807Y362061D01*
X243951Y359917D01*
X245111Y357116D01*
X245111Y354084D01*
X243951Y351283D01*
X241807Y349139D01*
X239006Y347979D01*
X235974Y347979D01*
X233173Y349139D01*
X231029Y351283D01*
X229869Y354084D01*
X229869Y357116D01*
X230069Y357598D01*
X230059Y357625D01*
X230060Y357640D01*
X228668Y359033D01*
X228654Y359034D01*
X228645Y359044D01*
X228635Y359035D01*
X228616Y359036D01*
X228615Y359018D01*
X228601Y359005D01*
X228601Y356119D01*
X227054Y352384D01*
X226072Y351403D01*
X226071Y351384D01*
X226061Y351375D01*
X226061Y280113D01*
X226070Y280102D01*
X226069Y280089D01*
X226083Y280088D01*
X226095Y280074D01*
X226100Y280078D01*
X226105Y280078D01*
X226113Y280086D01*
X226128Y280085D01*
X226823Y280781D01*
X229624Y281941D01*
X232656Y281941D01*
X235457Y280781D01*
X237601Y278637D01*
X238761Y275836D01*
X238761Y272804D01*
X237601Y270003D01*
X235457Y267859D01*
X234975Y267660D01*
X234962Y267634D01*
X234951Y267624D01*
X234951Y243532D01*
X226072Y234653D01*
X226071Y234639D01*
X226063Y234632D01*
X226065Y234629D01*
X226061Y234625D01*
X226061Y171796D01*
X226080Y171775D01*
X226085Y171760D01*
X226567Y171561D01*
X227262Y170865D01*
X227276Y170864D01*
X227285Y170854D01*
X227295Y170863D01*
X227314Y170862D01*
X227315Y170880D01*
X227329Y170893D01*
X227329Y232718D01*
X313678Y319067D01*
X313679Y319080D01*
X313687Y319088D01*
X313685Y319091D01*
X313689Y319095D01*
X313689Y447348D01*
X328918Y462577D01*
X328919Y462596D01*
X328929Y462605D01*
X328929Y463667D01*
X328917Y463681D01*
X328918Y463694D01*
X328755Y463857D01*
X327131Y467778D01*
X327131Y472022D01*
X328755Y475943D01*
X331757Y478945D01*
X335678Y480569D01*
X356178Y480569D01*
X360099Y478945D01*
X363101Y475943D01*
X364725Y472022D01*
X364725Y467778D01*
X363101Y463857D01*
X360099Y460855D01*
X356178Y459231D01*
X336367Y459231D01*
X336353Y459219D01*
X336339Y459220D01*
X321322Y444203D01*
X321321Y444190D01*
X321318Y444187D01*
X321321Y444184D01*
X321311Y444175D01*
X321311Y328065D01*
X321320Y328054D01*
X321319Y328041D01*
X321333Y328040D01*
X321345Y328026D01*
X321359Y328038D01*
X321378Y328037D01*
X328918Y335577D01*
X328919Y335596D01*
X328929Y335605D01*
X328929Y336687D01*
X328917Y336701D01*
X328918Y336714D01*
X328775Y336857D01*
X327151Y340778D01*
X327151Y345022D01*
X328775Y348943D01*
X331777Y351945D01*
X335698Y353569D01*
X356198Y353569D01*
X360119Y351945D01*
X363121Y348943D01*
X364745Y345022D01*
X364745Y340778D01*
X363121Y336857D01*
X360119Y333855D01*
X356198Y332231D01*
X336367Y332231D01*
X336353Y332219D01*
X336339Y332220D01*
X326402Y322283D01*
X326401Y322264D01*
X326391Y322255D01*
X326391Y285442D01*
X278142Y237193D01*
X278141Y237174D01*
X278131Y237165D01*
X278131Y221693D01*
X278140Y221682D01*
X278139Y221669D01*
X278153Y221668D01*
X278165Y221654D01*
X278179Y221666D01*
X278198Y221665D01*
X278893Y222361D01*
X281694Y223521D01*
X284726Y223521D01*
X285208Y223321D01*
X285212Y223323D01*
X285227Y223323D01*
X285236Y223331D01*
X285250Y223330D01*
X325108Y263187D01*
X327140Y265219D01*
X327141Y265232D01*
X327146Y265237D01*
X327143Y265240D01*
X327151Y265247D01*
X327151Y268822D01*
X328775Y272743D01*
X331777Y275745D01*
X335698Y277369D01*
X356198Y277369D01*
X360119Y275745D01*
X363121Y272743D01*
X364745Y268822D01*
X364745Y264578D01*
X363121Y260657D01*
X360119Y257655D01*
X356198Y256031D01*
X335698Y256031D01*
X331777Y257655D01*
X331634Y257798D01*
X331616Y257799D01*
X331607Y257809D01*
X330525Y257809D01*
X330511Y257797D01*
X330497Y257798D01*
X290640Y217940D01*
X290638Y217917D01*
X290631Y217911D01*
X290635Y217906D01*
X290631Y217898D01*
X290831Y217416D01*
X290831Y214384D01*
X289671Y211583D01*
X287527Y209439D01*
X284726Y208279D01*
X283615Y208279D01*
X283604Y208270D01*
X283591Y208271D01*
X283590Y208257D01*
X283576Y208245D01*
X283588Y208231D01*
X283587Y208212D01*
X303531Y188268D01*
X303531Y82242D01*
X301287Y79998D01*
X297557Y76268D01*
X297556Y76254D01*
X297546Y76245D01*
X297555Y76235D01*
X297554Y76216D01*
X297572Y76215D01*
X297585Y76201D01*
X332415Y76201D01*
X332429Y76213D01*
X332443Y76212D01*
X365748Y109517D01*
X365749Y109530D01*
X365751Y109532D01*
X365749Y109535D01*
X365749Y109536D01*
X365759Y109545D01*
X365759Y423855D01*
X365747Y423869D01*
X365748Y423883D01*
X355811Y433820D01*
X355792Y433821D01*
X355783Y433831D01*
X335698Y433831D01*
X331777Y435455D01*
X328775Y438457D01*
X327151Y442378D01*
X327151Y446622D01*
X328775Y450543D01*
X331777Y453545D01*
X335698Y455169D01*
X356198Y455169D01*
X360119Y453545D01*
X363121Y450543D01*
X364745Y446622D01*
X364745Y442378D01*
X363160Y438553D01*
X363166Y438536D01*
X363165Y438535D01*
X363167Y438533D01*
X363170Y438525D01*
X363169Y438510D01*
X363221Y438458D01*
X363221Y437205D01*
X363233Y437191D01*
X363232Y437177D01*
X373381Y427028D01*
X373381Y106372D01*
X335588Y68579D01*
X278976Y68579D01*
X278959Y68565D01*
X278939Y68555D01*
X278942Y68550D01*
X278937Y68545D01*
X278954Y68525D01*
X278965Y68502D01*
X279260Y68423D01*
X286681Y64139D01*
X292739Y58081D01*
X297023Y50660D01*
X299241Y42384D01*
X299241Y33816D01*
X297023Y25540D01*
X292739Y18119D01*
X286681Y12061D01*
X279260Y7777D01*
X270984Y5559D01*
X262416Y5559D01*
X254140Y7777D01*
X246719Y12061D01*
X240661Y18119D01*
X236377Y25540D01*
X234159Y33816D01*
X234159Y42384D01*
X236377Y50660D01*
X240661Y58081D01*
X246719Y64139D01*
X254140Y68423D01*
X254435Y68502D01*
X254447Y68520D01*
X254463Y68535D01*
X254459Y68540D01*
X254463Y68545D01*
X254442Y68560D01*
X254424Y68579D01*
X100022Y68579D01*
X97778Y70823D01*
X2648Y165953D01*
X2634Y165954D01*
X2625Y165964D01*
X2615Y165955D01*
X2596Y165956D01*
X2595Y165938D01*
X2581Y165925D01*
X2581Y2620D01*
X2615Y2581D01*
X2618Y2583D01*
X2620Y2581D01*
X505380Y2581D01*
X505419Y2615D01*
G37*
G36*
X295875Y95715D02*
X295875Y95715D01*
X295894Y95714D01*
X295895Y95733D01*
X295909Y95745D01*
X295909Y185095D01*
X295897Y185109D01*
X295898Y185123D01*
X270509Y210512D01*
X270509Y240338D01*
X318758Y288587D01*
X318759Y288606D01*
X318769Y288615D01*
X318769Y313285D01*
X318760Y313296D01*
X318761Y313309D01*
X318747Y313310D01*
X318735Y313324D01*
X318732Y313321D01*
X318730Y313323D01*
X318728Y313323D01*
X318716Y313312D01*
X318702Y313313D01*
X234962Y229573D01*
X234961Y229554D01*
X234951Y229545D01*
X234951Y131156D01*
X234970Y131135D01*
X234975Y131120D01*
X235457Y130921D01*
X237601Y128777D01*
X238761Y125976D01*
X238761Y122944D01*
X237601Y120143D01*
X235457Y117999D01*
X232656Y116839D01*
X230583Y116839D01*
X230572Y116830D01*
X230559Y116831D01*
X230558Y116817D01*
X230544Y116805D01*
X230556Y116791D01*
X230555Y116772D01*
X250795Y96532D01*
X250814Y96531D01*
X250823Y96521D01*
X281525Y96521D01*
X281539Y96533D01*
X281553Y96532D01*
X282534Y97514D01*
X286269Y99061D01*
X290311Y99061D01*
X294046Y97514D01*
X295842Y95717D01*
X295856Y95716D01*
X295865Y95706D01*
X295875Y95715D01*
G37*
G36*
X242176Y76210D02*
X242176Y76210D01*
X242189Y76209D01*
X242190Y76223D01*
X242204Y76235D01*
X242192Y76249D01*
X242193Y76268D01*
X228303Y90158D01*
X228284Y90159D01*
X228275Y90169D01*
X112722Y90169D01*
X35746Y167145D01*
X35727Y167146D01*
X35719Y167156D01*
X35718Y167156D01*
X35710Y167150D01*
X35703Y167153D01*
X35650Y167131D01*
X15150Y167131D01*
X11229Y168755D01*
X8958Y171026D01*
X8944Y171027D01*
X8935Y171038D01*
X8925Y171029D01*
X8906Y171030D01*
X8905Y171011D01*
X8891Y170999D01*
X8891Y170505D01*
X8903Y170491D01*
X8902Y170477D01*
X103167Y76212D01*
X103186Y76211D01*
X103195Y76201D01*
X242165Y76201D01*
X242176Y76210D01*
G37*
%LPC*%
G36*
X33816Y437359D02*
X33816Y437359D01*
X25540Y439577D01*
X18119Y443861D01*
X12061Y449919D01*
X7777Y457340D01*
X5559Y465616D01*
X5559Y474184D01*
X7777Y482460D01*
X12061Y489881D01*
X18119Y495939D01*
X25540Y500223D01*
X33816Y502441D01*
X42384Y502441D01*
X50660Y500223D01*
X58081Y495939D01*
X64139Y489881D01*
X68423Y482460D01*
X70641Y474184D01*
X70641Y465616D01*
X68423Y457340D01*
X64139Y449919D01*
X58081Y443861D01*
X50660Y439577D01*
X42384Y437359D01*
X33816Y437359D01*
G37*
%LPD*%
%LPC*%
G36*
X452916Y437359D02*
X452916Y437359D01*
X444640Y439577D01*
X437219Y443861D01*
X431161Y449919D01*
X426877Y457340D01*
X424659Y465616D01*
X424659Y474184D01*
X426877Y482460D01*
X431161Y489881D01*
X437219Y495939D01*
X444640Y500223D01*
X452916Y502441D01*
X461484Y502441D01*
X469760Y500223D01*
X477181Y495939D01*
X483239Y489881D01*
X487523Y482460D01*
X489741Y474184D01*
X489741Y465616D01*
X487523Y457340D01*
X483239Y449919D01*
X477181Y443861D01*
X469760Y439577D01*
X461484Y437359D01*
X452916Y437359D01*
G37*
%LPD*%
%LPC*%
G36*
X442075Y117507D02*
X442075Y117507D01*
X437593Y119364D01*
X434164Y122793D01*
X432307Y127275D01*
X432307Y132125D01*
X434164Y136607D01*
X437593Y140036D01*
X440012Y141038D01*
X440018Y141051D01*
X440031Y141055D01*
X440027Y141068D01*
X440035Y141085D01*
X440018Y141093D01*
X440012Y141111D01*
X439032Y141517D01*
X436317Y144232D01*
X434847Y147780D01*
X434847Y151620D01*
X436317Y155168D01*
X439032Y157883D01*
X442580Y159353D01*
X446420Y159353D01*
X447042Y159095D01*
X447069Y159105D01*
X447085Y159104D01*
X478778Y190797D01*
X478779Y190811D01*
X478788Y190819D01*
X478786Y190821D01*
X478789Y190825D01*
X478789Y291754D01*
X478770Y291775D01*
X478765Y291790D01*
X478283Y291989D01*
X476139Y294133D01*
X474979Y296934D01*
X474979Y299966D01*
X476139Y302767D01*
X478283Y304911D01*
X481084Y306071D01*
X484116Y306071D01*
X486917Y304911D01*
X489061Y302767D01*
X490221Y299966D01*
X490221Y296934D01*
X489061Y294133D01*
X486917Y291989D01*
X486435Y291790D01*
X486422Y291764D01*
X486411Y291754D01*
X486411Y187652D01*
X453066Y154307D01*
X453065Y154293D01*
X453058Y154287D01*
X453064Y154279D01*
X453064Y154278D01*
X453058Y154264D01*
X454153Y151620D01*
X454153Y147780D01*
X452683Y144232D01*
X449968Y141517D01*
X448988Y141111D01*
X448982Y141099D01*
X448969Y141094D01*
X448973Y141081D01*
X448965Y141064D01*
X448982Y141056D01*
X448988Y141038D01*
X451407Y140036D01*
X454836Y136607D01*
X456693Y132125D01*
X456693Y127275D01*
X454836Y122793D01*
X451407Y119364D01*
X446925Y117507D01*
X442075Y117507D01*
G37*
%LPD*%
%LPC*%
G36*
X106434Y355599D02*
X106434Y355599D01*
X103633Y356759D01*
X101489Y358903D01*
X100329Y361704D01*
X100329Y364736D01*
X101489Y367537D01*
X103633Y369681D01*
X104115Y369880D01*
X104128Y369906D01*
X104139Y369916D01*
X104139Y406708D01*
X160008Y462577D01*
X160009Y462596D01*
X160019Y462605D01*
X160019Y463858D01*
X160071Y463910D01*
X160073Y463939D01*
X160080Y463953D01*
X158495Y467778D01*
X158495Y472022D01*
X160119Y475943D01*
X163121Y478945D01*
X167042Y480569D01*
X187542Y480569D01*
X191463Y478945D01*
X194465Y475943D01*
X196089Y472022D01*
X196089Y467778D01*
X194465Y463857D01*
X191463Y460855D01*
X187542Y459231D01*
X167457Y459231D01*
X167443Y459219D01*
X167429Y459220D01*
X111772Y403563D01*
X111771Y403544D01*
X111761Y403535D01*
X111761Y369916D01*
X111780Y369895D01*
X111785Y369880D01*
X112267Y369681D01*
X114411Y367537D01*
X115571Y364736D01*
X115571Y361704D01*
X114411Y358903D01*
X112267Y356759D01*
X109466Y355599D01*
X106434Y355599D01*
G37*
%LPD*%
%LPC*%
G36*
X401275Y343407D02*
X401275Y343407D01*
X396793Y345264D01*
X393364Y348693D01*
X392362Y351112D01*
X392349Y351118D01*
X392345Y351131D01*
X392332Y351127D01*
X392315Y351135D01*
X392307Y351118D01*
X392289Y351112D01*
X391883Y350132D01*
X389168Y347417D01*
X385620Y345947D01*
X381780Y345947D01*
X378232Y347417D01*
X375517Y350132D01*
X374047Y353680D01*
X374047Y357520D01*
X375517Y361068D01*
X378232Y363783D01*
X381780Y365253D01*
X382707Y365253D01*
X382721Y365265D01*
X382735Y365264D01*
X397202Y379731D01*
X422564Y379731D01*
X422585Y379750D01*
X422600Y379755D01*
X422799Y380237D01*
X424943Y382381D01*
X427744Y383541D01*
X430776Y383541D01*
X433577Y382381D01*
X435721Y380237D01*
X436881Y377436D01*
X436881Y374404D01*
X435721Y371603D01*
X433577Y369459D01*
X430776Y368299D01*
X427744Y368299D01*
X424943Y369459D01*
X422799Y371603D01*
X422600Y372085D01*
X422574Y372098D01*
X422564Y372109D01*
X400375Y372109D01*
X400361Y372097D01*
X400347Y372098D01*
X390628Y362379D01*
X390626Y362356D01*
X390621Y362351D01*
X390626Y362346D01*
X390625Y362327D01*
X390628Y362327D01*
X390628Y362323D01*
X391883Y361068D01*
X392289Y360088D01*
X392301Y360082D01*
X392306Y360069D01*
X392319Y360073D01*
X392320Y360073D01*
X392323Y360070D01*
X392326Y360070D01*
X392336Y360065D01*
X392344Y360082D01*
X392362Y360088D01*
X393364Y362507D01*
X396793Y365936D01*
X401275Y367793D01*
X406125Y367793D01*
X410607Y365936D01*
X414036Y362507D01*
X415893Y358025D01*
X415893Y353175D01*
X414036Y348693D01*
X410607Y345264D01*
X406125Y343407D01*
X401275Y343407D01*
G37*
%LPD*%
%LPC*%
G36*
X391275Y193707D02*
X391275Y193707D01*
X386793Y195564D01*
X383364Y198993D01*
X381507Y203475D01*
X381507Y208325D01*
X383364Y212807D01*
X386793Y216236D01*
X389212Y217238D01*
X389218Y217251D01*
X389231Y217255D01*
X389227Y217268D01*
X389235Y217285D01*
X389218Y217293D01*
X389212Y217311D01*
X388232Y217717D01*
X385517Y220432D01*
X384047Y223980D01*
X384047Y227820D01*
X385517Y231368D01*
X388232Y234083D01*
X391780Y235553D01*
X395620Y235553D01*
X399168Y234083D01*
X400898Y232353D01*
X400916Y232352D01*
X400917Y232350D01*
X400935Y232350D01*
X400935Y232351D01*
X400950Y232350D01*
X400950Y232353D01*
X400954Y232353D01*
X408632Y240031D01*
X435264Y240031D01*
X435285Y240050D01*
X435300Y240055D01*
X435499Y240537D01*
X437643Y242681D01*
X440444Y243841D01*
X443476Y243841D01*
X446277Y242681D01*
X448421Y240537D01*
X449581Y237736D01*
X449581Y234704D01*
X448421Y231903D01*
X446277Y229759D01*
X443476Y228599D01*
X440444Y228599D01*
X437643Y229759D01*
X435499Y231903D01*
X435300Y232385D01*
X435274Y232398D01*
X435264Y232409D01*
X411805Y232409D01*
X411791Y232397D01*
X411777Y232398D01*
X403872Y224493D01*
X403354Y223975D01*
X403353Y223964D01*
X403345Y223962D01*
X401883Y220432D01*
X399168Y217717D01*
X398188Y217311D01*
X398182Y217299D01*
X398169Y217294D01*
X398173Y217281D01*
X398165Y217264D01*
X398182Y217256D01*
X398188Y217238D01*
X400607Y216236D01*
X404036Y212807D01*
X405893Y208325D01*
X405893Y203475D01*
X404036Y198993D01*
X400607Y195564D01*
X396125Y193707D01*
X391275Y193707D01*
G37*
%LPD*%
%LPC*%
G36*
X391275Y269907D02*
X391275Y269907D01*
X386793Y271764D01*
X383364Y275193D01*
X381507Y279675D01*
X381507Y284525D01*
X383364Y289007D01*
X386793Y292436D01*
X389212Y293438D01*
X389218Y293451D01*
X389231Y293455D01*
X389227Y293468D01*
X389235Y293485D01*
X389218Y293493D01*
X389212Y293511D01*
X388232Y293917D01*
X385517Y296632D01*
X384047Y300180D01*
X384047Y304020D01*
X385517Y307568D01*
X388232Y310283D01*
X391780Y311753D01*
X395620Y311753D01*
X399168Y310283D01*
X401883Y307568D01*
X401967Y307365D01*
X401993Y307352D01*
X402003Y307341D01*
X402898Y307341D01*
X407967Y302272D01*
X407986Y302271D01*
X407995Y302261D01*
X428914Y302261D01*
X428935Y302280D01*
X428950Y302285D01*
X429149Y302767D01*
X431293Y304911D01*
X434094Y306071D01*
X437126Y306071D01*
X439927Y304911D01*
X442071Y302767D01*
X443231Y299966D01*
X443231Y296934D01*
X442071Y294133D01*
X439927Y291989D01*
X437126Y290829D01*
X434094Y290829D01*
X431293Y291989D01*
X429149Y294133D01*
X428950Y294615D01*
X428924Y294628D01*
X428914Y294639D01*
X404822Y294639D01*
X402202Y297259D01*
X402195Y297260D01*
X402193Y297266D01*
X402182Y297262D01*
X402175Y297270D01*
X402173Y297270D01*
X402164Y297262D01*
X402150Y297262D01*
X402149Y297250D01*
X402138Y297246D01*
X401883Y296632D01*
X399168Y293917D01*
X398188Y293511D01*
X398182Y293499D01*
X398169Y293494D01*
X398173Y293481D01*
X398165Y293464D01*
X398182Y293456D01*
X398188Y293438D01*
X400607Y292436D01*
X404036Y289007D01*
X405893Y284525D01*
X405893Y279675D01*
X404036Y275193D01*
X400607Y271764D01*
X396125Y269907D01*
X391275Y269907D01*
G37*
%LPD*%
%LPC*%
G36*
X53963Y330707D02*
X53963Y330707D01*
X49481Y332564D01*
X46052Y335993D01*
X44195Y340475D01*
X44195Y345325D01*
X46052Y349807D01*
X49481Y353236D01*
X53963Y355093D01*
X73037Y355093D01*
X77519Y353236D01*
X80948Y349807D01*
X82805Y345325D01*
X82805Y340475D01*
X80948Y335993D01*
X77519Y332564D01*
X73037Y330707D01*
X53963Y330707D01*
G37*
%LPD*%
%LPC*%
G36*
X15150Y294131D02*
X15150Y294131D01*
X11229Y295755D01*
X8227Y298757D01*
X6603Y302678D01*
X6603Y306922D01*
X8227Y310843D01*
X11229Y313845D01*
X15150Y315469D01*
X35650Y315469D01*
X39571Y313845D01*
X42573Y310843D01*
X44197Y306922D01*
X44197Y302678D01*
X42573Y298757D01*
X39571Y295755D01*
X35650Y294131D01*
X15150Y294131D01*
G37*
%LPD*%
%LPC*%
G36*
X335698Y306831D02*
X335698Y306831D01*
X331777Y308455D01*
X328775Y311457D01*
X327151Y315378D01*
X327151Y319622D01*
X328775Y323543D01*
X331777Y326545D01*
X335698Y328169D01*
X356198Y328169D01*
X360119Y326545D01*
X363121Y323543D01*
X364745Y319622D01*
X364745Y315378D01*
X363121Y311457D01*
X360119Y308455D01*
X356198Y306831D01*
X335698Y306831D01*
G37*
%LPD*%
%LPC*%
G36*
X335698Y281431D02*
X335698Y281431D01*
X331777Y283055D01*
X328775Y286057D01*
X327151Y289978D01*
X327151Y294222D01*
X328775Y298143D01*
X331777Y301145D01*
X335698Y302769D01*
X356198Y302769D01*
X360119Y301145D01*
X363121Y298143D01*
X364745Y294222D01*
X364745Y289978D01*
X363121Y286057D01*
X360119Y283055D01*
X356198Y281431D01*
X335698Y281431D01*
G37*
%LPD*%
%LPC*%
G36*
X167042Y154431D02*
X167042Y154431D01*
X163121Y156055D01*
X160119Y159057D01*
X158495Y162978D01*
X158495Y167222D01*
X160119Y171143D01*
X163121Y174145D01*
X167042Y175769D01*
X187542Y175769D01*
X191463Y174145D01*
X194465Y171143D01*
X196089Y167222D01*
X196089Y162978D01*
X194465Y159057D01*
X191463Y156055D01*
X187542Y154431D01*
X167042Y154431D01*
G37*
%LPD*%
%LPC*%
G36*
X335698Y230631D02*
X335698Y230631D01*
X331777Y232255D01*
X328775Y235257D01*
X327151Y239178D01*
X327151Y243422D01*
X328775Y247343D01*
X331777Y250345D01*
X335698Y251969D01*
X356198Y251969D01*
X360119Y250345D01*
X363121Y247343D01*
X364745Y243422D01*
X364745Y239178D01*
X363121Y235257D01*
X360119Y232255D01*
X356198Y230631D01*
X335698Y230631D01*
G37*
%LPD*%
%LPC*%
G36*
X15150Y217931D02*
X15150Y217931D01*
X11229Y219555D01*
X8227Y222557D01*
X6603Y226478D01*
X6603Y230722D01*
X8227Y234643D01*
X11229Y237645D01*
X15150Y239269D01*
X35650Y239269D01*
X39571Y237645D01*
X42573Y234643D01*
X44197Y230722D01*
X44197Y226478D01*
X42573Y222557D01*
X39571Y219555D01*
X35650Y217931D01*
X15150Y217931D01*
G37*
%LPD*%
%LPC*%
G36*
X335698Y205231D02*
X335698Y205231D01*
X331777Y206855D01*
X328775Y209857D01*
X327151Y213778D01*
X327151Y218022D01*
X328775Y221943D01*
X331777Y224945D01*
X335698Y226569D01*
X356198Y226569D01*
X360119Y224945D01*
X363121Y221943D01*
X364745Y218022D01*
X364745Y213778D01*
X363121Y209857D01*
X360119Y206855D01*
X356198Y205231D01*
X335698Y205231D01*
G37*
%LPD*%
%LPC*%
G36*
X335698Y154431D02*
X335698Y154431D01*
X331777Y156055D01*
X328775Y159057D01*
X327151Y162978D01*
X327151Y167222D01*
X328775Y171143D01*
X331777Y174145D01*
X335698Y175769D01*
X356198Y175769D01*
X360119Y174145D01*
X363121Y171143D01*
X364745Y167222D01*
X364745Y162978D01*
X363121Y159057D01*
X360119Y156055D01*
X356198Y154431D01*
X335698Y154431D01*
G37*
%LPD*%
%LPC*%
G36*
X167042Y433831D02*
X167042Y433831D01*
X163121Y435455D01*
X160119Y438457D01*
X158495Y442378D01*
X158495Y446622D01*
X160119Y450543D01*
X163121Y453545D01*
X167042Y455169D01*
X187542Y455169D01*
X191463Y453545D01*
X194465Y450543D01*
X196089Y446622D01*
X196089Y442378D01*
X194465Y438457D01*
X191463Y435455D01*
X187542Y433831D01*
X167042Y433831D01*
G37*
%LPD*%
%LPC*%
G36*
X167042Y306831D02*
X167042Y306831D01*
X163121Y308455D01*
X160119Y311457D01*
X158495Y315378D01*
X158495Y319622D01*
X160119Y323543D01*
X163121Y326545D01*
X167042Y328169D01*
X187542Y328169D01*
X191463Y326545D01*
X194465Y323543D01*
X196089Y319622D01*
X196089Y315378D01*
X194465Y311457D01*
X191463Y308455D01*
X187542Y306831D01*
X167042Y306831D01*
G37*
%LPD*%
%LPC*%
G36*
X335698Y408431D02*
X335698Y408431D01*
X331777Y410055D01*
X328775Y413057D01*
X327151Y416978D01*
X327151Y421222D01*
X328775Y425143D01*
X331777Y428145D01*
X335698Y429769D01*
X356198Y429769D01*
X360119Y428145D01*
X363121Y425143D01*
X364745Y421222D01*
X364745Y416978D01*
X363121Y413057D01*
X360119Y410055D01*
X356198Y408431D01*
X335698Y408431D01*
G37*
%LPD*%
%LPC*%
G36*
X335698Y129031D02*
X335698Y129031D01*
X331777Y130655D01*
X328775Y133657D01*
X327151Y137578D01*
X327151Y141822D01*
X328775Y145743D01*
X331777Y148745D01*
X335698Y150369D01*
X356198Y150369D01*
X360119Y148745D01*
X363121Y145743D01*
X364745Y141822D01*
X364745Y137578D01*
X363121Y133657D01*
X360119Y130655D01*
X356198Y129031D01*
X335698Y129031D01*
G37*
%LPD*%
%LPC*%
G36*
X167042Y408431D02*
X167042Y408431D01*
X163121Y410055D01*
X160119Y413057D01*
X158495Y416978D01*
X158495Y421222D01*
X160119Y425143D01*
X163121Y428145D01*
X167042Y429769D01*
X187542Y429769D01*
X191463Y428145D01*
X194465Y425143D01*
X196089Y421222D01*
X196089Y416978D01*
X194465Y413057D01*
X191463Y410055D01*
X187542Y408431D01*
X167042Y408431D01*
G37*
%LPD*%
%LPC*%
G36*
X335698Y103631D02*
X335698Y103631D01*
X331777Y105255D01*
X328775Y108257D01*
X327151Y112178D01*
X327151Y116422D01*
X328775Y120343D01*
X331777Y123345D01*
X335698Y124969D01*
X356198Y124969D01*
X360119Y123345D01*
X363121Y120343D01*
X364745Y116422D01*
X364745Y112178D01*
X363121Y108257D01*
X360119Y105255D01*
X356198Y103631D01*
X335698Y103631D01*
G37*
%LPD*%
%LPC*%
G36*
X335698Y383031D02*
X335698Y383031D01*
X331777Y384655D01*
X328775Y387657D01*
X327151Y391578D01*
X327151Y395822D01*
X328775Y399743D01*
X331777Y402745D01*
X335698Y404369D01*
X356198Y404369D01*
X360119Y402745D01*
X363121Y399743D01*
X364745Y395822D01*
X364745Y391578D01*
X363121Y387657D01*
X360119Y384655D01*
X356198Y383031D01*
X335698Y383031D01*
G37*
%LPD*%
%LPC*%
G36*
X167042Y332231D02*
X167042Y332231D01*
X163121Y333855D01*
X160119Y336857D01*
X158495Y340778D01*
X158495Y345022D01*
X160119Y348943D01*
X163121Y351945D01*
X167042Y353569D01*
X187542Y353569D01*
X191463Y351945D01*
X194465Y348943D01*
X196089Y345022D01*
X196089Y340778D01*
X194465Y336857D01*
X191463Y333855D01*
X187542Y332231D01*
X167042Y332231D01*
G37*
%LPD*%
%LPC*%
G36*
X335698Y357631D02*
X335698Y357631D01*
X331777Y359255D01*
X328775Y362257D01*
X327151Y366178D01*
X327151Y370422D01*
X328775Y374343D01*
X331777Y377345D01*
X335698Y378969D01*
X356198Y378969D01*
X360119Y377345D01*
X363121Y374343D01*
X364745Y370422D01*
X364745Y366178D01*
X363121Y362257D01*
X360119Y359255D01*
X356198Y357631D01*
X335698Y357631D01*
G37*
%LPD*%
%LPC*%
G36*
X167042Y357631D02*
X167042Y357631D01*
X163121Y359255D01*
X160119Y362257D01*
X158495Y366178D01*
X158495Y370422D01*
X160119Y374343D01*
X163121Y377345D01*
X167042Y378969D01*
X187542Y378969D01*
X191463Y377345D01*
X194465Y374343D01*
X196089Y370422D01*
X196089Y366178D01*
X194465Y362257D01*
X191463Y359255D01*
X187542Y357631D01*
X167042Y357631D01*
G37*
%LPD*%
%LPC*%
G36*
X469899Y53499D02*
X469899Y53499D01*
X469899Y53540D01*
X469865Y53579D01*
X469862Y53577D01*
X469860Y53579D01*
X460247Y53579D01*
X460247Y54451D01*
X460618Y56316D01*
X461346Y58072D01*
X462402Y59653D01*
X463747Y60998D01*
X465328Y62054D01*
X465412Y62089D01*
X465418Y62101D01*
X465431Y62106D01*
X465428Y62116D01*
X465430Y62118D01*
X465428Y62121D01*
X465435Y62136D01*
X465418Y62144D01*
X465412Y62162D01*
X462993Y63164D01*
X459564Y66593D01*
X457707Y71075D01*
X457707Y75925D01*
X459564Y80407D01*
X462993Y83836D01*
X467475Y85693D01*
X472325Y85693D01*
X476807Y83836D01*
X480236Y80407D01*
X482093Y75925D01*
X482093Y71075D01*
X480236Y66593D01*
X476807Y63164D01*
X474388Y62162D01*
X474382Y62149D01*
X474369Y62145D01*
X474373Y62132D01*
X474373Y62130D01*
X474370Y62128D01*
X474371Y62127D01*
X474365Y62115D01*
X474382Y62107D01*
X474388Y62089D01*
X474472Y62054D01*
X476053Y60998D01*
X477398Y59653D01*
X478454Y58072D01*
X479182Y56316D01*
X479553Y54451D01*
X479553Y53579D01*
X469940Y53579D01*
X469901Y53545D01*
X469904Y53542D01*
X469901Y53540D01*
X469901Y53499D01*
X469899Y53499D01*
G37*
%LPD*%
%LPC*%
G36*
X130668Y307847D02*
X130668Y307847D01*
X127120Y309317D01*
X124405Y312032D01*
X122935Y315580D01*
X122935Y319420D01*
X124405Y322968D01*
X127120Y325683D01*
X130668Y327153D01*
X148732Y327153D01*
X152280Y325683D01*
X154995Y322968D01*
X156465Y319420D01*
X156465Y315580D01*
X154995Y312032D01*
X152280Y309317D01*
X148732Y307847D01*
X130668Y307847D01*
G37*
%LPD*%
%LPC*%
G36*
X130668Y257047D02*
X130668Y257047D01*
X127120Y258517D01*
X124405Y261232D01*
X122935Y264780D01*
X122935Y268620D01*
X124405Y272168D01*
X127120Y274883D01*
X130668Y276353D01*
X148732Y276353D01*
X152280Y274883D01*
X154995Y272168D01*
X156465Y268620D01*
X156465Y264780D01*
X154995Y261232D01*
X152280Y258517D01*
X148732Y257047D01*
X130668Y257047D01*
G37*
%LPD*%
%LPC*%
G36*
X337899Y190579D02*
X337899Y190579D01*
X337899Y201169D01*
X354916Y201169D01*
X356574Y200906D01*
X358171Y200387D01*
X359668Y199625D01*
X361026Y198638D01*
X362214Y197450D01*
X363201Y196092D01*
X363963Y194595D01*
X364482Y192998D01*
X364745Y191340D01*
X364745Y190579D01*
X337899Y190579D01*
G37*
%LPD*%
%LPC*%
G36*
X158495Y139779D02*
X158495Y139779D01*
X158495Y140540D01*
X158758Y142198D01*
X159277Y143795D01*
X160039Y145292D01*
X161026Y146650D01*
X162214Y147838D01*
X163572Y148825D01*
X165069Y149587D01*
X166666Y150106D01*
X168324Y150369D01*
X185341Y150369D01*
X185341Y139779D01*
X158495Y139779D01*
G37*
%LPD*%
%LPC*%
G36*
X337899Y179831D02*
X337899Y179831D01*
X337899Y190421D01*
X364745Y190421D01*
X364745Y189660D01*
X364482Y188002D01*
X363963Y186405D01*
X363201Y184908D01*
X362214Y183550D01*
X361026Y182362D01*
X359668Y181375D01*
X358171Y180613D01*
X356574Y180094D01*
X354916Y179831D01*
X337899Y179831D01*
G37*
%LPD*%
%LPC*%
G36*
X168324Y129031D02*
X168324Y129031D01*
X166666Y129294D01*
X165069Y129813D01*
X163572Y130575D01*
X162214Y131562D01*
X161026Y132750D01*
X160039Y134108D01*
X159277Y135605D01*
X158758Y137202D01*
X158495Y138860D01*
X158495Y139621D01*
X185341Y139621D01*
X185341Y129031D01*
X168324Y129031D01*
G37*
%LPD*%
%LPC*%
G36*
X25479Y279479D02*
X25479Y279479D01*
X25479Y290069D01*
X34368Y290069D01*
X36026Y289806D01*
X37623Y289287D01*
X39120Y288525D01*
X40478Y287538D01*
X41666Y286350D01*
X42653Y284992D01*
X43415Y283495D01*
X43934Y281898D01*
X44197Y280240D01*
X44197Y279479D01*
X25479Y279479D01*
G37*
%LPD*%
%LPC*%
G36*
X6603Y279479D02*
X6603Y279479D01*
X6603Y280240D01*
X6866Y281898D01*
X7385Y283495D01*
X8147Y284992D01*
X9134Y286350D01*
X10322Y287538D01*
X11680Y288525D01*
X13177Y289287D01*
X14774Y289806D01*
X16432Y290069D01*
X25321Y290069D01*
X25321Y279479D01*
X6603Y279479D01*
G37*
%LPD*%
%LPC*%
G36*
X16432Y268731D02*
X16432Y268731D01*
X14774Y268994D01*
X13177Y269513D01*
X11680Y270275D01*
X10322Y271262D01*
X9134Y272450D01*
X8147Y273808D01*
X7385Y275305D01*
X6866Y276902D01*
X6603Y278560D01*
X6603Y279321D01*
X25321Y279321D01*
X25321Y268731D01*
X16432Y268731D01*
G37*
%LPD*%
%LPC*%
G36*
X139779Y342979D02*
X139779Y342979D01*
X139779Y352553D01*
X147763Y352553D01*
X149628Y352182D01*
X151384Y351454D01*
X152965Y350398D01*
X154310Y349053D01*
X155366Y347472D01*
X156094Y345716D01*
X156465Y343851D01*
X156465Y342979D01*
X139779Y342979D01*
G37*
%LPD*%
%LPC*%
G36*
X122935Y342979D02*
X122935Y342979D01*
X122935Y343851D01*
X123306Y345716D01*
X124034Y347472D01*
X125090Y349053D01*
X126435Y350398D01*
X128016Y351454D01*
X129772Y352182D01*
X131637Y352553D01*
X139621Y352553D01*
X139621Y342979D01*
X122935Y342979D01*
G37*
%LPD*%
%LPC*%
G36*
X139779Y333247D02*
X139779Y333247D01*
X139779Y342821D01*
X156465Y342821D01*
X156465Y341949D01*
X156094Y340084D01*
X155366Y338328D01*
X154310Y336747D01*
X152965Y335402D01*
X151384Y334346D01*
X149628Y333618D01*
X147763Y333247D01*
X139779Y333247D01*
G37*
%LPD*%
%LPC*%
G36*
X131637Y333247D02*
X131637Y333247D01*
X129772Y333618D01*
X128016Y334346D01*
X126435Y335402D01*
X125090Y336747D01*
X124034Y338328D01*
X123306Y340084D01*
X122935Y341949D01*
X122935Y342821D01*
X139621Y342821D01*
X139621Y333247D01*
X131637Y333247D01*
G37*
%LPD*%
%LPC*%
G36*
X185499Y139779D02*
X185499Y139779D01*
X185499Y150369D01*
X186260Y150369D01*
X187918Y150106D01*
X189515Y149587D01*
X191012Y148825D01*
X192370Y147838D01*
X193558Y146650D01*
X194545Y145292D01*
X195307Y143795D01*
X195826Y142198D01*
X196089Y140540D01*
X196089Y139779D01*
X185499Y139779D01*
G37*
%LPD*%
%LPC*%
G36*
X327151Y190579D02*
X327151Y190579D01*
X327151Y191340D01*
X327414Y192998D01*
X327933Y194595D01*
X328695Y196092D01*
X329682Y197450D01*
X330870Y198638D01*
X332228Y199625D01*
X333725Y200387D01*
X335322Y200906D01*
X336980Y201169D01*
X337741Y201169D01*
X337741Y190579D01*
X327151Y190579D01*
G37*
%LPD*%
%LPC*%
G36*
X185499Y129031D02*
X185499Y129031D01*
X185499Y139621D01*
X196089Y139621D01*
X196089Y138860D01*
X195826Y137202D01*
X195307Y135605D01*
X194545Y134108D01*
X193558Y132750D01*
X192370Y131562D01*
X191012Y130575D01*
X189515Y129813D01*
X187918Y129294D01*
X186260Y129031D01*
X185499Y129031D01*
G37*
%LPD*%
%LPC*%
G36*
X336980Y179831D02*
X336980Y179831D01*
X335322Y180094D01*
X333725Y180613D01*
X332228Y181375D01*
X330870Y182362D01*
X329682Y183550D01*
X328695Y184908D01*
X327933Y186405D01*
X327414Y188002D01*
X327151Y189660D01*
X327151Y190421D01*
X337741Y190421D01*
X337741Y179831D01*
X336980Y179831D01*
G37*
%LPD*%
%LPC*%
G36*
X469979Y43847D02*
X469979Y43847D01*
X469979Y53421D01*
X479553Y53421D01*
X479553Y52549D01*
X479182Y50684D01*
X478454Y48928D01*
X477398Y47347D01*
X476053Y46002D01*
X474472Y44946D01*
X472716Y44218D01*
X470851Y43847D01*
X469979Y43847D01*
G37*
%LPD*%
%LPC*%
G36*
X468949Y43847D02*
X468949Y43847D01*
X467084Y44218D01*
X465328Y44946D01*
X463747Y46002D01*
X462402Y47347D01*
X461346Y48928D01*
X460618Y50684D01*
X460247Y52549D01*
X460247Y53421D01*
X469821Y53421D01*
X469821Y43847D01*
X468949Y43847D01*
G37*
%LPD*%
%LPC*%
G36*
X337819Y190499D02*
X337819Y190499D01*
X337819Y190501D01*
X337821Y190501D01*
X337821Y190499D01*
X337819Y190499D01*
G37*
%LPD*%
%LPC*%
G36*
X25399Y279399D02*
X25399Y279399D01*
X25399Y279401D01*
X25401Y279401D01*
X25401Y279399D01*
X25399Y279399D01*
G37*
%LPD*%
%LPC*%
G36*
X185419Y139699D02*
X185419Y139699D01*
X185419Y139701D01*
X185421Y139701D01*
X185421Y139699D01*
X185419Y139699D01*
G37*
%LPD*%
%LPC*%
G36*
X139699Y342899D02*
X139699Y342899D01*
X139699Y342901D01*
X139701Y342901D01*
X139701Y342899D01*
X139699Y342899D01*
G37*
%LPD*%
D10*
X185420Y469900D02*
X169164Y469900D01*
X169164Y444500D02*
X185420Y444500D01*
X185420Y419100D02*
X169164Y419100D01*
X169164Y393700D02*
X185420Y393700D01*
X185420Y368300D02*
X169164Y368300D01*
X169164Y342900D02*
X185420Y342900D01*
X185420Y317500D02*
X169164Y317500D01*
X169164Y292100D02*
X185420Y292100D01*
X185420Y266700D02*
X169164Y266700D01*
X169164Y241300D02*
X185420Y241300D01*
X185420Y215900D02*
X169164Y215900D01*
X169164Y190500D02*
X185420Y190500D01*
X185420Y165100D02*
X169164Y165100D01*
X169164Y139700D02*
X185420Y139700D01*
X185420Y114300D02*
X169164Y114300D01*
X337820Y114300D02*
X354076Y114300D01*
X354076Y139700D02*
X337820Y139700D01*
X337820Y165100D02*
X354076Y165100D01*
X354076Y190500D02*
X337820Y190500D01*
X337820Y215900D02*
X354076Y215900D01*
X354076Y241300D02*
X337820Y241300D01*
X337820Y266700D02*
X354076Y266700D01*
X354076Y292100D02*
X337820Y292100D01*
X337820Y317500D02*
X354076Y317500D01*
X354076Y342900D02*
X337820Y342900D01*
X337820Y368300D02*
X354076Y368300D01*
X354076Y393700D02*
X337820Y393700D01*
X337820Y419100D02*
X354076Y419100D01*
X354076Y444500D02*
X337820Y444500D01*
X337800Y469900D02*
X354056Y469900D01*
D11*
X469900Y73500D03*
X469900Y53500D03*
X403700Y355600D03*
X383700Y355600D03*
X393700Y282100D03*
X393700Y302100D03*
X393700Y205900D03*
X393700Y225900D03*
X444500Y129700D03*
X444500Y149700D03*
D12*
X146812Y266700D02*
X132588Y266700D01*
X132588Y292100D02*
X146812Y292100D01*
X70612Y292100D02*
X56388Y292100D01*
X56388Y266700D02*
X70612Y266700D01*
X132588Y317500D02*
X146812Y317500D01*
X146812Y342900D02*
X132588Y342900D01*
X70612Y317500D02*
X56388Y317500D01*
X56388Y342900D02*
X70612Y342900D01*
D13*
X63500Y228600D03*
X139700Y228600D03*
D10*
X33528Y177800D02*
X17272Y177800D01*
X17272Y203200D02*
X33528Y203200D01*
X33528Y228600D02*
X17272Y228600D01*
X17272Y254000D02*
X33528Y254000D01*
X33528Y279400D02*
X17272Y279400D01*
X17272Y304800D02*
X33528Y304800D01*
X33528Y330200D02*
X17272Y330200D01*
X17272Y355600D02*
X33528Y355600D01*
D14*
X97790Y215900D03*
X415290Y476250D03*
X267970Y245110D03*
X407670Y119380D03*
X279400Y292100D03*
X118110Y85090D03*
X77470Y441960D03*
X285750Y356870D03*
D15*
X139700Y228600D02*
X137160Y228600D01*
X123190Y242570D02*
X88900Y276860D01*
X123190Y242570D02*
X137160Y228600D01*
X88900Y276860D02*
X88900Y299720D01*
X71120Y317500D01*
X63500Y317500D01*
X200660Y227330D02*
X204470Y223520D01*
X204470Y132080D01*
X186690Y114300D01*
X185420Y114300D01*
X218440Y245110D02*
X218440Y358140D01*
X218440Y245110D02*
X200660Y227330D01*
X123190Y242570D02*
X118110Y237490D01*
X118110Y186690D01*
X120650Y184150D01*
X204470Y132080D02*
X247650Y88900D01*
X288290Y88900D01*
D14*
X200660Y227330D03*
X218440Y358140D03*
X120650Y184150D03*
X288290Y88900D03*
D16*
X398780Y375920D02*
X429260Y375920D01*
X398780Y375920D02*
X384810Y361950D01*
X384810Y355600D01*
X383700Y355600D01*
D14*
X429260Y375920D03*
D16*
X435610Y298450D02*
X406400Y298450D01*
X401320Y303530D01*
X394970Y303530D01*
X393700Y302260D01*
X393700Y302100D01*
D14*
X435610Y298450D03*
D16*
X328930Y261620D02*
X283210Y215900D01*
X328930Y261620D02*
X330200Y261620D01*
X335280Y266700D01*
X337820Y266700D01*
D14*
X283210Y215900D03*
D16*
X410210Y236220D02*
X441960Y236220D01*
X410210Y236220D02*
X400050Y226060D01*
X393700Y226060D01*
X393700Y225900D01*
D14*
X441960Y236220D03*
D16*
X482600Y189230D02*
X482600Y298450D01*
X482600Y189230D02*
X444500Y151130D01*
X444500Y149700D01*
D14*
X482600Y298450D03*
D16*
X189230Y393700D02*
X185420Y393700D01*
X189230Y393700D02*
X213360Y369570D01*
X223520Y369570D01*
X237490Y355600D01*
D14*
X237490Y355600D03*
D16*
X222250Y236220D02*
X222250Y165100D01*
X222250Y236220D02*
X231140Y245110D01*
X231140Y274320D01*
D14*
X222250Y165100D03*
X231140Y274320D03*
D16*
X158750Y203200D02*
X144780Y189230D01*
X144780Y184150D01*
X128270Y167640D01*
X104140Y167640D01*
X48260Y223520D01*
X48260Y255270D01*
X45720Y257810D01*
X45720Y259080D01*
X41910Y262890D01*
X41910Y266700D01*
X44450Y269240D01*
X44450Y270510D01*
X63500Y289560D01*
X63500Y292100D01*
D14*
X158750Y203200D03*
D16*
X77470Y367030D02*
X77470Y396240D01*
X77470Y367030D02*
X118110Y326390D01*
X118110Y308610D01*
X134620Y292100D01*
X139700Y292100D01*
D14*
X77470Y396240D03*
D16*
X30480Y177800D02*
X25400Y177800D01*
X30480Y177800D02*
X114300Y93980D01*
X229870Y93980D01*
X246380Y77470D01*
X293370Y77470D01*
X299720Y83820D01*
X299720Y186690D01*
X274320Y212090D01*
X274320Y238760D01*
X322580Y287020D01*
X322580Y323850D01*
X332740Y334010D01*
X332740Y335280D01*
X337820Y340360D01*
X337820Y342900D01*
X25400Y203200D02*
X20320Y203200D01*
X7620Y190500D01*
X7620Y189230D01*
X5080Y186690D01*
X5080Y168910D01*
X101600Y72390D01*
X334010Y72390D01*
X369570Y107950D01*
X369570Y425450D01*
X359410Y435610D01*
X359410Y436880D01*
X351790Y444500D01*
X337820Y444500D01*
X231140Y231140D02*
X231140Y124460D01*
X231140Y231140D02*
X317500Y317500D01*
X317500Y445770D01*
X332740Y461010D01*
X332740Y462280D01*
X336550Y466090D01*
X336550Y469900D01*
X337800Y469900D01*
D14*
X231140Y124460D03*
D16*
X107950Y363220D02*
X107950Y405130D01*
X163830Y461010D01*
X163830Y462280D01*
X171450Y469900D01*
X185420Y469900D01*
D14*
X107950Y363220D03*
D16*
X25400Y330200D02*
X20320Y330200D01*
X7620Y342900D01*
X7620Y344170D01*
X5080Y346710D01*
X5080Y364490D01*
X11430Y370840D01*
X66040Y370840D01*
X113030Y323850D01*
X113030Y292100D01*
X125730Y279400D01*
X127000Y279400D01*
X128270Y280670D01*
X151130Y280670D01*
X152400Y279400D01*
X153670Y279400D01*
X166370Y292100D01*
X185420Y292100D01*
X99060Y280670D02*
X99060Y308610D01*
X99060Y280670D02*
X127000Y252730D01*
X152400Y252730D01*
X166370Y266700D01*
X185420Y266700D01*
D14*
X99060Y308610D03*
D16*
X135890Y190500D02*
X135890Y182880D01*
X125730Y172720D01*
X115570Y172720D01*
X78740Y209550D01*
X78740Y243840D01*
X66040Y256540D01*
X66040Y264160D01*
X63500Y266700D01*
D14*
X135890Y190500D03*
M02*
