M48
;GenerationSoftware,Autodesk,EAGLE,9.6.2*%
;CreationDate,2023-05-17T02:01:59Z*%
FMAT,2
ICI,OFF
METRIC,TZ,000.000
T7C0.508
T6C0.800
T5C0.813
T4C0.900
T3C1.016
T2C6.000
%
G90
M71
T2
X3810Y46990
X26670Y3810
X45720Y46990
T3
X18542Y21590
X33782Y21590
X33782Y19050
X33782Y16510
X33782Y13970
X33782Y11430
X18542Y11430
X18542Y16510
X18542Y19050
X33782Y24130
X18542Y24130
X18542Y26670
X18542Y29210
X18542Y31750
X18542Y34290
X33780Y46990
X2540Y35560
X2540Y33020
X2540Y30480
X2540Y27940
X2540Y25400
X2540Y22860
X2540Y20320
X2540Y17780
X18542Y13970
X33782Y44450
X33782Y41910
X33782Y39370
X33782Y36830
X33782Y34290
X33782Y31750
X33782Y29210
X33782Y26670
X18542Y39370
X18542Y41910
X18542Y44450
X18542Y46990
X18542Y36830
T4
X6350Y22860
X13970Y22860
T5
X6350Y29210
X13970Y26670
X13970Y29210
X6350Y26670
X13970Y31750
X13970Y34290
X6350Y31750
X6350Y34290
T6
X46990Y5350
X44450Y14970
X44450Y12970
X39370Y22590
X39370Y20590
X39370Y30210
X39370Y28210
X39370Y37830
X39370Y35830
X46990Y7350
T7
X9525Y22987
X10033Y21590
X20320Y16510
X25400Y20701
X42164Y6858
X8509Y8509
X26162Y28194
X25400Y17018
X28194Y36830
X8763Y32766
X8763Y27813
X9652Y33782
X19177Y9525
X28194Y24511
X8763Y35941
X20701Y47498
X11938Y24384
X15621Y23114
X19939Y25019
X23368Y35560
X47244Y23876
X40894Y18669
X29337Y8128
X27051Y10414
X23241Y31623
X13716Y14224
X36449Y9398
X39624Y6223
X23114Y18796
M30